<svg width="24" height="17" viewBox="0 0 24 17" fill="none" xmlns="http://www.w3.org/2000/svg">
<path d="M3.6 1.21429C3.6 0.542634 4.13625 0 4.8 0H6C6.66375 0 7.2 0.542634 7.2 1.21429V7.28571V9.71429V15.7857C7.2 16.4574 6.66375 17 6 17H4.8C4.13625 17 3.6 16.4574 3.6 15.7857V13.3571H2.4C1.73625 13.3571 1.2 12.8145 1.2 12.1429V9.71429C0.53625 9.71429 0 9.17165 0 8.5C0 7.82835 0.53625 7.28571 1.2 7.28571V4.85714C1.2 4.18549 1.73625 3.64286 2.4 3.64286H3.6V1.21429ZM20.4 1.21429V3.64286H21.6C22.2638 3.64286 22.8 4.18549 22.8 4.85714V7.28571C23.4638 7.28571 24 7.82835 24 8.5C24 9.17165 23.4638 9.71429 22.8 9.71429V12.1429C22.8 12.8145 22.2638 13.3571 21.6 13.3571H20.4V15.7857C20.4 16.4574 19.8638 17 19.2 17H18C17.3363 17 16.8 16.4574 16.8 15.7857V9.71429V7.28571V1.21429C16.8 0.542634 17.3363 0 18 0H19.2C19.8638 0 20.4 0.542634 20.4 1.21429ZM15.6 7.28571V9.71429H8.4V7.28571H15.6Z" fill="#FEEDE2"/>
</svg>
