<svg width="14" height="16" viewBox="0 0 14 16" fill="none" xmlns="http://www.w3.org/2000/svg">
<path d="M4.97813 0.169531C5.22188 -0.0585828 5.6 -0.055458 5.84375 0.172656C6.70625 0.981991 7.51562 1.85382 8.27188 2.79753C8.61563 2.34755 9.00625 1.85695 9.42813 1.45697C9.675 1.22573 10.0563 1.22573 10.3031 1.46009C11.3844 2.49129 12.3 3.85372 12.9438 5.14741C13.5781 6.42235 14 7.72541 14 8.64411C14 12.6314 10.8813 16 7 16C3.075 16 0 12.6283 0 8.64099C0 7.44105 0.55625 5.97549 1.41875 4.52557C2.29063 3.05376 3.52188 1.51946 4.97813 0.169531ZM7.05312 13.0001C7.84375 13.0001 8.54375 12.7814 9.20312 12.3439C10.5188 11.4252 10.8719 9.58782 10.0813 8.14414C9.94063 7.8629 9.58125 7.84415 9.37813 8.08164L8.59062 8.99722C8.38438 9.23471 8.0125 9.22846 7.81875 8.9816C7.30312 8.32538 6.38125 7.15356 5.85625 6.48797C5.65938 6.23798 5.28438 6.23486 5.08437 6.48484C4.02813 7.8129 3.49688 8.65036 3.49688 9.59094C3.5 11.7315 5.08125 13.0001 7.05312 13.0001Z" fill="url(#paint0_linear_553_8028)"/>
<defs>
<linearGradient id="paint0_linear_553_8028" x1="7" y1="0" x2="7" y2="16" gradientUnits="userSpaceOnUse">
<stop stop-color="#FAE0CD"/>
<stop offset="1" stop-color="#F46E0D"/>
</linearGradient>
</defs>
</svg>
