<svg width="24" height="24" viewBox="0 0 24 24" fill="none" xmlns="http://www.w3.org/2000/svg">
<path d="M16.2517 0.281233C15.8251 0.796826 15.0001 1.98269 15.0001 3.37479C15.0001 5.24968 15.7173 5.96682 16.8751 7.12456C18.0329 8.2823 18.7501 8.99945 20.625 8.99945C22.0172 8.99945 23.2031 8.1745 23.7188 7.74796C23.9063 7.59328 24 7.36361 24 7.12456C24 6.88552 23.9063 6.65584 23.7188 6.50585C23.1844 6.07931 21.9235 5.24968 20.2501 5.24968C18.7501 5.24968 18.3751 5.62465 18.3751 5.62465C18.3751 5.62465 18.7501 5.24968 18.7501 3.74977C18.7501 2.07644 17.9204 0.815575 17.4938 0.281233C17.3438 0.0937442 17.1142 0 16.8751 0C16.636 0 16.4064 0.0937442 16.2517 0.281233ZM11.4658 6.37461C9.59083 6.37461 7.85179 7.22299 6.69868 8.63385L9.53457 11.4696C9.8252 11.7602 9.8252 12.2383 9.53457 12.5289C9.24395 12.8195 8.76584 12.8195 8.47521 12.5289L5.88306 9.93689V9.94158L0.103454 22.4002C-0.0934184 22.8267 -0.00435708 23.3329 0.328451 23.6704C0.661259 24.0079 1.1675 24.0923 1.59875 23.8954L7.91272 20.9706L5.47057 18.5285C5.17995 18.2379 5.17995 17.7598 5.47057 17.4692C5.76119 17.1786 6.23931 17.1786 6.52993 17.4692L9.36114 20.2956L14.058 18.1208C16.2329 17.113 17.6298 14.9335 17.6298 12.5336C17.6251 9.13069 14.8689 6.37461 11.4658 6.37461Z" fill="#E6F9EE"/>
</svg>
