<svg width="17" height="24" viewBox="0 0 17 24" fill="none" xmlns="http://www.w3.org/2000/svg">
<path d="M12.3636 18C12.8273 16.5047 13.7884 15.2297 14.7398 13.9594C14.9909 13.6266 15.242 13.2937 15.4835 12.9562C16.4398 11.6203 17 10.0031 17 8.25469C17 3.69375 13.1943 0 8.5 0C3.80568 0 0 3.69375 0 8.25C0 9.99844 0.560227 11.6203 1.51648 12.9516C1.75795 13.2891 2.00909 13.6219 2.26023 13.9547C3.21648 15.225 4.17756 16.5047 4.63636 17.9953H12.3636V18ZM8.5 24C10.6347 24 12.3636 22.3219 12.3636 20.25V19.5H4.63636V20.25C4.63636 22.3219 6.36534 24 8.5 24ZM4.63636 8.25C4.63636 8.6625 4.28864 9 3.86364 9C3.43864 9 3.09091 8.6625 3.09091 8.25C3.09091 5.34844 5.51051 3 8.5 3C8.925 3 9.27273 3.3375 9.27273 3.75C9.27273 4.1625 8.925 4.5 8.5 4.5C6.36534 4.5 4.63636 6.17812 4.63636 8.25Z" fill="#F2EAF6"/>
</svg>
