<svg width="48" height="48" viewBox="0 0 48 48" fill="none" xmlns="http://www.w3.org/2000/svg">
<mask id="mask0_1683_1291" style="mask-type:alpha" maskUnits="userSpaceOnUse" x="0" y="0" width="48" height="48">
<circle cx="24" cy="24" r="24" fill="#D9D9D9"/>
</mask>
<g mask="url(#mask0_1683_1291)">
<path d="M33.5006 29.503C28.51 28.6012 29.9919 23.9135 30.117 22.9338C30.2421 21.9542 32.8269 21.929 35.9396 22.4915C39.0523 23.0539 41.5141 23.9909 41.389 24.9706C41.3203 27.0931 36.4558 30.0369 33.5006 29.503Z" fill="#BCBEA2"/>
<path d="M36.8739 23.7643C34.9759 23.3299 33.9298 23.3292 33.9419 23.2345C33.9825 23.0018 35.554 23.1653 37.452 23.5997C39.35 24.0342 40.8558 24.5751 40.8152 24.8079C40.7746 25.0407 38.772 24.1988 36.8739 23.7643Z" fill="#D9D6C7"/>
<path d="M34.5554 26.7958C33.0269 25.5199 31.716 24.8161 31.7696 24.7399C31.9114 24.5576 33.5922 25.5867 35.1773 26.7012C36.7059 27.977 37.3662 27.9926 37.0007 28.4093C36.6569 28.8015 36.084 28.0716 34.5554 26.7958Z" fill="#D9D6C7"/>
<path d="M34.2179 27.2993C33.0149 26.2953 31.9832 25.7414 32.0254 25.6814C32.137 25.5379 33.4598 26.3478 34.7073 27.2249C35.9103 28.229 36.43 28.2412 36.1423 28.5692C35.8718 28.8779 35.4209 28.3034 34.2179 27.2993Z" fill="#D9D6C7"/>
<path d="M37.9225 26.0854C36.6355 25.426 35.6214 25.0843 35.6388 25.0381C35.6892 24.9268 37.0185 25.4375 38.3053 26.0017C39.5922 26.6612 40.0252 26.6388 39.8832 26.8952C39.7496 27.1364 39.2094 26.7448 37.9225 26.0854Z" fill="#D9D6C7"/>
<path d="M36.3554 25.9982C34.6177 25.01 33.2473 24.4574 33.2711 24.4007C33.3399 24.2653 35.136 25.0696 36.874 25.9368C38.6118 26.925 39.1981 26.9474 39.0042 27.2562C38.8219 27.5467 38.0932 26.9863 36.3554 25.9982Z" fill="#D9D6C7"/>
<path d="M35.5575 26.2607C33.3466 25.1283 32.9622 24.9553 32.9751 24.8542C33.0668 24.7152 34.45 25.1878 36.0994 26.2323C37.7297 27.4053 38.3281 27.4707 38.081 27.785C37.8486 28.0807 37.1878 27.4337 35.5575 26.2607Z" fill="#D9D6C7"/>
<path d="M33.3722 27.5604C32.1692 26.5563 31.7592 26.151 31.8014 26.091C31.9129 25.9476 32.6141 26.6089 33.8616 27.486C35.0646 28.49 35.5843 28.5023 35.2966 28.8303C35.0261 29.1389 34.5751 28.5645 33.3722 27.5604Z" fill="#D9D6C7"/>
<path d="M32.8852 27.9431C32.1681 27.1925 32.0833 26.9831 32.0948 26.9722C32.2141 26.8582 32.3708 26.9807 33.3949 27.9316C34.3626 28.9907 34.9173 29.0206 34.6148 29.277C34.3304 29.5182 33.8529 29.0021 32.8852 27.9431Z" fill="#D9D6C7"/>
<path d="M31.7504 27.7034C31.2503 27.0718 31.2151 26.8936 31.2277 26.884C31.3585 26.7839 31.4761 26.8862 32.2145 27.6843C32.8803 28.5762 33.377 28.5917 33.0519 28.8174C32.7461 29.0298 32.4163 28.5953 31.7504 27.7034Z" fill="#D9D6C7"/>
<path d="M31.2645 27.8376C30.9599 27.3661 30.9365 27.2472 30.9437 27.2427C31.0194 27.196 31.0903 27.2773 31.5379 27.8872C31.9442 28.5477 32.2373 28.6239 32.049 28.7252C31.872 28.8206 31.6708 28.4981 31.2645 27.8376Z" fill="#D9D6C7"/>
<path d="M37.032 23.0958C35.6529 22.7801 35.179 22.7411 35.1878 22.6723C35.2173 22.5031 36.0729 22.6605 37.4521 22.9762C38.8312 23.2919 39.9253 23.6849 39.8958 23.8541C39.8664 24.0232 38.4112 23.4115 37.032 23.0958Z" fill="#D9D6C7"/>
<path d="M36.2701 24.4119C34.1429 23.925 32.9753 23.8965 32.9868 23.8017C33.0274 23.5689 34.7848 23.775 36.912 24.2619C39.0392 24.7489 40.7308 25.3323 40.6902 25.5651C40.6496 25.7979 38.3973 24.8989 36.2701 24.4119Z" fill="#D9D6C7"/>
<path d="M37.3595 25.1818C35.8044 24.7138 34.946 24.6053 34.9564 24.5473C34.991 24.4058 36.2796 24.6706 37.8347 25.1386C39.3898 25.6066 40.6224 26.1007 40.5878 26.2422C40.5533 26.3836 38.9145 25.6499 37.3595 25.1818Z" fill="#D9D6C7"/>
<path d="M41.3067 53.3928C42.5945 54.4268 43.8429 55.7082 50.6527 58.4169C52.1741 60.9949 58.3652 62.8353 63.417 63.1056C63.7464 63.1233 65.0524 62.8132 64.1691 61.3163C63.1876 59.6531 61.6029 59.1305 59.468 58.036C57.0599 56.8013 53.8553 57.5361 53.6976 57.6292C53.3412 57.7214 52.0043 57.2829 51.0017 56.3049C40.7777 47.0898 38.4558 36.1266 33.9409 28.4758C28.1904 18.1905 23.0524 10.6832 20.2642 12.3286C17.4759 13.974 18.5121 26.4807 24.5713 35.1263C28.6849 41.5564 32.2114 46.0904 41.3067 53.3928Z" fill="#D5C6C2"/>
<path d="M43.8584 52.6715C45.6882 51.5917 38.6688 42.6158 32.8658 28.9978C26.9844 19.0313 22.819 12.8388 20.9893 13.9186C19.1595 14.9983 18.4861 23.3737 24.3675 33.3402C30.249 43.3066 42.0286 53.7513 43.8584 52.6715Z" fill="#DBCDCA"/>
<path d="M20.4181 34.2142C24.3816 31.8752 21.3463 28.2983 20.8711 27.493C20.3959 26.6878 18.1585 27.4749 15.6864 28.9338C13.2142 30.3926 11.4436 31.9708 11.9188 32.776C12.774 34.5841 18.071 35.5993 20.4181 34.2142Z" fill="#BCBEA2"/>
<path d="M15.3562 30.3238C16.8293 29.3553 17.7308 29.0274 17.6848 28.9496C17.5626 28.7616 16.2693 29.3943 14.7962 30.3628C13.3231 31.3312 12.228 32.2687 12.3503 32.4567C12.4726 32.6446 13.8831 31.2922 15.3562 30.3238Z" fill="#DDD6C6"/>
<path d="M18.4905 32.2114C19.3296 30.6333 20.1956 29.6165 20.1207 29.5675C19.9302 29.4547 18.8673 30.8678 17.9189 32.3245C17.0798 33.9025 16.5165 34.1226 16.9879 34.3674C17.4312 34.5979 17.6514 33.7894 18.4905 32.2114Z" fill="#DDD6C6"/>
<path d="M18.9709 32.5397C19.6313 31.2977 20.3128 30.4974 20.254 30.4589C20.104 30.3701 19.2675 31.4822 18.5211 32.6286C17.8607 33.8706 17.4174 34.0438 17.7884 34.2365C18.1373 34.4178 18.3105 33.7816 18.9709 32.5397Z" fill="#DDD6C6"/>
<path d="M15.3239 32.6524C16.1859 31.6813 16.9319 31.0695 16.8996 31.035C16.8145 30.9549 15.8601 31.8111 14.9626 32.7001C14.1006 33.6712 13.7189 33.7875 13.9376 33.964C14.1431 34.1301 14.4619 33.6236 15.3239 32.6524Z" fill="#DDD6C6"/>
<path d="M16.6398 32.087C17.7671 30.6915 18.7411 29.7862 18.6994 29.7448C18.5893 29.6497 17.3427 30.905 16.1698 32.1964C15.0424 33.5919 14.5455 33.7947 14.8285 34.0002C15.0945 34.1936 15.5125 33.4825 16.6398 32.087Z" fill="#DDD6C6"/>
<path d="M17.4271 32.0635C18.9081 30.3956 19.1746 30.1262 19.1255 30.043C18.9944 29.952 17.9793 30.7922 16.9493 32.2086C15.9839 33.7299 15.4927 33.9735 15.8236 34.1671C16.1347 34.3493 16.4617 33.5848 17.4271 32.0635Z" fill="#DDD6C6"/>
<path d="M19.799 32.4999C20.4594 31.2579 20.6608 30.7803 20.602 30.7418C20.452 30.653 20.0956 31.4425 19.3492 32.5889C18.6889 33.8308 18.2455 34.004 18.6165 34.1967C18.9654 34.3781 19.1387 33.7418 19.799 32.4999Z" fill="#DDD6C6"/>
<path d="M20.3608 32.6775C20.6975 31.8061 20.692 31.5991 20.6781 31.5933C20.5325 31.5323 20.4433 31.687 19.9172 32.8271C19.4803 34.0428 19.0133 34.2422 19.3702 34.3685C19.7058 34.4874 19.9239 33.8931 20.3608 32.6775Z" fill="#DDD6C6"/>
<path d="M21.249 32.116C21.4433 31.4151 21.4068 31.2504 21.3923 31.2461C21.2421 31.2007 21.1791 31.3257 20.8419 32.2447C20.6024 33.2219 20.1801 33.3907 20.545 33.4835C20.8883 33.5709 21.0096 33.0931 21.249 32.116Z" fill="#DDD6C6"/>
<path d="M21.7197 32.0792C21.8055 31.5775 21.7811 31.4676 21.7731 31.466C21.6904 31.4494 21.6598 31.5417 21.5027 32.2075C21.4002 32.9039 21.1761 33.0614 21.3764 33.0898C21.5648 33.1166 21.6172 32.7756 21.7197 32.0792Z" fill="#DDD6C6"/>
<path d="M14.968 29.7973C16.0384 29.0936 16.4322 28.9117 16.3989 28.8551C16.31 28.7185 15.6315 29.1219 14.5611 29.8256C13.4908 30.5293 12.6951 31.2105 12.7839 31.3471C12.8728 31.4837 13.8977 30.501 14.968 29.7973Z" fill="#DDD6C6"/>
<path d="M16.1204 30.6926C17.7714 29.6072 18.7672 29.2173 18.7216 29.1392C18.5994 28.9512 17.1619 29.6788 15.5109 30.7642C13.8599 31.8496 12.6206 32.8819 12.7429 33.0698C12.8651 33.2578 14.4694 31.778 16.1204 30.6926Z" fill="#DDD6C6"/>
<path d="M15.4706 31.6974C16.6355 30.8073 17.3347 30.4451 17.304 30.3984C17.2212 30.2873 16.2097 30.9188 15.0448 31.8088C13.8799 32.6989 13.0027 33.5105 13.0855 33.6216C13.1683 33.7327 14.3057 32.5874 15.4706 31.6974Z" fill="#DDD6C6"/>
<ellipse cx="1.11802" cy="0.281845" rx="1.11802" ry="0.281845" transform="matrix(0.548197 0.836349 0.833468 -0.552568 25.9062 16.637)" fill="#3A3644"/>
<ellipse cx="0.953425" cy="0.291193" rx="0.953425" ry="0.291193" transform="matrix(0.139922 0.990162 0.994839 -0.10147 18.8477 19.6671)" fill="#3A3644"/>
<path d="M20.5895 25.0305C20.1562 25.0171 19.8191 21.2619 19.7047 19.386C19.6873 19.1006 20.6355 18.8367 20.8879 18.6877C21.2035 18.5015 21.9222 18.638 22.2482 18.1093C22.5743 17.5805 22.86 17.524 23.5104 17.3644C24.1607 17.2049 24.534 17.6573 25.1545 17.6275C25.7751 17.5977 25.4981 18.2096 26.6199 18.6688C27.7417 19.128 27.7294 20.3686 27.8468 20.7478C27.9642 21.127 29.1544 21.8823 30.0395 22.4811C30.7477 22.9602 31.1525 24.0668 31.2664 24.5601L32.148 26.9551C31.8979 27.2522 31.2974 27.7485 30.8964 27.3573C30.3951 26.8683 29.9498 27.9159 29.9778 28.6843C30.0058 29.4526 28.7262 29.0865 28.7665 28.6142C28.8069 28.1419 27.6254 27.9421 26.8962 28.1482C26.167 28.3543 25.4185 28.3475 24.9769 27.5991C24.5352 26.8506 23.8936 27.5656 23.1942 27.642C22.4948 27.7183 22.1425 26.5808 22.4493 25.8391C22.7561 25.0974 22.1759 24.655 21.615 24.4254C21.0541 24.1958 21.1312 25.0473 20.5895 25.0305Z" fill="#D61818"/>
<path d="M22.5361 13.0857C20.7272 11.4622 19.6205 13.3113 19.2932 14.4388C19.4895 14.7714 19.4404 14.6883 21.1846 14.2196C22.5799 13.8447 22.667 13.3074 22.5361 13.0857Z" fill="#C4A9B2"/>
<path d="M21.0553 15.0811C19.1566 15.0355 19.1119 16.7139 19.3268 17.5587C19.4828 18.3637 22.8239 17.1769 22.8642 16.7046C22.8965 16.3267 24.7434 16.4647 24.4804 16.1993C24.1299 15.8456 22.9541 15.1267 21.0553 15.0811Z" fill="#CAADB1"/>
<path d="M26.2567 32.9304C25.3578 33.2814 24.1504 32.3047 23.659 31.7724C23.3744 31.4919 26.2025 30.4957 26.3883 31.1709C26.5369 31.7111 27.1782 31.7886 27.4803 31.7598C28.5618 32.6913 27.3804 32.4915 26.2567 32.9304Z" fill="#E03311"/>
<path d="M32.8964 29.7344C32.9819 30.3118 33.4824 30.5472 33.722 30.5927C34.1931 31.391 33.799 31.4442 33.5431 31.3709C33.1435 30.934 32.4027 30.3397 32.6368 31.4573C32.9295 32.8542 31.9145 33.1168 31.9742 32.8574C32.0338 32.598 31.3046 32.8041 30.9014 32.4814C30.4983 32.1587 30.8367 30.3893 30.9752 30.0833C31.1137 29.7773 32.7895 29.0126 32.8964 29.7344Z" fill="#091120" stroke="#091120"/>
<path d="M27.3141 36.3788C27.5287 35.4449 27.0179 35.096 26.7357 35.0383C26.194 34.5731 27.5438 34.7856 29.032 34.2438C30.2226 33.8103 30.6043 34.325 30.6464 34.6365C30.4162 34.8471 30.178 35.4287 31.067 36.0701C32.1783 36.8719 31.6348 37.7532 31.4876 37.5038C31.3404 37.2543 29.5682 36.9546 30.0695 37.4436C30.4705 37.8349 30.2354 38.2053 30.0677 38.3417C29.5325 38.3959 28.4918 38.3747 28.6111 37.8558C28.7303 37.337 28.4715 37.0786 28.3272 37.0142C27.9001 37.1916 27.0994 37.3127 27.3141 36.3788Z" fill="#091120"/>
<path d="M34.6052 33.4656C34.3851 33.2367 34.8828 32.5543 35.1592 32.2417C35.9655 32.8871 38.6926 38.2293 38.3368 38.8878C37.9809 39.5463 35.5199 38.9804 35.7565 38.8408C35.9458 38.729 35.4159 38.4438 35.1272 38.3151C34.3011 37.7562 32.8262 36.5785 33.5358 36.3392C34.2453 36.0998 33.7805 34.1514 33.8356 34.144C34.2297 34.0908 34.8853 33.8609 34.6052 33.4656Z" fill="#D61516"/>
<ellipse cx="0.386246" cy="0.366377" rx="0.386246" ry="0.366377" transform="matrix(0.50823 0.861222 0.861222 -0.50823 32.3262 28.083)" fill="#ECF6F8"/>
<ellipse cx="0.386246" cy="0.366377" rx="0.386246" ry="0.366377" transform="matrix(0.50823 0.861222 0.861222 -0.50823 33.5 31.875)" fill="#ECF6F8"/>
<ellipse cx="0.386246" cy="0.366377" rx="0.386246" ry="0.366377" transform="matrix(0.50823 0.861222 0.861222 -0.50823 29.0352 39.4444)" fill="#ECF6F8"/>
<ellipse cx="0.386246" cy="0.366377" rx="0.386246" ry="0.366377" transform="matrix(0.50823 0.861222 0.861222 -0.50823 24.7891 34.7738)" fill="#ECF6F8"/>
<ellipse cx="0.386246" cy="0.366377" rx="0.386246" ry="0.366377" transform="matrix(0.50823 0.861222 0.861222 -0.50823 38.2891 40.7099)" fill="#ECF6F8"/>
<ellipse cx="0.289685" cy="0.274783" rx="0.289685" ry="0.274783" transform="matrix(0.50823 0.861222 0.861222 -0.50823 38.3066 41.8208)" fill="#ECF6F8"/>
<path d="M39.9657 47.6304C40.3205 47.5107 40.5226 46.5917 40.5794 46.1471C40.6643 45.4808 40.7962 46.9834 41.7484 47.5875C42.7006 48.1917 41.5917 48.7638 41.1839 49.154C40.9899 49.3059 40.631 49.8391 40.7473 50.7571C40.8636 51.6751 39.758 51.3035 39.1907 51.0029C38.3026 50.2189 36.4045 48.5884 35.9165 48.3381C35.3065 48.0254 35.24 46.8313 35.6133 47.2837C35.912 47.6457 36.7416 47.8139 37.119 47.8528C36.7498 46.9868 36.2648 45.5762 37.2786 46.8616C38.5459 48.4683 39.5223 47.78 39.9657 47.6304Z" fill="#D61516"/>
<path d="M37.0929 41.5276C36.0777 40.9606 33.4145 37.4569 32.2097 35.7759C30.6179 38.8456 34.86 40.2665 35.2525 40.9318C37.9458 49.3885 43.3214 52.5025 45.648 52.9609C42.1335 52.2318 38.4914 46.4205 38.9454 45.9283C39.3087 45.5346 39.3936 45.0658 39.3907 44.8807C39.0478 43.9992 38.1082 42.0945 37.0929 41.5276Z" fill="#A4A176"/>
<path d="M32.5555 37.9314C32.4445 37.4216 32.4402 37.0315 32.416 37.0348C32.3563 37.0457 32.3912 37.5612 32.4577 38.0647C32.5687 38.5746 32.4919 38.7302 32.6335 38.6954C32.7666 38.6628 32.6664 38.4413 32.5555 37.9314Z" fill="#D9D6C7"/>
<path d="M33.59 38.6115C33.4702 38.061 33.5043 37.6327 33.4661 37.6385C33.3718 37.6558 33.3726 38.2191 33.4237 38.7665C33.5435 39.317 33.4076 39.4947 33.6319 39.4441C33.8429 39.3965 33.7098 39.1619 33.59 38.6115Z" fill="#D9D6C7"/>
<path d="M33.0244 38.1815C32.8885 37.6769 32.8922 37.2801 32.8596 37.2866C32.7796 37.3058 32.8139 37.8263 32.8906 38.3303C33.0265 38.8349 32.9202 39.0036 33.1101 38.9494C33.2888 38.8984 33.1603 38.6861 33.0244 38.1815Z" fill="#D9D6C7"/>
<path d="M34.2336 39.2004C34.1544 38.8366 34.207 38.5481 34.1724 38.5536C34.087 38.5692 34.0587 38.9468 34.0764 39.3116C34.1555 39.6754 34.0244 39.8004 34.2283 39.7567C34.4201 39.7157 34.3127 39.5642 34.2336 39.2004Z" fill="#D9D6C7"/>
<path d="M37.8301 43.3978C37.2237 43.0482 36.842 42.6641 36.8204 42.7025C36.7701 42.7999 37.3045 43.2651 37.8593 43.6727C38.4657 44.0222 38.5379 44.289 38.6486 44.0493C38.7528 43.8239 38.4364 43.7473 37.8301 43.3978Z" fill="#D9D6C7"/>
<path d="M38.2146 44.437C37.7284 43.9233 37.4481 43.467 37.4228 43.49C37.3626 43.5498 37.7664 44.1297 38.1976 44.6708C38.6838 45.1845 38.7063 45.4281 38.8428 45.276C38.9713 45.133 38.7009 44.9507 38.2146 44.437Z" fill="#D9D6C7"/>
<path d="M37.8871 44.6194C37.463 44.0515 37.2375 43.5661 37.2095 43.5855C37.1423 43.637 37.4763 44.26 37.8422 44.848C38.2663 45.4159 38.2598 45.6591 38.4142 45.5262C38.5594 45.4012 38.3113 45.1873 37.8871 44.6194Z" fill="#D9D6C7"/>
<path d="M37.6163 45.0236C37.1219 44.3618 36.8733 43.7852 36.8363 43.8112C36.7471 43.8795 37.1228 44.6159 37.5418 45.3071C38.0361 45.9689 38.0091 46.2672 38.2151 46.0923C38.4089 45.9278 38.1106 45.6855 37.6163 45.0236Z" fill="#D9D6C7"/>
<rect opacity="0.8" x="-14" y="-14" width="80" height="80" fill="url(#paint0_linear_1683_1291)"/>
<g filter="url(#filter0_f_1683_1291)">
<path d="M84.6388 39.9365C85.3175 39.7652 85.9451 40.1456 85.9722 40.7818C86.2639 47.6209 82.4476 54.8312 75.5272 59.144C65.8308 65.1866 53.7124 63.2527 48.46 54.8245C43.2076 46.3962 46.8101 34.6652 56.5065 28.6225C63.4269 24.3097 71.5811 24.0602 77.5923 27.3349C78.1514 27.6395 78.2165 28.3705 77.7636 28.9044L66.1453 42.6013C65.4043 43.4749 66.1136 44.613 67.2242 44.3326L84.6388 39.9365Z" fill="#6DA73B"/>
</g>
<g filter="url(#filter1_f_1683_1291)">
<path d="M35.1918 40.0151C35.4778 39.8566 35.8397 39.9675 35.9677 40.2682C37.3429 43.5017 36.867 47.3761 34.4167 50.2171C30.9835 54.1977 24.9743 54.6422 20.9946 51.2098C17.015 47.7775 16.572 41.7681 20.0052 37.7875C22.4555 34.9465 26.218 33.9067 29.6183 34.7921C29.9346 34.8745 30.0975 35.2162 29.9827 35.5223L27.0387 43.3756C26.8509 43.8764 27.3884 44.3399 27.8562 44.0806L35.1918 40.0151Z" fill="#76B454"/>
</g>
<g filter="url(#filter2_f_1683_1291)">
<path d="M41.4568 30.4498C41.5269 30.7284 41.3673 30.9896 41.1024 31.0051C38.2547 31.1718 35.2603 29.6482 33.4781 26.8258C30.9809 22.8711 31.8091 17.864 35.3279 15.6422C38.8466 13.4203 43.7234 14.8251 46.2205 18.7797C48.0027 21.6022 48.0911 24.9608 46.7164 27.4602C46.5885 27.6927 46.284 27.7245 46.0626 27.5415L40.3827 22.8469C40.0205 22.5475 39.5453 22.8476 39.6599 23.3033L41.4568 30.4498Z" fill="#76B454"/>
</g>
<g filter="url(#filter3_f_1683_1291)">
<path d="M9.90778 13.6307C10.3936 13.1841 11.2594 13.2361 11.7761 13.7729C17.3303 19.5444 19.4296 27.4444 16.4606 34.2112C12.3008 43.6922 -0.233456 47.3583 -11.5353 42.3995C-22.8372 37.4408 -28.6269 25.735 -24.4671 16.254C-21.4982 9.48721 -14.2634 5.68256 -6.2555 5.86149C-5.51059 5.87813 -4.88608 6.4801 -4.88576 7.14L-4.8775 24.0702C-4.87698 25.1499 -3.35077 25.8195 -2.55591 25.0888L9.90778 13.6307Z" fill="#649238"/>
</g>
<g filter="url(#filter4_f_1683_1291)">
<path d="M30.3355 -12.4841C30.2801 -12.911 30.6071 -13.3188 31.0563 -13.3515C35.8854 -13.7023 40.5826 -11.4532 42.9491 -7.16235C46.2648 -1.15037 43.7493 6.59305 37.3306 10.1331C30.9119 13.6731 23.0206 11.6692 19.7049 5.65719C17.3385 1.36637 17.9423 -3.80643 20.8156 -7.70356C21.0829 -8.06607 21.6022 -8.12509 21.9338 -7.8504L30.4394 -0.8031C30.9818 -0.353663 31.8486 -0.831708 31.7579 -1.53028L30.3355 -12.4841Z" fill="#649238"/>
</g>
<g filter="url(#filter5_f_1683_1291)">
<ellipse cx="8.95627" cy="7.14321" rx="3.02463" ry="2.81864" fill="#E3F4F4"/>
</g>
<g filter="url(#filter6_f_1683_1291)">
<ellipse cx="14.8641" cy="2.46912" rx="1.99103" ry="1.85544" fill="#E3F4F4"/>
</g>
<g filter="url(#filter7_f_1683_1291)">
<ellipse cx="3.63594" cy="6.66664" rx="1.40352" ry="1.30793" fill="#E3F4F4"/>
</g>
<g filter="url(#filter8_f_1683_1291)">
<ellipse cx="9.55386" cy="2.44886" rx="1.70816" ry="1.59182" fill="#E3F4F4"/>
</g>
<g filter="url(#filter9_f_1683_1291)">
<ellipse cx="13.5143" cy="9.24198" rx="1.36" ry="1.26737" fill="#E3F4F4"/>
</g>
<g filter="url(#filter10_f_1683_1291)">
<ellipse cx="4.93007" cy="10.2863" rx="1.10976" ry="1.03418" fill="#E3F4F4"/>
</g>
<g filter="url(#filter11_f_1683_1291)">
<ellipse cx="6.4974" cy="3.55401" rx="0.565758" ry="0.527228" fill="#E3F4F4"/>
</g>
<g filter="url(#filter12_f_1683_1291)">
<ellipse cx="7.06381" cy="10.4891" rx="0.565758" ry="0.527228" fill="#E3F4F4"/>
</g>
<g filter="url(#filter13_f_1683_1291)">
<ellipse cx="12.0677" cy="4.32455" rx="0.565758" ry="0.527228" fill="#E3F4F4"/>
</g>
<g filter="url(#filter14_f_1683_1291)">
<ellipse cx="4.25551" cy="3.55399" rx="0.435199" ry="0.40556" fill="#E3F4F4"/>
</g>
<g filter="url(#filter15_f_1683_1291)">
<ellipse cx="13.3082" cy="7.1432" rx="0.435199" ry="0.40556" fill="#E3F4F4"/>
</g>
<g filter="url(#filter16_f_1683_1291)">
<ellipse cx="7.84731" cy="12.1722" rx="0.435199" ry="0.40556" fill="#E3F4F4"/>
</g>
<g filter="url(#filter17_f_1683_1291)">
<ellipse cx="0.759773" cy="0.427592" rx="0.759773" ry="0.427592" transform="matrix(0.806022 0.591886 -0.645688 0.763601 9.89844 4.66931)" fill="#F8FCFC"/>
</g>
<g filter="url(#filter18_f_1683_1291)">
<ellipse cx="0.352556" cy="0.198415" rx="0.352556" ry="0.198415" transform="matrix(0.806022 0.591886 -0.645688 0.763601 4.07227 5.51872)" fill="#F8FCFC"/>
</g>
<g filter="url(#filter19_f_1683_1291)">
<ellipse cx="0.301114" cy="0.126032" rx="0.301114" ry="0.126032" transform="matrix(0.806022 0.591886 -0.645688 0.763601 14.084 8.20066)" fill="#F8FCFC"/>
</g>
<g filter="url(#filter20_f_1683_1291)">
<ellipse cx="0.245709" cy="0.102842" rx="0.245709" ry="0.102842" transform="matrix(0.806022 0.591886 -0.645688 0.763601 5.39453 9.43653)" fill="#F8FCFC"/>
</g>
<g filter="url(#filter21_f_1683_1291)">
<ellipse cx="0.301316" cy="0.153061" rx="0.301316" ry="0.153061" transform="matrix(0.637915 0.770107 -0.81178 0.583963 11.125 5.86858)" fill="#F8FCFC"/>
</g>
<g filter="url(#filter22_f_1683_1291)">
<ellipse cx="0.139819" cy="0.0710245" rx="0.139819" ry="0.0710245" transform="matrix(0.637915 0.770107 -0.81178 0.583963 4.64258 6.07523)" fill="#F8FCFC"/>
</g>
<g filter="url(#filter23_f_1683_1291)">
<path d="M39.8125 36.7649H39.802C39.2026 36.7649 37.5982 36.1365 37.5469 34.16C37.5469 32.7425 37.732 31.3804 39.0015 28.8554C39.3433 28.1757 40.2851 28.1616 40.6248 28.8423C41.6986 30.9943 42.1475 32.9587 42.0574 34.16C41.927 35.8989 40.8212 36.6596 39.8125 36.7649Z" fill="#F5F5F5"/>
<path d="M39.8027 36.8045L39.8133 36.8045C40.4127 36.8045 42.017 37.4329 42.0684 39.4095C42.0684 40.827 41.8833 42.1891 40.6137 44.714C40.272 45.3937 39.3301 45.4079 38.9905 44.7271C37.9166 42.5751 37.4677 40.6108 37.5578 39.4095C37.6882 37.6706 38.7941 36.9099 39.8027 36.8045Z" fill="#F5F5F5"/>
<path d="M39.7701 36.7707L39.7648 36.7799C39.4651 37.299 38.1188 38.3742 36.3813 37.4304C35.1537 36.7216 34.0666 35.8803 32.5147 33.5183C32.097 32.8825 32.5557 32.0598 33.315 32.106C35.7156 32.2521 37.6413 32.8454 38.6366 33.5241C40.0773 34.5065 40.1832 35.8446 39.7701 36.7707Z" fill="#F5F5F5"/>
<path d="M39.8002 36.7988L39.8055 36.7896C40.1052 36.2705 41.4516 35.1953 43.189 36.1391C44.4166 36.8479 45.5037 37.6892 47.0556 40.0511C47.4733 40.6869 47.0146 41.5097 46.2553 41.4635C43.8547 41.3174 41.929 40.724 40.9337 40.0454C39.493 39.063 39.3871 37.7249 39.8002 36.7988Z" fill="#F5F5F5"/>
<path d="M39.7642 36.7906L39.7695 36.7997C40.0692 37.3188 40.3272 39.0224 38.6411 40.0552C37.4135 40.7639 36.1413 41.2847 33.3199 41.4477C32.5604 41.4916 32.0772 40.683 32.4969 40.0484C33.8237 38.0425 35.3004 36.6715 36.3858 36.1489C37.9569 35.3924 39.1687 35.9697 39.7642 36.7906Z" fill="#F5F5F5"/>
<path d="M39.8042 36.779L39.7989 36.7698C39.4992 36.2507 39.2412 34.5471 40.9273 33.5144C42.1549 32.8056 43.427 32.2849 46.2485 32.1218C47.008 32.078 47.4912 32.8866 47.0715 33.5211C45.7447 35.527 44.2679 36.898 43.1826 37.4206C41.6114 38.1771 40.3997 37.5998 39.8042 36.779Z" fill="#F5F5F5"/>
<path d="M39.8126 36.7823L39.8049 36.7779C39.3721 36.528 38.4756 35.4054 39.2625 33.9567C39.8295 32.9746 40.4983 32.1004 42.2909 30.8883C42.9211 30.4622 43.7428 30.9221 43.6824 31.6805C43.5335 33.5514 43.0588 35.0464 42.5196 35.8372C41.7005 37.0385 40.5848 37.1268 39.8126 36.7823Z" fill="#FAFAFA"/>
<path d="M39.789 36.8071L39.7966 36.8115C40.2295 37.0614 41.126 38.184 40.339 39.6327C39.772 40.6147 39.1033 41.4889 37.3107 42.701C36.6805 43.1272 35.8588 42.6673 35.9192 41.9089C36.0681 40.038 36.5427 38.5429 37.0819 37.7522C37.9011 36.5509 39.0168 36.4626 39.789 36.8071Z" fill="#FAFAFA"/>
<path d="M39.7779 36.7684L39.7703 36.7729C39.3374 37.0228 37.917 37.2379 37.0558 35.832C36.4888 34.8499 36.0661 33.8337 35.9127 31.6752C35.8588 30.9163 36.6679 30.4347 37.2945 30.8661C38.8403 31.9306 39.8977 33.0891 40.3129 33.9515C40.9437 35.2615 40.4623 36.2719 39.7779 36.7684Z" fill="#FAFAFA"/>
<path d="M39.7885 36.801L39.7961 36.7966C40.229 36.5467 41.6494 36.3316 42.5106 37.7375C43.0776 38.7195 43.5003 39.7358 43.6537 41.8943C43.7076 42.6531 42.8985 43.1348 42.2719 42.7033C40.7261 41.6389 39.6687 40.4803 39.2535 39.618C38.6227 38.3079 39.1041 37.2976 39.7885 36.801Z" fill="#FAFAFA"/>
<path d="M39.7681 36.7808V36.7896C39.7681 37.2894 39.2442 38.6271 37.596 38.6699C36.4621 38.6699 35.3706 38.5278 33.4246 37.5815C32.7404 37.2487 32.7279 36.3072 33.4148 35.9803C35.1095 35.1738 36.6416 34.8373 37.596 34.9089C39.046 35.0177 39.6803 35.9397 39.7681 36.7808Z" fill="#FAFAFA"/>
<path d="M39.8003 36.7887V36.7799C39.8003 36.2801 40.3242 34.9423 41.9723 34.8995C43.1063 34.8995 44.1978 35.0416 46.1438 35.988C46.8279 36.3207 46.8405 37.2622 46.1535 37.5891C44.4588 38.3956 42.9267 38.7321 41.9723 38.6605C40.5224 38.5518 39.8881 37.6297 39.8003 36.7887Z" fill="#FAFAFA"/>
<path d="M39.8034 36.7937L39.8004 36.7883C39.6252 36.485 39.4745 35.4896 40.4597 34.8862C41.0665 34.5358 41.6919 34.2641 42.8682 34.1311C43.6241 34.0455 44.1044 34.8591 43.6421 35.4633C42.9834 36.324 42.3022 36.916 41.7774 37.1686C40.8594 37.6106 40.1514 37.2733 39.8034 36.7937Z" fill="white"/>
<path d="M39.7825 36.8005L39.7856 36.8058C39.9607 37.1091 40.1115 38.1045 39.1263 38.708C38.5195 39.0583 37.8941 39.33 36.7177 39.4631C35.9618 39.5486 35.4816 38.735 35.9439 38.1309C36.6025 37.2702 37.2838 36.6782 37.8085 36.4255C38.7265 35.9835 39.4345 36.3209 39.7825 36.8005Z" fill="white"/>
<path d="M39.7887 36.7734L39.7825 36.7734C39.4323 36.7734 38.4948 36.4063 38.4648 35.2513C38.4648 34.5507 38.5422 33.8732 39.0152 32.7879C39.3191 32.0905 40.2638 32.0814 40.5558 32.7839C40.9719 33.7846 41.1439 34.6706 41.1004 35.2513C41.0242 36.2674 40.378 36.7119 39.7887 36.7734Z" fill="white"/>
<path d="M39.7836 36.7965L39.7898 36.7965C40.14 36.7965 41.0774 37.1637 41.1074 38.3186C41.1074 39.0193 41.03 39.6968 40.5571 40.782C40.2532 41.4794 39.3085 41.4885 39.0164 40.7861C38.6004 39.7853 38.4283 38.8994 38.4719 38.3186C38.5481 37.3026 39.1942 36.8581 39.7836 36.7965Z" fill="white"/>
<path d="M39.7782 36.7768L39.7751 36.7821C39.6 37.0855 38.8133 37.7137 37.7981 37.1622C37.1913 36.8119 36.6433 36.4061 35.9399 35.454C35.4879 34.8421 35.9524 34.0193 36.7067 34.1177C37.7815 34.2577 38.6347 34.5517 39.1159 34.8798C39.9577 35.4538 40.0196 36.2356 39.7782 36.7768Z" fill="white"/>
<path d="M39.796 36.7932L39.7991 36.7878C39.9742 36.4845 40.7609 35.8563 41.7761 36.4077C42.3829 36.7581 42.9309 37.1638 43.6343 38.116C44.0863 38.7279 43.6219 39.5506 42.8675 39.4523C41.7928 39.3122 40.9395 39.0183 40.4583 38.6902C39.6165 38.1162 39.5546 37.3343 39.796 36.7932Z" fill="white"/>
<path d="M39.7971 36.8004V36.7947C39.7971 36.4703 40.1372 35.602 41.2069 35.5742C41.8308 35.5742 42.435 35.6405 43.374 36.0349C44.0754 36.3295 44.0833 37.2759 43.3768 37.5581C42.4974 37.9093 41.7223 38.0541 41.2069 38.0154C40.2658 37.9448 39.8541 37.3463 39.7971 36.8004Z" fill="white"/>
<path d="M39.7752 36.7954V36.8011C39.7752 37.1255 39.4351 37.9938 38.3654 38.0215C37.7414 38.0215 37.1373 37.9553 36.1983 37.5609C35.4969 37.2663 35.4889 36.3199 36.1954 36.0377C37.0749 35.6864 37.8499 35.5417 38.3654 35.5804C39.3065 35.651 39.7182 36.2495 39.7752 36.7954Z" fill="white"/>
<path d="M39.7935 36.7767L39.7885 36.7739C39.5076 36.6117 38.9257 35.883 39.4365 34.9427C39.7484 34.4024 40.1079 33.9123 40.9189 33.2963C41.5248 32.8362 42.3484 33.3025 42.2395 34.0554C42.104 34.9927 41.8418 35.7362 41.5506 36.1633C41.0189 36.943 40.2947 37.0003 39.7935 36.7767Z" fill="white"/>
<path d="M39.7788 36.7931L39.7838 36.7959C40.0647 36.9581 40.6466 37.6868 40.1358 38.6271C39.8238 39.1674 39.4644 39.6575 38.6533 40.2735C38.0475 40.7336 37.2239 40.2673 37.3328 39.5144C37.4683 38.5771 37.7305 37.8336 38.0217 37.4065C38.5534 36.6268 39.2776 36.5695 39.7788 36.7931Z" fill="white"/>
<path d="M39.7815 36.7742L39.7766 36.7771C39.4956 36.9393 38.5737 37.0789 38.0147 36.1664C37.7027 35.626 37.4581 35.0697 37.3301 34.0593C37.2346 33.3046 38.0502 32.8245 38.6478 33.2953C39.3917 33.8813 39.9046 34.4801 40.1288 34.9458C40.5382 35.7961 40.2258 36.4519 39.7815 36.7742Z" fill="white"/>
<path d="M39.7888 36.7956L39.7937 36.7927C40.0747 36.6305 40.9967 36.4909 41.5556 37.4034C41.8676 37.9438 42.1122 38.5001 42.2402 39.5105C42.3358 40.2652 41.5201 40.7453 40.9225 40.2745C40.1786 39.6886 39.6657 39.0897 39.4415 38.624C39.0321 37.7737 39.3445 37.1179 39.7888 36.7956Z" fill="white"/>
<circle cx="39.6755" cy="36.8326" r="1.5349" fill="url(#paint1_radial_1683_1291)" fill-opacity="0.4"/>
</g>
</g>
<defs>
<filter id="filter0_f_1683_1291" x="45.0449" y="24.1041" width="41.9434" height="39.5582" filterUnits="userSpaceOnUse" color-interpolation-filters="sRGB">
<feFlood flood-opacity="0" result="BackgroundImageFix"/>
<feBlend mode="normal" in="SourceGraphic" in2="BackgroundImageFix" result="shape"/>
<feGaussianBlur stdDeviation="0.5" result="effect1_foregroundBlur_1683_1291"/>
</filter>
<filter id="filter1_f_1683_1291" x="16.6934" y="33.4852" width="21.0352" height="21.0342" filterUnits="userSpaceOnUse" color-interpolation-filters="sRGB">
<feFlood flood-opacity="0" result="BackgroundImageFix"/>
<feBlend mode="normal" in="SourceGraphic" in2="BackgroundImageFix" result="shape"/>
<feGaussianBlur stdDeviation="0.5" result="effect1_foregroundBlur_1683_1291"/>
</filter>
<filter id="filter2_f_1683_1291" x="31.0352" y="13.588" width="17.627" height="18.4295" filterUnits="userSpaceOnUse" color-interpolation-filters="sRGB">
<feFlood flood-opacity="0" result="BackgroundImageFix"/>
<feBlend mode="normal" in="SourceGraphic" in2="BackgroundImageFix" result="shape"/>
<feGaussianBlur stdDeviation="0.5" result="effect1_foregroundBlur_1683_1291"/>
</filter>
<filter id="filter3_f_1683_1291" x="-26.8145" y="4.85545" width="45.623" height="40.7543" filterUnits="userSpaceOnUse" color-interpolation-filters="sRGB">
<feFlood flood-opacity="0" result="BackgroundImageFix"/>
<feBlend mode="normal" in="SourceGraphic" in2="BackgroundImageFix" result="shape"/>
<feGaussianBlur stdDeviation="0.5" result="effect1_foregroundBlur_1683_1291"/>
</filter>
<filter id="filter4_f_1683_1291" x="17.2422" y="-14.3872" width="28.168" height="27.2692" filterUnits="userSpaceOnUse" color-interpolation-filters="sRGB">
<feFlood flood-opacity="0" result="BackgroundImageFix"/>
<feBlend mode="normal" in="SourceGraphic" in2="BackgroundImageFix" result="shape"/>
<feGaussianBlur stdDeviation="0.5" result="effect1_foregroundBlur_1683_1291"/>
</filter>
<filter id="filter5_f_1683_1291" x="4.93164" y="3.32457" width="8.04883" height="7.63728" filterUnits="userSpaceOnUse" color-interpolation-filters="sRGB">
<feFlood flood-opacity="0" result="BackgroundImageFix"/>
<feBlend mode="normal" in="SourceGraphic" in2="BackgroundImageFix" result="shape"/>
<feGaussianBlur stdDeviation="0.5" result="effect1_foregroundBlur_1683_1291"/>
</filter>
<filter id="filter6_f_1683_1291" x="11.873" y="-0.386314" width="5.98242" height="5.71087" filterUnits="userSpaceOnUse" color-interpolation-filters="sRGB">
<feFlood flood-opacity="0" result="BackgroundImageFix"/>
<feBlend mode="normal" in="SourceGraphic" in2="BackgroundImageFix" result="shape"/>
<feGaussianBlur stdDeviation="0.5" result="effect1_foregroundBlur_1683_1291"/>
</filter>
<filter id="filter7_f_1683_1291" x="1.23242" y="4.35871" width="4.80664" height="4.61586" filterUnits="userSpaceOnUse" color-interpolation-filters="sRGB">
<feFlood flood-opacity="0" result="BackgroundImageFix"/>
<feBlend mode="normal" in="SourceGraphic" in2="BackgroundImageFix" result="shape"/>
<feGaussianBlur stdDeviation="0.5" result="effect1_foregroundBlur_1683_1291"/>
</filter>
<filter id="filter8_f_1683_1291" x="6.8457" y="-0.142965" width="5.41602" height="5.18365" filterUnits="userSpaceOnUse" color-interpolation-filters="sRGB">
<feFlood flood-opacity="0" result="BackgroundImageFix"/>
<feBlend mode="normal" in="SourceGraphic" in2="BackgroundImageFix" result="shape"/>
<feGaussianBlur stdDeviation="0.5" result="effect1_foregroundBlur_1683_1291"/>
</filter>
<filter id="filter9_f_1683_1291" x="11.1543" y="6.9746" width="4.7207" height="4.53475" filterUnits="userSpaceOnUse" color-interpolation-filters="sRGB">
<feFlood flood-opacity="0" result="BackgroundImageFix"/>
<feBlend mode="normal" in="SourceGraphic" in2="BackgroundImageFix" result="shape"/>
<feGaussianBlur stdDeviation="0.5" result="effect1_foregroundBlur_1683_1291"/>
</filter>
<filter id="filter10_f_1683_1291" x="2.82031" y="8.25213" width="4.21875" height="4.06836" filterUnits="userSpaceOnUse" color-interpolation-filters="sRGB">
<feFlood flood-opacity="0" result="BackgroundImageFix"/>
<feBlend mode="normal" in="SourceGraphic" in2="BackgroundImageFix" result="shape"/>
<feGaussianBlur stdDeviation="0.5" result="effect1_foregroundBlur_1683_1291"/>
</filter>
<filter id="filter11_f_1683_1291" x="4.93164" y="2.02678" width="3.13086" height="3.05446" filterUnits="userSpaceOnUse" color-interpolation-filters="sRGB">
<feFlood flood-opacity="0" result="BackgroundImageFix"/>
<feBlend mode="normal" in="SourceGraphic" in2="BackgroundImageFix" result="shape"/>
<feGaussianBlur stdDeviation="0.5" result="effect1_foregroundBlur_1683_1291"/>
</filter>
<filter id="filter12_f_1683_1291" x="5.49805" y="8.96187" width="3.13086" height="3.05446" filterUnits="userSpaceOnUse" color-interpolation-filters="sRGB">
<feFlood flood-opacity="0" result="BackgroundImageFix"/>
<feBlend mode="normal" in="SourceGraphic" in2="BackgroundImageFix" result="shape"/>
<feGaussianBlur stdDeviation="0.5" result="effect1_foregroundBlur_1683_1291"/>
</filter>
<filter id="filter13_f_1683_1291" x="10.502" y="2.79733" width="3.13086" height="3.05446" filterUnits="userSpaceOnUse" color-interpolation-filters="sRGB">
<feFlood flood-opacity="0" result="BackgroundImageFix"/>
<feBlend mode="normal" in="SourceGraphic" in2="BackgroundImageFix" result="shape"/>
<feGaussianBlur stdDeviation="0.5" result="effect1_foregroundBlur_1683_1291"/>
</filter>
<filter id="filter14_f_1683_1291" x="2.82031" y="2.14843" width="2.87109" height="2.81112" filterUnits="userSpaceOnUse" color-interpolation-filters="sRGB">
<feFlood flood-opacity="0" result="BackgroundImageFix"/>
<feBlend mode="normal" in="SourceGraphic" in2="BackgroundImageFix" result="shape"/>
<feGaussianBlur stdDeviation="0.5" result="effect1_foregroundBlur_1683_1291"/>
</filter>
<filter id="filter15_f_1683_1291" x="11.873" y="5.73764" width="2.87109" height="2.81112" filterUnits="userSpaceOnUse" color-interpolation-filters="sRGB">
<feFlood flood-opacity="0" result="BackgroundImageFix"/>
<feBlend mode="normal" in="SourceGraphic" in2="BackgroundImageFix" result="shape"/>
<feGaussianBlur stdDeviation="0.5" result="effect1_foregroundBlur_1683_1291"/>
</filter>
<filter id="filter16_f_1683_1291" x="6.41211" y="10.7666" width="2.87109" height="2.81112" filterUnits="userSpaceOnUse" color-interpolation-filters="sRGB">
<feFlood flood-opacity="0" result="BackgroundImageFix"/>
<feBlend mode="normal" in="SourceGraphic" in2="BackgroundImageFix" result="shape"/>
<feGaussianBlur stdDeviation="0.5" result="effect1_foregroundBlur_1683_1291"/>
</filter>
<filter id="filter17_f_1683_1291" x="8.5625" y="3.88974" width="3.34375" height="3.11154" filterUnits="userSpaceOnUse" color-interpolation-filters="sRGB">
<feFlood flood-opacity="0" result="BackgroundImageFix"/>
<feBlend mode="normal" in="SourceGraphic" in2="BackgroundImageFix" result="shape"/>
<feGaussianBlur stdDeviation="0.5" result="effect1_foregroundBlur_1683_1291"/>
</filter>
<filter id="filter18_f_1683_1291" x="2.91602" y="4.62101" width="2.625" height="2.51579" filterUnits="userSpaceOnUse" color-interpolation-filters="sRGB">
<feFlood flood-opacity="0" result="BackgroundImageFix"/>
<feBlend mode="normal" in="SourceGraphic" in2="BackgroundImageFix" result="shape"/>
<feGaussianBlur stdDeviation="0.5" result="effect1_foregroundBlur_1683_1291"/>
</filter>
<filter id="filter19_f_1683_1291" x="12.9902" y="7.27253" width="2.51172" height="2.40518" filterUnits="userSpaceOnUse" color-interpolation-filters="sRGB">
<feFlood flood-opacity="0" result="BackgroundImageFix"/>
<feBlend mode="normal" in="SourceGraphic" in2="BackgroundImageFix" result="shape"/>
<feGaussianBlur stdDeviation="0.5" result="effect1_foregroundBlur_1683_1291"/>
</filter>
<filter id="filter20_f_1683_1291" x="4.31641" y="8.49518" width="2.41797" height="2.33062" filterUnits="userSpaceOnUse" color-interpolation-filters="sRGB">
<feFlood flood-opacity="0" result="BackgroundImageFix"/>
<feBlend mode="normal" in="SourceGraphic" in2="BackgroundImageFix" result="shape"/>
<feGaussianBlur stdDeviation="0.5" result="effect1_foregroundBlur_1683_1291"/>
</filter>
<filter id="filter21_f_1683_1291" x="9.96484" y="4.94128" width="2.45703" height="2.49746" filterUnits="userSpaceOnUse" color-interpolation-filters="sRGB">
<feFlood flood-opacity="0" result="BackgroundImageFix"/>
<feBlend mode="normal" in="SourceGraphic" in2="BackgroundImageFix" result="shape"/>
<feGaussianBlur stdDeviation="0.5" result="effect1_foregroundBlur_1683_1291"/>
</filter>
<filter id="filter22_f_1683_1291" x="3.56836" y="5.10896" width="2.21289" height="2.23084" filterUnits="userSpaceOnUse" color-interpolation-filters="sRGB">
<feFlood flood-opacity="0" result="BackgroundImageFix"/>
<feBlend mode="normal" in="SourceGraphic" in2="BackgroundImageFix" result="shape"/>
<feGaussianBlur stdDeviation="0.5" result="effect1_foregroundBlur_1683_1291"/>
</filter>
<filter id="filter23_f_1683_1291" x="31.3418" y="27.3386" width="16.8848" height="18.8921" filterUnits="userSpaceOnUse" color-interpolation-filters="sRGB">
<feFlood flood-opacity="0" result="BackgroundImageFix"/>
<feBlend mode="normal" in="SourceGraphic" in2="BackgroundImageFix" result="shape"/>
<feGaussianBlur stdDeviation="0.5" result="effect1_foregroundBlur_1683_1291"/>
</filter>
<linearGradient id="paint0_linear_1683_1291" x1="26" y1="-14" x2="26" y2="66" gradientUnits="userSpaceOnUse">
<stop stop-color="#8EB7DE"/>
<stop offset="0.2" stop-color="#5A9DBE"/>
<stop offset="0.4" stop-color="#8EB7DE"/>
<stop offset="0.6" stop-color="#5A9DBE"/>
<stop offset="0.8" stop-color="#8EB7DE"/>
<stop offset="1" stop-color="#5A9DBE"/>
</linearGradient>
<radialGradient id="paint1_radial_1683_1291" cx="0" cy="0" r="1" gradientUnits="userSpaceOnUse" gradientTransform="translate(39.6755 36.8326) rotate(90) scale(1.5349)">
<stop stop-color="#FE6A00"/>
<stop offset="1" stop-color="#F7DD26"/>
</radialGradient>
</defs>
</svg>
