<svg width="21" height="24" viewBox="0 0 21 24" fill="none" xmlns="http://www.w3.org/2000/svg">
<path d="M12.2181 0C5.46669 0 0 5.37321 0 12C0 18.6268 5.46669 24 12.2181 24C15.5309 24 18.5321 22.7036 20.7352 20.6036C21.0085 20.3411 21.0796 19.9339 20.9046 19.6018C20.7297 19.2696 20.3525 19.0821 19.9753 19.1464C19.4396 19.2375 18.8929 19.2857 18.3298 19.2857C13.0326 19.2857 8.73578 15.0643 8.73578 9.85714C8.73578 6.33214 10.7038 3.2625 13.6175 1.64464C13.951 1.45714 14.1205 1.08214 14.0385 0.717857C13.9565 0.353572 13.6394 0.0803572 13.2567 0.0482144C12.9123 0.0214287 12.5679 0.00535706 12.2181 0.00535706V0Z" fill="#E5F2FA"/>
</svg>
