<svg width="1968" height="1104" viewBox="0 0 1968 1104" fill="none" xmlns="http://www.w3.org/2000/svg">
<g filter="url(#filter0_f_578_325)">
<mask id="mask0_578_325" style="mask-type:alpha" maskUnits="userSpaceOnUse" x="24" y="0" width="1920" height="1080">
<rect x="24" width="1920" height="1080" fill="#D9D9D9"/>
</mask>
<g mask="url(#mask0_578_325)">
<path d="M1675.59 936.041C1675.15 933.231 1677.02 930.746 1679.71 930.768C1708.66 931.004 1737.42 948.105 1752.66 977.288C1774.01 1018.18 1760.72 1067.3 1722.98 1087C1685.24 1106.71 1637.34 1089.54 1615.99 1048.65C1600.75 1019.47 1603.16 986.091 1619.5 962.208C1621.02 959.986 1624.13 959.873 1626.19 961.835L1678.98 1012.18C1682.34 1015.39 1687.44 1012.73 1686.73 1008.13L1675.59 936.041Z" fill="#6DA73B"/>
<path d="M60.7817 478.245C63.0217 476.494 66.1032 476.911 67.3986 479.271C81.3246 504.642 80.4457 538.094 62.4195 565.641C37.1625 604.239 -12.1924 616.631 -47.8178 593.319C-83.4432 570.007 -91.8485 519.82 -66.5916 481.222C-48.5654 453.674 -18.2641 439.475 10.5601 442.078C13.2413 442.321 14.8576 444.977 14.1499 447.731L-4.00539 518.379C-5.16324 522.884 -0.352378 526.032 3.31266 523.167L60.7817 478.245Z" fill="#6DA73B"/>
<path d="M1836.81 1023.68C1836.6 1021.84 1838.02 1020.14 1839.93 1020.05C1860.47 1019.15 1880.26 1029.37 1890.01 1048.04C1903.67 1074.2 1892.44 1107.05 1864.93 1121.41C1837.42 1135.78 1804.04 1126.22 1790.38 1100.06C1780.63 1081.39 1783.56 1059.31 1796.04 1042.97C1797.2 1041.45 1799.41 1041.26 1800.8 1042.48L1836.43 1073.72C1838.7 1075.71 1842.42 1073.77 1842.08 1070.77L1836.81 1023.68Z" fill="#6DA73B"/>
<path d="M63.0278 661.734C64.5292 660.658 66.7103 661.063 67.7164 662.689C78.5326 680.168 79.2825 702.428 67.7497 720.053C51.5908 744.747 17.4384 750.989 -8.53173 733.995C-34.5019 717.001 -42.4555 683.207 -26.2966 658.513C-14.7639 640.888 5.93456 632.663 26.2823 635.576C28.1751 635.847 29.4187 637.683 29.0343 639.49L19.1722 685.836C18.5432 688.792 22.0503 691.087 24.5069 689.327L63.0278 661.734Z" fill="#6DA73B"/>
<path d="M1975.93 850.211C1980.01 849.18 1983.79 851.47 1983.95 855.298C1985.71 896.456 1962.74 939.848 1921.09 965.803C1862.74 1002.17 1789.81 990.529 1758.2 939.808C1726.59 889.086 1748.27 818.488 1806.63 782.123C1848.27 756.169 1897.35 754.667 1933.52 774.374C1936.89 776.207 1937.28 780.607 1934.55 783.819L1864.63 866.248C1860.17 871.505 1864.44 878.355 1871.13 876.668L1975.93 850.211Z" fill="#6DA73B"/>
<path d="M282.34 698.434C285.235 701.495 285.081 705.909 281.82 707.921C246.759 729.55 197.678 730.697 154.691 707.026C94.4622 673.86 69.007 604.533 97.8356 552.181C126.664 499.829 198.86 484.275 259.089 517.441C302.075 541.112 327.348 583.203 327.814 624.395C327.858 628.227 324.21 630.717 320.075 629.907L213.999 609.141C207.235 607.816 203.342 614.886 208.078 619.895L282.34 698.434Z" fill="#6DA73B"/>
<path d="M1526.94 942.858C1527.6 940.262 1530.15 938.784 1532.5 939.78C1557.79 950.486 1576.7 975.761 1579.3 1006.61C1582.95 1049.84 1553.2 1087.64 1512.85 1091.04C1472.51 1094.45 1436.84 1062.17 1433.2 1018.94C1430.59 988.091 1445 960.004 1468.13 945.212C1470.29 943.836 1473.05 944.865 1474.13 947.315L1501.85 1010.15C1503.62 1014.16 1509.07 1013.7 1510.14 1009.45L1526.94 942.858Z" fill="#537E25"/>
<path d="M1897.12 597.18C1898.48 595.251 1901.33 594.814 1903.29 596.344C1924.32 612.784 1935.16 639.234 1928.91 665.307C1920.14 701.839 1881.13 723.799 1841.77 714.355C1802.4 704.912 1777.6 667.641 1786.36 631.109C1792.62 605.036 1814.28 586.385 1840.48 581.277C1842.92 580.802 1845.26 582.484 1845.6 584.819L1854.2 644.722C1854.74 648.542 1860.06 649.817 1862.28 646.662L1897.12 597.18Z" fill="#537E25"/>
<path d="M464.672 506.105C467.018 506.348 468.791 508.622 468.412 511.076C464.335 537.459 446.549 559.838 420.741 567.111C384.58 577.301 346.366 553.977 335.386 515.014C324.406 476.052 344.818 436.206 380.979 426.016C406.787 418.743 433.641 428.542 450.894 448.913C452.499 450.808 452.174 453.673 450.3 455.106L402.223 491.86C399.157 494.204 400.639 499.465 404.478 499.863L464.672 506.105Z" fill="#537E25"/>
<path d="M1678.36 850.684C1680.08 849.731 1682.26 850.398 1683.03 852.208C1691.3 871.667 1688.44 894.983 1673.69 912.081C1653.03 936.036 1616.87 938.711 1592.92 918.055C1568.97 897.399 1566.3 861.234 1586.96 837.278C1601.71 820.181 1624.35 813.924 1644.82 819.252C1646.72 819.748 1647.7 821.805 1647.01 823.647L1629.29 870.908C1628.16 873.922 1631.4 876.711 1634.21 875.151L1678.36 850.684Z" fill="#76B454"/>
<path d="M136.623 438.983C138.295 440.019 138.777 442.245 137.573 443.801C124.633 460.525 102.887 469.412 80.7661 464.892C49.7719 458.559 29.7786 428.306 36.1098 397.319C42.441 366.333 72.6993 346.347 103.694 352.679C125.815 357.199 142.332 373.904 147.674 394.363C148.171 396.267 146.855 398.126 144.91 398.423L95.015 406.039C91.833 406.525 90.978 410.709 93.7145 412.404L136.623 438.983Z" fill="#76B454"/>
<path d="M1716.06 793.119C1716.48 794.796 1715.52 796.368 1713.92 796.461C1696.79 797.465 1678.77 788.296 1668.04 771.31C1653.01 747.51 1658 717.378 1679.17 704.006C1700.35 690.635 1729.7 699.089 1744.73 722.888C1755.45 739.874 1755.98 760.086 1747.71 775.128C1746.94 776.527 1745.11 776.718 1743.78 775.617L1709.59 747.365C1707.41 745.563 1704.55 747.369 1705.24 750.112L1716.06 793.119Z" fill="#76B454"/>
<path d="M205.267 443.773C204.01 444.959 202.169 444.889 201.309 443.543C192.065 429.078 191.267 408.875 200.853 391.22C214.284 366.485 243.013 356.12 265.022 368.071C287.031 380.021 293.985 409.761 280.554 434.497C270.969 452.151 253.59 462.484 236.423 462.61C234.826 462.621 233.765 461.116 234.075 459.415L242.039 415.79C242.547 413.008 239.575 411.394 237.518 413.335L205.267 443.773Z" fill="#76B454"/>
<path d="M1526.2 691.902C1529.12 689.214 1534.33 689.527 1537.44 692.758C1570.87 727.491 1583.5 775.033 1565.63 815.756C1540.6 872.813 1465.17 894.876 1397.15 865.034C1329.14 835.192 1294.29 764.746 1319.33 707.689C1337.2 666.966 1380.73 644.069 1428.93 645.146C1433.41 645.246 1437.17 648.869 1437.17 652.84L1437.22 754.727C1437.22 761.225 1446.41 765.255 1451.19 760.857L1526.2 691.902Z" fill="#649238"/>
<path d="M200.888 228.663C204.661 229.902 206.932 234.602 205.631 238.893C191.642 285.023 156.322 319.263 112.06 323.556C50.0431 329.57 -6.0438 274.517 -13.2137 200.59C-20.3835 126.663 24.0788 61.8569 86.0956 55.8421C130.358 51.5494 171.599 78.3641 194.192 120.946C196.294 124.907 194.967 129.956 191.503 131.897L102.613 181.692C96.9442 184.867 97.9124 194.85 104.086 196.878L200.888 228.663Z" fill="#649238"/>
<path d="M1649.13 534.741C1648.8 532.172 1650.77 529.718 1653.47 529.521C1682.53 527.41 1710.8 540.945 1725.04 566.768C1744.99 602.948 1729.86 649.548 1691.23 670.852C1652.6 692.156 1605.11 680.097 1585.16 643.916C1570.91 618.094 1574.55 586.964 1591.84 563.511C1593.45 561.329 1596.57 560.974 1598.57 562.627L1649.76 605.038C1653.02 607.743 1658.24 604.866 1657.69 600.662L1649.13 534.741Z" fill="#649238"/>
<path d="M398.066 259.202C400.145 257.656 403.248 258.175 404.74 260.438C420.773 284.768 422.765 316.047 407.184 341.084C385.354 376.165 337.295 385.709 299.842 362.402C262.388 339.096 249.723 291.763 271.552 256.683C287.133 231.646 316.074 219.616 344.984 223.253C347.673 223.592 349.51 226.146 349.041 228.694L337.025 294.073C336.259 298.243 341.317 301.39 344.719 298.861L398.066 259.202Z" fill="#649238"/>
<ellipse cx="127.495" cy="852.573" rx="18.216" ry="20.9678" fill="#E3F4F4"/>
<ellipse cx="163.075" cy="817.803" rx="11.9911" ry="13.8025" fill="#E3F4F4"/>
<ellipse cx="95.4528" cy="849.028" rx="8.45275" ry="9.72966" fill="#E3F4F4"/>
<ellipse cx="131.098" cy="817.652" rx="10.2875" ry="11.8415" fill="#E3F4F4"/>
<ellipse cx="154.95" cy="868.186" rx="8.19065" ry="9.42797" fill="#E3F4F4"/>
<ellipse cx="103.25" cy="875.954" rx="6.68357" ry="7.69322" fill="#E3F4F4"/>
<ellipse cx="112.686" cy="825.873" rx="3.40731" ry="3.92204" fill="#E3F4F4"/>
<ellipse cx="116.093" cy="877.463" rx="3.40731" ry="3.92204" fill="#E3F4F4"/>
<ellipse cx="146.235" cy="831.605" rx="3.40731" ry="3.92204" fill="#E3F4F4"/>
<ellipse cx="99.1878" cy="825.872" rx="2.62101" ry="3.01695" fill="#E3F4F4"/>
<ellipse cx="153.705" cy="852.573" rx="2.62101" ry="3.01695" fill="#E3F4F4"/>
<ellipse cx="120.811" cy="889.983" rx="2.62101" ry="3.01695" fill="#E3F4F4"/>
<ellipse cx="4.97932" cy="2.94353" rx="4.97932" ry="2.94353" transform="matrix(0.740698 0.671838 -0.564892 0.825165 133.179 834.17)" fill="#F8FCFC"/>
<ellipse cx="3.27775" cy="1.93765" rx="3.27775" ry="1.93765" transform="matrix(0.740698 0.671838 -0.564892 0.825165 166.817 805.688)" fill="#F8FCFC"/>
<ellipse cx="2.31055" cy="1.36588" rx="2.31055" ry="1.36588" transform="matrix(0.740698 0.671838 -0.564892 0.825165 98.0906 840.488)" fill="#F8FCFC"/>
<ellipse cx="2.47861" cy="1.0897" rx="2.47861" ry="1.0897" transform="matrix(0.740698 0.671838 -0.564892 0.825165 135.407 807.922)" fill="#F8FCFC"/>
<ellipse cx="1.97341" cy="0.867598" rx="1.97341" ry="0.867598" transform="matrix(0.740698 0.671838 -0.564892 0.825165 158.38 860.439)" fill="#F8FCFC"/>
<ellipse cx="1.61031" cy="0.70796" rx="1.61031" ry="0.70796" transform="matrix(0.740698 0.671838 -0.564892 0.825165 106.049 869.633)" fill="#F8FCFC"/>
<ellipse cx="2.07841" cy="1.00104" rx="2.07841" ry="1.00104" transform="matrix(0.556974 0.83053 -0.747537 0.66422 140.562 843.091)" fill="#F8FCFC"/>
<ellipse cx="1.36816" cy="0.658956" rx="1.36816" ry="0.658956" transform="matrix(0.556974 0.83053 -0.747537 0.66422 171.677 811.561)" fill="#F8FCFC"/>
<ellipse cx="0.964441" cy="0.46451" rx="0.964441" ry="0.46451" transform="matrix(0.556974 0.83053 -0.747537 0.66422 101.516 844.628)" fill="#F8FCFC"/>
<ellipse cx="1467.46" cy="565.295" rx="18.2024" ry="16.9627" fill="#E3F4F4"/>
<ellipse cx="1503.02" cy="537.166" rx="11.9821" ry="11.1661" fill="#E3F4F4"/>
<ellipse cx="1435.45" cy="562.427" rx="8.44643" ry="7.87119" fill="#E3F4F4"/>
<ellipse cx="1471.07" cy="537.044" rx="10.2798" ry="9.57967" fill="#E3F4F4"/>
<ellipse cx="1494.9" cy="577.925" rx="8.18452" ry="7.62712" fill="#E3F4F4"/>
<ellipse cx="1443.24" cy="584.21" rx="6.67857" ry="6.22373" fill="#E3F4F4"/>
<ellipse cx="1452.67" cy="543.695" rx="3.40476" ry="3.17288" fill="#E3F4F4"/>
<ellipse cx="1456.07" cy="585.431" rx="3.40476" ry="3.17288" fill="#E3F4F4"/>
<ellipse cx="1486.19" cy="548.332" rx="3.40476" ry="3.17288" fill="#E3F4F4"/>
<ellipse cx="1439.18" cy="543.695" rx="2.61905" ry="2.44068" fill="#E3F4F4"/>
<ellipse cx="1493.65" cy="565.295" rx="2.61905" ry="2.44068" fill="#E3F4F4"/>
<ellipse cx="1460.79" cy="595.56" rx="2.61905" ry="2.44068" fill="#E3F4F4"/>
<ellipse cx="4.57235" cy="2.57327" rx="4.57235" ry="2.57327" transform="matrix(0.806022 0.591886 -0.645688 0.763601 1473.14 550.407)" fill="#F8FCFC"/>
<ellipse cx="3.00985" cy="1.69391" rx="3.00985" ry="1.69391" transform="matrix(0.806022 0.591886 -0.645688 0.763601 1506.76 527.365)" fill="#F8FCFC"/>
<ellipse cx="2.1217" cy="1.19407" rx="2.1217" ry="1.19407" transform="matrix(0.806022 0.591886 -0.645688 0.763601 1438.08 555.519)" fill="#F8FCFC"/>
<ellipse cx="2.27602" cy="0.952632" rx="2.27602" ry="0.952632" transform="matrix(0.806022 0.591886 -0.645688 0.763601 1475.37 529.173)" fill="#F8FCFC"/>
<ellipse cx="1.81212" cy="0.758465" rx="1.81212" ry="0.758465" transform="matrix(0.806022 0.591886 -0.645688 0.763601 1498.33 571.659)" fill="#F8FCFC"/>
<ellipse cx="1.47869" cy="0.618907" rx="1.47869" ry="0.618907" transform="matrix(0.806022 0.591886 -0.645688 0.763601 1446.04 579.097)" fill="#F8FCFC"/>
<ellipse cx="1.81333" cy="0.921126" rx="1.81333" ry="0.921126" transform="matrix(0.637915 0.770107 -0.81178 0.583963 1480.52 557.624)" fill="#F8FCFC"/>
<ellipse cx="1.19367" cy="0.606353" rx="1.19367" ry="0.606353" transform="matrix(0.637915 0.770107 -0.81178 0.583963 1511.61 532.117)" fill="#F8FCFC"/>
<ellipse cx="0.841439" cy="0.427429" rx="0.841439" ry="0.427429" transform="matrix(0.637915 0.770107 -0.81178 0.583963 1441.51 558.868)" fill="#F8FCFC"/>
<path d="M1706.18 831.124H1706.11C1702.51 831.124 1692.85 827.343 1692.54 815.447C1692.54 805.612 1694.02 796.219 1705.28 776.033C1705.65 775.368 1706.6 775.345 1706.99 775.998C1716.39 791.76 1720.33 806.851 1719.69 815.447C1718.9 825.912 1712.25 830.49 1706.18 831.124Z" fill="#F5F5F5"/>
<path d="M1706.12 831.362L1706.18 831.362C1709.79 831.362 1719.44 835.144 1719.75 847.039C1719.75 856.875 1718.27 866.267 1707.02 886.454C1706.65 887.118 1705.69 887.142 1705.31 886.488C1695.91 870.727 1691.96 855.636 1692.61 847.039C1693.39 836.574 1700.05 831.996 1706.12 831.362Z" fill="#F5F5F5"/>
<path d="M1705.91 831.159L1705.88 831.214C1704.08 834.338 1695.98 840.809 1685.52 835.129C1677 830.211 1669.61 824.233 1657.76 804.39C1657.37 803.737 1657.82 802.902 1658.58 802.892C1676.93 802.633 1691.97 806.764 1699.09 811.621C1707.76 817.533 1708.4 825.586 1705.91 831.159Z" fill="#F5F5F5"/>
<path d="M1706.09 831.328L1706.12 831.273C1707.93 828.149 1716.03 821.678 1726.49 827.358C1735 832.276 1742.4 838.255 1754.25 858.097C1754.64 858.75 1754.19 859.585 1753.43 859.596C1735.08 859.854 1720.04 855.723 1712.91 850.866C1704.24 844.954 1703.61 836.902 1706.09 831.328Z" fill="#F5F5F5"/>
<path d="M1705.89 831.278L1705.92 831.333C1707.72 834.457 1709.27 844.71 1699.13 850.925C1690.61 855.843 1681.73 859.256 1658.62 859.6C1657.86 859.612 1657.37 858.801 1657.74 858.137C1666.69 842.117 1677.79 831.157 1685.55 827.417C1695.01 822.864 1702.3 826.338 1705.89 831.278Z" fill="#F5F5F5"/>
<path d="M1706.12 831.208L1706.09 831.153C1704.29 828.029 1702.73 817.777 1712.88 811.562C1721.4 806.644 1730.27 803.23 1753.38 802.886C1754.14 802.875 1754.64 803.686 1754.27 804.35C1745.32 820.37 1734.22 831.33 1726.45 835.07C1717 839.622 1709.7 836.148 1706.12 831.208Z" fill="#F5F5F5"/>
<path d="M1706.18 831.23L1706.13 831.203C1703.53 829.699 1698.13 822.944 1702.87 814.225C1706.95 807.157 1711.9 801.017 1728.26 791.217C1728.91 790.826 1729.74 791.283 1729.75 792.044C1729.92 807.216 1726.49 819.64 1722.47 825.542C1717.54 832.772 1710.82 833.303 1706.18 831.23Z" fill="#FAFAFA"/>
<path d="M1706.04 831.379L1706.08 831.405C1708.69 832.909 1714.08 839.665 1709.35 848.383C1705.27 855.451 1700.31 861.591 1683.95 871.392C1683.3 871.783 1682.47 871.325 1682.46 870.564C1682.29 855.392 1685.72 842.969 1689.75 837.066C1694.68 829.837 1701.39 829.306 1706.04 831.379Z" fill="#FAFAFA"/>
<path d="M1705.97 831.146L1705.93 831.173C1703.32 832.676 1694.77 833.971 1689.59 825.51C1685.51 818.442 1682.67 811.079 1682.36 792.016C1682.35 791.255 1683.16 790.765 1683.82 791.138C1697.05 798.577 1706.09 807.757 1709.19 814.193C1712.99 822.077 1710.09 828.158 1705.97 831.146Z" fill="#FAFAFA"/>
<path d="M1706.03 831.342L1706.08 831.316C1708.68 829.812 1717.23 828.517 1722.41 836.978C1726.49 844.046 1729.33 851.409 1729.64 870.473C1729.66 871.233 1728.84 871.724 1728.18 871.351C1714.96 863.912 1705.91 854.732 1702.81 848.295C1699.02 840.411 1701.91 834.331 1706.03 831.342Z" fill="#FAFAFA"/>
<path d="M1705.9 831.22V831.273C1705.9 834.281 1702.75 842.331 1692.83 842.589C1684.67 842.589 1676.87 841.366 1660.21 832.103C1659.54 831.733 1659.53 830.785 1660.18 830.397C1673.23 822.665 1685.71 819.421 1692.83 819.955C1701.56 820.609 1705.37 826.159 1705.9 831.22Z" fill="#FAFAFA"/>
<path d="M1706.1 831.267L1706.1 831.214C1706.1 828.207 1709.25 820.156 1719.17 819.898C1727.33 819.898 1735.13 821.121 1751.8 830.385C1752.46 830.754 1752.48 831.702 1751.82 832.09C1738.77 839.823 1726.3 843.067 1719.17 842.532C1710.45 841.878 1706.63 836.329 1706.1 831.267Z" fill="#FAFAFA"/>
<path d="M1706.11 831.298L1706.09 831.265C1705.04 829.44 1704.13 823.45 1710.06 819.818C1714.95 816.995 1720.04 815.02 1733.03 814.761C1733.79 814.746 1734.28 815.557 1733.9 816.217C1728.73 825.244 1722.43 831.417 1717.99 833.554C1712.47 836.214 1708.21 834.184 1706.11 831.298Z" fill="white"/>
<path d="M1705.98 831.339L1705.99 831.371C1707.05 833.197 1707.96 839.187 1702.03 842.819C1697.14 845.642 1692.05 847.616 1679.06 847.876C1678.3 847.891 1677.81 847.079 1678.19 846.419C1683.36 837.392 1689.66 831.22 1694.1 829.083C1699.62 826.423 1703.88 828.453 1705.98 831.339Z" fill="white"/>
<path d="M1706.02 831.175L1705.98 831.175C1703.87 831.175 1698.23 828.966 1698.05 822.015C1698.05 816.369 1698.89 810.973 1705.15 799.601C1705.52 798.934 1706.47 798.914 1706.85 799.572C1712.09 808.56 1714.28 817.102 1713.91 822.015C1713.45 828.13 1709.57 830.805 1706.02 831.175Z" fill="white"/>
<path d="M1705.99 831.314L1706.02 831.314C1708.13 831.314 1713.77 833.524 1713.95 840.474C1713.95 846.12 1713.12 851.516 1706.85 862.889C1706.48 863.555 1705.54 863.575 1705.15 862.917C1699.92 853.929 1697.72 845.387 1698.09 840.474C1698.55 834.359 1702.44 831.684 1705.99 831.314Z" fill="white"/>
<path d="M1705.95 831.196L1705.93 831.228C1704.88 833.053 1700.14 836.834 1694.03 833.515C1689.14 830.692 1684.89 827.271 1678.17 816.158C1677.78 815.507 1678.24 814.675 1679 814.673C1689.4 814.634 1697.89 817.004 1701.96 819.78C1707.03 823.234 1707.4 827.939 1705.95 831.196Z" fill="white"/>
<path d="M1706.05 831.294L1706.07 831.262C1707.13 829.437 1711.86 825.656 1717.97 828.975C1722.86 831.798 1727.12 835.219 1733.83 846.332C1734.22 846.983 1733.77 847.815 1733.01 847.818C1722.61 847.856 1714.11 845.486 1710.04 842.711C1704.97 839.256 1704.6 834.551 1706.05 831.294Z" fill="white"/>
<path d="M1706.07 831.338V831.304C1706.07 829.352 1708.11 824.126 1714.55 823.959C1719.76 823.959 1724.75 824.727 1735.2 830.476C1735.87 830.843 1735.89 831.791 1735.23 832.172C1726.95 836.975 1719.08 838.99 1714.55 838.65C1708.89 838.225 1706.41 834.623 1706.07 831.338Z" fill="white"/>
<path d="M1705.94 831.308V831.343C1705.94 833.295 1703.89 838.52 1697.45 838.687C1692.24 838.687 1687.26 837.919 1676.8 832.17C1676.13 831.804 1676.11 830.856 1676.77 830.474C1685.06 825.671 1692.92 823.657 1697.45 823.997C1703.12 824.421 1705.59 828.023 1705.94 831.308Z" fill="white"/>
<path d="M1706.05 831.196L1706.02 831.179C1704.33 830.202 1700.83 825.817 1703.9 820.159C1706.51 815.645 1709.66 811.715 1719.87 805.533C1720.52 805.138 1721.35 805.595 1721.35 806.355C1721.37 815.933 1719.18 823.75 1716.62 827.504C1713.42 832.196 1709.07 832.541 1706.05 831.196Z" fill="white"/>
<path d="M1705.96 831.293L1705.99 831.311C1707.68 832.287 1711.18 836.672 1708.11 842.331C1705.5 846.844 1702.34 850.774 1692.14 856.957C1691.48 857.351 1690.65 856.895 1690.65 856.134C1690.64 846.556 1692.82 838.739 1695.38 834.985C1698.58 830.293 1702.94 829.948 1705.96 831.293Z" fill="white"/>
<path d="M1705.98 831.181L1705.95 831.198C1704.26 832.174 1698.71 833.014 1695.35 827.523C1692.74 823.01 1690.92 818.311 1690.67 806.379C1690.65 805.619 1691.46 805.127 1692.12 805.506C1700.42 810.281 1706.1 816.084 1708.07 820.177C1710.54 825.295 1708.66 829.241 1705.98 831.181Z" fill="white"/>
<path d="M1706.02 831.309L1706.05 831.292C1707.74 830.316 1713.29 829.476 1716.65 834.967C1719.26 839.481 1721.09 844.179 1721.34 856.111C1721.35 856.871 1720.54 857.363 1719.88 856.984C1711.58 852.209 1705.9 846.407 1703.93 842.313C1701.47 837.196 1703.35 833.249 1706.02 831.309Z" fill="white"/>
<circle cx="1705.34" cy="831.532" r="9.23711" fill="url(#paint0_radial_578_325)"/>
<path d="M163.176 471.124H163.112C159.505 471.124 149.85 467.343 149.541 455.447C149.541 445.612 151.022 436.219 162.279 416.033C162.65 415.368 163.6 415.345 163.989 415.998C173.388 431.76 177.33 446.851 176.686 455.447C175.901 465.912 169.246 470.49 163.176 471.124Z" fill="#F5F5F5"/>
<path d="M163.118 471.362L163.182 471.362C166.789 471.362 176.444 475.144 176.753 487.039C176.753 496.875 175.272 506.267 164.015 526.454C163.645 527.118 162.694 527.142 162.305 526.488C152.906 510.727 148.964 495.636 149.608 487.039C150.393 476.574 157.048 471.996 163.118 471.362Z" fill="#F5F5F5"/>
<path d="M162.914 471.159L162.883 471.214C161.079 474.338 152.977 480.809 142.521 475.129C134.003 470.211 126.609 464.233 114.756 444.39C114.365 443.737 114.82 442.902 115.581 442.892C133.93 442.633 148.97 446.764 156.093 451.621C164.763 457.533 165.4 465.586 162.914 471.159Z" fill="#F5F5F5"/>
<path d="M163.092 471.328L163.124 471.273C164.928 468.149 173.03 461.678 183.486 467.358C192.004 472.276 199.398 478.255 211.251 498.097C211.641 498.75 211.187 499.585 210.426 499.596C192.077 499.854 177.037 495.723 169.914 490.866C161.243 484.954 160.606 476.902 163.092 471.328Z" fill="#F5F5F5"/>
<path d="M162.885 471.278L162.917 471.333C164.721 474.457 166.273 484.71 156.126 490.925C147.609 495.843 138.734 499.256 115.623 499.6C114.863 499.612 114.367 498.801 114.738 498.137C123.689 482.117 134.787 471.157 142.554 467.417C152.009 462.864 159.302 466.338 162.885 471.278Z" fill="#F5F5F5"/>
<path d="M163.121 471.208L163.089 471.153C161.285 468.029 159.733 457.777 169.879 451.562C178.397 446.644 187.272 443.23 210.383 442.886C211.143 442.875 211.639 443.686 211.268 444.35C202.317 460.37 191.219 471.33 183.452 475.07C173.997 479.622 166.704 476.148 163.121 471.208Z" fill="#F5F5F5"/>
<path d="M163.177 471.23L163.131 471.203C160.526 469.699 155.131 462.944 159.867 454.225C163.947 447.157 168.904 441.017 185.259 431.217C185.912 430.826 186.742 431.283 186.75 432.044C186.92 447.216 183.493 459.64 179.468 465.542C174.538 472.772 167.824 473.303 163.177 471.23Z" fill="#FAFAFA"/>
<path d="M163.036 471.379L163.082 471.405C165.687 472.909 171.083 479.665 166.347 488.383C162.266 495.451 157.309 501.591 140.954 511.392C140.301 511.783 139.471 511.325 139.463 510.564C139.293 495.392 142.72 482.969 146.745 477.066C151.675 469.837 158.389 469.306 163.036 471.379Z" fill="#FAFAFA"/>
<path d="M162.973 471.146L162.927 471.173C160.322 472.676 151.774 473.971 146.592 465.51C142.511 458.442 139.672 451.079 139.362 432.016C139.349 431.255 140.161 430.765 140.824 431.138C154.048 438.577 163.094 447.757 166.193 454.193C169.989 462.077 167.092 468.158 162.973 471.146Z" fill="#FAFAFA"/>
<path d="M163.032 471.342L163.077 471.316C165.682 469.812 174.231 468.517 179.413 476.978C183.494 484.046 186.333 491.409 186.643 510.473C186.655 511.233 185.844 511.724 185.181 511.351C171.957 503.912 162.911 494.732 159.812 488.295C156.015 480.411 158.913 474.331 163.032 471.342Z" fill="#FAFAFA"/>
<path d="M162.902 471.22V471.273C162.902 474.281 159.749 482.331 149.831 482.589C141.669 482.589 133.874 481.366 117.209 472.103C116.544 471.733 116.525 470.785 117.18 470.397C130.234 462.665 142.707 459.421 149.831 459.955C158.557 460.609 162.374 466.159 162.902 471.22Z" fill="#FAFAFA"/>
<path d="M163.101 471.267L163.101 471.214C163.101 468.207 166.254 460.156 176.173 459.898C184.334 459.898 192.13 461.121 208.795 470.385C209.46 470.754 209.479 471.702 208.824 472.09C195.77 479.823 183.297 483.067 176.173 482.532C167.447 481.878 163.63 476.329 163.101 471.267Z" fill="#FAFAFA"/>
<path d="M163.113 471.298L163.094 471.265C162.04 469.44 161.133 463.45 167.062 459.818C171.952 456.995 177.043 455.02 190.025 454.761C190.785 454.746 191.277 455.557 190.899 456.217C185.731 465.244 179.431 471.417 174.993 473.554C169.468 476.214 165.207 474.184 163.113 471.298Z" fill="white"/>
<path d="M162.976 471.339L162.994 471.371C164.048 473.197 164.955 479.187 159.027 482.819C154.137 485.642 149.046 487.616 136.064 487.876C135.303 487.891 134.812 487.079 135.19 486.419C140.357 477.392 146.657 471.22 151.096 469.083C156.621 466.423 160.882 468.453 162.976 471.339Z" fill="white"/>
<path d="M163.018 471.176L162.981 471.176C160.874 471.176 155.232 468.967 155.052 462.016C155.052 456.37 155.887 450.974 162.153 439.602C162.52 438.935 163.469 438.915 163.852 439.573C169.085 448.561 171.281 457.103 170.912 462.016C170.454 468.131 166.565 470.806 163.018 471.176Z" fill="white"/>
<path d="M162.986 471.315L163.023 471.315C165.131 471.315 170.772 473.525 170.953 480.475C170.953 486.121 170.117 491.517 163.851 502.89C163.484 503.556 162.535 503.576 162.153 502.918C156.919 493.93 154.723 485.388 155.092 480.475C155.55 474.36 159.439 471.685 162.986 471.315Z" fill="white"/>
<path d="M162.95 471.196L162.931 471.228C161.878 473.053 157.143 476.834 151.034 473.515C146.144 470.692 141.888 467.271 135.173 456.158C134.78 455.507 135.236 454.675 135.997 454.673C146.398 454.634 154.894 457.004 158.964 459.78C164.03 463.234 164.403 467.939 162.95 471.196Z" fill="white"/>
<path d="M163.054 471.294L163.072 471.262C164.126 469.437 168.86 465.656 174.97 468.975C179.86 471.798 184.115 475.219 190.831 486.332C191.224 486.983 190.767 487.815 190.006 487.818C179.605 487.856 171.11 485.486 167.039 482.711C161.973 479.256 161.601 474.551 163.054 471.294Z" fill="white"/>
<path d="M163.067 471.338V471.304C163.067 469.352 165.114 464.126 171.552 463.959C176.763 463.959 181.745 464.727 192.203 470.476C192.87 470.843 192.89 471.791 192.232 472.172C183.946 476.975 176.082 478.99 171.552 478.65C165.888 478.225 163.41 474.623 163.067 471.338Z" fill="white"/>
<path d="M162.936 471.308V471.343C162.936 473.295 160.89 478.52 154.452 478.687C149.24 478.687 144.259 477.919 133.8 472.17C133.134 471.804 133.113 470.856 133.771 470.474C142.058 465.671 149.921 463.657 154.452 463.997C160.116 464.421 162.593 468.023 162.936 471.308Z" fill="white"/>
<path d="M163.048 471.196L163.018 471.179C161.328 470.202 157.826 465.817 160.9 460.159C163.506 455.645 166.662 451.715 176.87 445.533C177.52 445.138 178.352 445.595 178.353 446.355C178.369 455.933 176.182 463.75 173.623 467.504C170.423 472.196 166.065 472.541 163.048 471.196Z" fill="white"/>
<path d="M162.956 471.293L162.986 471.311C164.677 472.287 168.179 476.672 165.105 482.331C162.499 486.844 159.343 490.774 149.135 496.957C148.484 497.351 147.653 496.895 147.651 496.134C147.635 486.556 149.822 478.739 152.382 474.985C155.582 470.293 159.94 469.948 162.956 471.293Z" fill="white"/>
<path d="M162.982 471.181L162.952 471.198C161.261 472.174 155.713 473.014 152.349 467.523C149.743 463.01 147.918 458.311 147.668 446.379C147.652 445.619 148.463 445.127 149.122 445.506C157.424 450.281 163.101 456.084 165.072 460.177C167.536 465.295 165.655 469.241 162.982 471.181Z" fill="white"/>
<path d="M163.021 471.309L163.051 471.292C164.741 470.316 170.29 469.476 173.654 474.967C176.259 479.481 178.085 484.179 178.335 496.111C178.351 496.871 177.54 497.363 176.881 496.984C168.578 492.209 162.902 486.407 160.931 482.313C158.467 477.196 160.347 473.249 163.021 471.309Z" fill="white"/>
<circle cx="162.342" cy="471.532" r="9.23711" fill="url(#paint1_radial_578_325)"/>
<path d="M214.766 305.654L214.696 305.634C210.703 304.529 201.174 297.384 204.478 284.122C207.501 273.2 212.038 263.229 230.834 244.218C231.368 243.677 232.293 243.906 232.496 244.64C238.137 265.067 237.888 283.085 234.526 292.441C230.45 303.785 221.68 306.813 214.766 305.654Z" fill="#F5F5F5"/>
<path d="M214.63 305.901L214.7 305.92C218.693 307.026 228.222 314.171 224.918 327.433C221.894 338.355 217.358 348.326 198.562 367.337C198.027 367.878 197.102 367.648 196.9 366.915C191.258 346.488 191.508 328.469 194.87 319.114C198.946 307.77 207.716 304.742 214.63 305.901Z" fill="#F5F5F5"/>
<path d="M214.466 305.612L214.414 305.663C211.46 308.569 200.508 313.248 190.674 303.756C182.728 295.676 176.361 286.762 169.295 260.979C169.094 260.246 169.755 259.559 170.491 259.751C191.003 265.079 206.482 274.304 212.904 281.893C220.689 291.095 218.927 300.204 214.466 305.612Z" fill="#F5F5F5"/>
<path d="M214.612 305.854L214.664 305.802C217.618 302.897 228.57 298.218 238.404 307.71C246.35 315.789 252.718 324.704 259.784 350.487C259.985 351.22 259.323 351.906 258.587 351.715C238.076 346.387 222.596 337.162 216.175 329.572C208.389 320.371 210.152 311.262 214.612 305.854Z" fill="#F5F5F5"/>
<path d="M214.397 305.736L214.416 305.806C215.455 309.817 214.031 321.642 200.894 325.412C189.924 328.254 179.02 329.311 153.158 322.539C152.422 322.346 152.159 321.43 152.693 320.888C167.563 305.789 183.292 296.996 193.075 295.23C204.937 293.088 211.944 299.169 214.397 305.736Z" fill="#F5F5F5"/>
<path d="M214.679 305.73L214.661 305.66C213.622 301.649 215.045 289.824 228.182 286.054C239.153 283.212 250.057 282.155 275.918 288.927C276.654 289.12 276.918 290.035 276.384 290.578C261.514 305.677 245.785 314.47 236.002 316.236C224.14 318.378 217.132 312.297 214.679 305.73Z" fill="#F5F5F5"/>
<path d="M214.735 305.77L214.692 305.726C212.27 303.263 208.368 294.131 216.283 285.932C222.991 279.333 230.391 274.041 251.682 268.179C252.416 267.977 253.098 268.637 252.905 269.373C248.451 286.341 240.807 299.141 234.512 304.467C226.84 310.959 219.244 309.489 214.735 305.77Z" fill="#FAFAFA"/>
<path d="M214.534 305.891L214.577 305.935C216.999 308.398 220.901 317.53 212.987 325.729C206.278 332.328 198.879 337.62 177.587 343.482C176.854 343.684 176.172 343.024 176.365 342.288C180.818 325.32 188.462 312.52 194.757 307.194C202.43 300.702 210.025 302.172 214.534 305.891Z" fill="#FAFAFA"/>
<path d="M214.535 305.615L214.476 305.63C211.132 306.497 201.272 305.31 198.129 294.356C195.769 285.247 194.885 276.193 200.454 254.822C200.646 254.086 201.559 253.826 202.1 254.361C214.568 266.702 221.83 279.722 223.295 287.836C225.081 297.727 220.011 303.569 214.535 305.615Z" fill="#FAFAFA"/>
<path d="M214.541 305.85L214.6 305.835C217.944 304.968 227.804 306.155 230.947 317.109C233.307 326.218 234.191 335.272 228.622 356.642C228.43 357.379 227.517 357.639 226.976 357.104C214.508 344.763 207.246 331.743 205.781 323.629C203.995 313.738 209.065 307.895 214.541 305.85Z" fill="#FAFAFA"/>
<path d="M214.434 305.676L214.418 305.735C213.496 309.064 207.539 317.01 196.48 314.255C187.412 311.744 179.129 307.982 163.406 292.475C162.864 291.94 163.095 291.019 163.829 290.819C180.751 286.191 195.658 286.412 203.417 289.2C212.876 292.599 215.401 299.912 214.434 305.676Z" fill="#FAFAFA"/>
<path d="M214.64 305.79L214.656 305.731C215.578 302.401 221.536 294.456 232.594 297.211C241.663 299.722 249.945 303.483 265.668 318.991C266.21 319.525 265.979 320.446 265.245 320.647C248.323 325.275 233.417 325.054 225.657 322.266C216.198 318.867 213.674 311.554 214.64 305.79Z" fill="#FAFAFA"/>
<path d="M214.644 305.826L214.633 305.784C214.026 303.441 214.858 296.532 222.534 294.329C228.847 292.693 235.123 292.069 249.749 295.832C250.485 296.021 250.741 296.934 250.202 297.471C241.661 305.988 232.71 310.952 227.103 311.964C220.172 313.216 216.077 309.663 214.644 305.826Z" fill="white"/>
<path d="M214.48 305.829L214.49 305.87C215.097 308.214 214.266 315.123 206.589 317.326C200.276 318.961 194 319.585 179.375 315.823C178.638 315.633 178.383 314.72 178.921 314.183C187.462 305.666 196.413 300.702 202.021 299.69C208.952 298.438 213.046 301.992 214.48 305.829Z" fill="white"/>
<path d="M214.577 305.662L214.535 305.651C212.202 305.005 206.635 300.83 208.565 293.081C210.305 286.796 212.903 281.049 223.474 270.264C224.006 269.72 224.925 269.956 225.12 270.691C228.226 282.346 228.049 292.58 226.122 297.942C223.741 304.57 218.616 306.339 214.577 305.662Z" fill="white"/>
<path d="M214.498 305.806L214.539 305.818C216.872 306.464 222.44 310.639 220.509 318.388C218.769 324.673 216.171 330.42 205.6 341.205C205.068 341.748 204.15 341.513 203.954 340.778C200.848 329.123 201.025 318.889 202.952 313.527C205.334 306.899 210.458 305.129 214.498 305.806Z" fill="white"/>
<path d="M214.495 305.664L214.464 305.694C212.738 307.391 206.339 310.126 200.593 304.579C196.02 299.93 192.342 294.807 188.287 280.259C188.083 279.526 188.746 278.849 189.481 279.047C201.127 282.185 209.901 287.455 213.582 291.805C218.131 297.182 217.101 302.504 214.495 305.664Z" fill="white"/>
<path d="M214.579 305.805L214.61 305.775C216.336 304.077 222.735 301.343 228.481 306.889C233.054 311.539 236.732 316.662 240.787 331.209C240.991 331.942 240.328 332.62 239.593 332.422C227.947 329.284 219.173 324.014 215.492 319.664C210.943 314.287 211.973 308.965 214.579 305.805Z" fill="white"/>
<path d="M214.581 305.857L214.591 305.819C215.19 303.658 219.056 298.501 226.234 300.289C232.038 301.896 237.347 304.292 247.278 314.009C247.822 314.542 247.587 315.461 246.852 315.655C236.107 318.499 226.68 318.329 221.732 316.551C215.592 314.345 213.953 309.598 214.581 305.857Z" fill="white"/>
<path d="M214.445 305.783L214.434 305.821C213.836 307.982 209.969 313.139 202.791 311.351C196.987 309.744 191.679 307.348 181.747 297.63C181.204 297.098 181.438 296.179 182.173 295.984C192.919 293.141 202.345 293.31 207.294 295.089C213.433 297.295 215.072 302.041 214.445 305.783Z" fill="white"/>
<path d="M214.603 305.693L214.575 305.665C213.003 304.066 210.47 298.139 215.608 292.817C219.901 288.594 224.631 285.195 238.012 281.453C238.745 281.248 239.424 281.91 239.224 282.645C236.314 293.372 231.454 301.451 227.44 304.848C222.46 309.061 217.53 308.107 214.603 305.693Z" fill="white"/>
<path d="M214.471 305.774L214.499 305.802C216.071 307.4 218.604 313.328 213.467 318.65C209.173 322.873 204.443 326.272 191.062 330.014C190.329 330.219 189.651 329.556 189.85 328.822C192.76 318.095 197.62 310.016 201.634 306.619C206.614 302.406 211.544 303.36 214.471 305.774Z" fill="white"/>
<path d="M214.535 305.656L214.496 305.666C212.326 306.228 205.926 305.458 203.886 298.348C202.375 292.518 201.797 286.722 205.246 273.263C205.435 272.526 206.348 272.269 206.885 272.809C214.72 280.693 219.286 288.941 220.221 294.116C221.38 300.536 218.089 304.328 214.535 305.656Z" fill="white"/>
<path d="M214.538 305.81L214.576 305.8C216.747 305.238 223.147 306.008 225.187 313.118C226.698 318.948 227.276 324.744 223.827 338.203C223.638 338.94 222.725 339.197 222.188 338.657C214.353 330.773 209.787 322.525 208.852 317.35C207.693 310.93 210.984 307.138 214.538 305.81Z" fill="white"/>
<circle cx="213.718" cy="305.849" r="10.6098" transform="rotate(15.4759 213.718 305.849)" fill="url(#paint2_radial_578_325)"/>
<path d="M1288.94 320.427C1263.98 291.935 1241.15 320.652 1235.66 325.463C1230.17 330.275 1240.09 347.044 1255.66 364.814C1271.23 382.585 1286.55 394.629 1292.04 389.817C1304.73 380.698 1303.73 337.299 1288.94 320.427Z" fill="#BCBEA2"/>
<path d="M1267.08 365.644C1257.03 355.182 1252.94 348.439 1252.41 348.904C1251.15 350.118 1258.28 359.582 1268.33 370.044C1278.38 380.506 1287.56 388.004 1288.82 386.791C1290.08 385.577 1277.13 376.106 1267.08 365.644Z" fill="#D9D6C7"/>
<path d="M1276.54 338.307C1262.79 333.667 1253.39 328.092 1253.13 328.749C1252.57 330.408 1265.41 337.039 1278.39 342.704C1292.14 347.345 1294.81 351.539 1295.92 347.478C1296.98 343.659 1290.29 342.948 1276.54 338.307Z" fill="#D9D6C7"/>
<path d="M1278.3 334.069C1267.48 330.417 1260.07 326.03 1259.87 326.547C1259.43 327.853 1269.53 333.071 1279.75 337.53C1290.57 341.182 1292.67 344.482 1293.55 341.287C1294.38 338.281 1289.12 337.721 1278.3 334.069Z" fill="#D9D6C7"/>
<path d="M1285.33 362.914C1276.29 357.312 1270.25 352.17 1270.03 352.471C1269.55 353.25 1277.85 359.734 1286.31 365.724C1295.36 371.327 1296.91 374.21 1297.92 372.246C1298.87 370.399 1294.38 368.516 1285.33 362.914Z" fill="#D9D6C7"/>
<path d="M1278.69 353.169C1265.88 346.004 1257.17 339.427 1256.91 339.812C1256.36 340.809 1268.27 349.102 1280.34 356.764C1293.15 363.93 1295.57 367.618 1296.7 365.105C1297.76 362.742 1291.5 360.335 1278.69 353.169Z" fill="#D9D6C7"/>
<path d="M1277.18 346.952C1261.65 337.325 1259.09 335.554 1258.53 336.051C1258.04 337.21 1266.31 344.197 1279.12 350.562C1292.64 356.279 1295.37 359.87 1296.32 356.992C1297.22 354.285 1290.7 352.669 1277.18 346.952Z" fill="#D9D6C7"/>
<path d="M1276.59 327.546C1265.77 323.894 1261.7 322.907 1261.5 323.424C1261.06 324.73 1267.83 326.548 1278.04 331.006C1288.86 334.658 1290.96 337.959 1291.84 334.763C1292.67 331.757 1287.41 331.198 1276.59 327.546Z" fill="#D9D6C7"/>
<path d="M1277.03 322.846C1269.65 321.29 1268.04 321.599 1268.02 321.718C1267.79 322.953 1269.15 323.463 1278.95 326.179C1289.18 328.089 1291.53 331.544 1291.91 328.545C1292.28 325.725 1287.27 324.756 1277.03 322.846Z" fill="#D9D6C7"/>
<path d="M1271.14 316.511C1265.34 315.867 1264.11 316.37 1264.1 316.49C1264 317.742 1265.08 318.082 1272.83 319.581C1280.87 320.228 1282.91 323.367 1283.02 320.348C1283.12 317.508 1279.18 317.158 1271.14 316.511Z" fill="#D9D6C7"/>
<path d="M1270.06 312.822C1266 312.785 1265.18 313.12 1265.18 313.185C1265.19 313.863 1265.96 313.989 1271.43 314.382C1277.05 314.301 1278.65 315.88 1278.54 314.252C1278.43 312.72 1275.68 312.742 1270.06 312.822Z" fill="#D9D6C7"/>
<path d="M1263.62 369.403C1256.31 361.801 1254.23 358.905 1253.84 359.243C1252.93 360.124 1257.22 364.998 1264.53 372.6C1271.83 380.202 1278.5 385.65 1279.41 384.768C1280.33 383.887 1270.92 377.005 1263.62 369.403Z" fill="#D9D6C7"/>
<path d="M1268.67 359.097C1257.41 347.371 1252.68 339.959 1252.14 340.421C1250.88 341.634 1258.99 352.123 1270.26 363.848C1281.53 375.574 1291.68 384.096 1292.95 382.882C1294.21 381.669 1279.94 370.822 1268.67 359.097Z" fill="#D9D6C7"/>
<path d="M1277.62 362.976C1268.7 354.863 1264.69 349.772 1264.38 350.076C1263.65 350.877 1270.29 358.104 1279.21 366.217C1288.13 374.331 1295.95 380.259 1296.68 379.458C1297.41 378.657 1286.54 371.09 1277.62 362.976Z" fill="#D9D6C7"/>
<path d="M1465.19 273.112C1476.52 277.189 1489.21 280 1532.3 312.836C1553.96 312.107 1589.34 344.503 1610.69 375.971C1612.08 378.023 1615.28 387.711 1602.7 388.135C1588.72 388.605 1579.35 380.524 1564.35 371.233C1547.42 360.752 1539.41 337.087 1539.36 335.689C1538.54 333.014 1530.65 326.186 1520.77 323.72C1424.66 295.466 1348.7 325.31 1284.4 327.473C1199.2 332.439 1133.35 329.998 1132.51 305.294C1131.68 280.59 1212.05 236.147 1288.45 239.874C1343.73 240.114 1385.15 244.318 1465.19 273.112Z" fill="#D5C6C2"/>
<path d="M1470.74 292.517C1471.29 308.729 1389.13 300.16 1283.39 318.411C1199.63 321.229 1145.59 319.686 1145.05 303.474C1144.5 287.262 1192.99 248.683 1276.75 245.866C1360.51 243.048 1470.19 276.305 1470.74 292.517Z" fill="#DBCDCA"/>
<path d="M1266.68 216.817C1267.86 251.935 1234.19 246.985 1227.43 247.213C1220.66 247.44 1216.74 229.796 1216 207.893C1215.26 185.99 1217.99 168.122 1224.76 167.894C1239.13 166.018 1265.98 196.022 1266.68 216.817Z" fill="#BCBEA2"/>
<path d="M1223.2 200.088C1223.03 213.545 1224.55 220.698 1223.89 220.72C1222.27 220.7 1221.09 209.774 1221.25 196.317C1221.42 182.86 1222.87 171.967 1224.5 171.987C1226.12 172.007 1223.37 186.631 1223.2 200.088Z" fill="#DDD6C6"/>
<path d="M1246.94 212.584C1240.59 224.445 1237.76 234.186 1237.17 233.903C1235.74 233.136 1240.21 220.506 1245.41 208.437C1251.77 196.576 1250.91 192.044 1254.24 194.082C1257.38 195.999 1253.3 200.723 1246.94 212.584Z" fill="#DDD6C6"/>
<path d="M1250.82 214.339C1245.82 223.674 1243.59 231.339 1243.13 231.117C1242 230.513 1245.52 220.574 1249.61 211.075C1254.61 201.74 1253.94 198.173 1256.57 199.778C1259.03 201.286 1255.83 205.004 1250.82 214.339Z" fill="#DDD6C6"/>
<path d="M1237.28 190.355C1234.72 199.883 1233.89 207.194 1233.56 207.126C1232.74 206.905 1234.24 197.252 1236.16 187.831C1238.73 178.303 1237.95 175.367 1239.88 176.055C1241.7 176.702 1239.85 180.827 1237.28 190.355Z" fill="#DDD6C6"/>
<path d="M1238.97 201.164C1234.85 214.137 1233.12 224.118 1232.71 224.018C1231.7 223.697 1234.5 210.528 1237.81 197.686C1241.93 184.713 1241.23 180.68 1243.58 181.664C1245.8 182.589 1243.09 188.19 1238.97 201.164Z" fill="#DDD6C6"/>
<path d="M1241.89 206.329C1237.49 222.697 1236.88 225.516 1236.19 225.54C1235.12 225.067 1236.29 215.087 1240.92 202.656C1246.44 190.213 1246.01 186.049 1248.48 187.391C1250.8 188.653 1247.41 193.886 1241.89 206.329Z" fill="#DDD6C6"/>
<path d="M1253.8 219.836C1248.8 229.171 1246.67 232.422 1246.21 232.2C1245.08 231.596 1248.51 226.071 1252.59 216.572C1257.6 207.237 1256.93 203.67 1259.55 205.275C1262.02 206.783 1258.81 210.501 1253.8 219.836Z" fill="#DDD6C6"/>
<path d="M1257.08 222.739C1253.08 228.471 1251.79 229.282 1251.7 229.216C1250.76 228.526 1251.36 227.319 1256.27 219.267C1261.98 211.48 1261.38 207.654 1263.54 209.438C1265.57 211.117 1262.8 214.952 1257.08 222.739Z" fill="#DDD6C6"/>
<path d="M1257.12 230.758C1253.6 234.876 1252.45 235.313 1252.37 235.238C1251.51 234.455 1252.02 233.538 1256.32 227.607C1261.35 222.069 1260.73 218.656 1262.72 220.629C1264.59 222.485 1262.15 225.22 1257.12 230.758Z" fill="#DDD6C6"/>
<path d="M1258.73 233.941C1256 236.545 1255.23 236.836 1255.19 236.792C1254.77 236.326 1255.21 235.752 1258.66 232.017C1262.52 228.509 1262.6 226.421 1263.56 227.596C1264.45 228.701 1262.58 230.433 1258.73 233.941Z" fill="#DDD6C6"/>
<path d="M1218.47 199.739C1218.35 209.517 1218.78 212.8 1218.3 212.816C1217.12 212.802 1216.94 206.778 1217.06 197C1217.18 187.222 1218.24 179.307 1219.42 179.321C1220.6 179.336 1218.6 189.961 1218.47 199.739Z" fill="#DDD6C6"/>
<path d="M1228.43 203.509C1228.25 218.591 1229.75 226.606 1229.1 226.631C1227.47 226.611 1226.31 214.368 1226.49 199.286C1226.68 184.204 1228.15 171.994 1229.77 172.014C1231.39 172.034 1228.62 188.427 1228.43 203.509Z" fill="#DDD6C6"/>
<path d="M1232.03 195.206C1231.14 206.356 1231.65 212.345 1231.25 212.337C1230.25 212.258 1230.16 203.154 1231.05 192.005C1231.94 180.856 1233.47 171.882 1234.47 171.962C1235.47 172.042 1232.92 184.057 1232.03 195.206Z" fill="#DDD6C6"/>
<path d="M1475.43 306.173C1475.43 306.175 1475.43 306.178 1475.44 306.18C1476.17 306.219 1486.76 306.274 1488.61 302.931C1490.68 299.212 1492.85 304.188 1493.79 311.153C1494.53 316.723 1481.87 310.162 1475.44 306.18C1475.39 306.177 1475.38 306.175 1475.43 306.173Z" fill="#091120"/>
<ellipse cx="1188.88" cy="326.346" rx="8.09779" ry="2.15154" transform="rotate(0.916684 1188.88 326.346)" fill="#3A3644"/>
<ellipse cx="1179.01" cy="265.157" rx="6.96089" ry="2.20364" transform="rotate(-25.5192 1179.01 265.157)" fill="#3A3644"/>
<path d="M1211.3 255.47C1209.53 252.731 1185.3 265.908 1173.4 272.839C1171.59 273.893 1173.68 281.086 1173.76 283.322C1173.85 286.118 1177.49 290.194 1175.53 294.458C1173.58 298.722 1174.35 300.795 1175.91 305.64C1177.47 310.486 1181.69 311.044 1183.92 315.166C1186.16 319.289 1188.82 315.002 1195.99 320.358C1203.17 325.714 1210.7 320.563 1213.47 319.77C1216.24 318.977 1225.49 323.564 1232.6 326.823C1238.28 329.431 1246.61 327.518 1250.07 326.236L1268.12 322.13C1268.96 319.303 1269.65 313.402 1265.7 312.416C1260.76 311.182 1265.42 304.029 1270.21 301.068C1275.01 298.108 1267.79 291.354 1265.06 293.545C1262.34 295.736 1256.51 288.935 1254.93 283.39C1253.34 277.846 1250.38 273.048 1244.09 273.259C1237.8 273.471 1239.66 266.411 1237.4 261.59C1235.14 256.768 1226.82 259.147 1223.49 264.157C1220.16 269.167 1215.2 267.234 1211.61 264.556C1208.02 261.878 1213.52 258.894 1211.3 255.47Z" fill="#D61818"/>
<path d="M1146 316.854C1129.04 311.827 1136.01 297.132 1141.61 290.413C1144.41 290.319 1143.71 290.343 1147.65 303.504C1150.8 314.034 1147.86 316.792 1146 316.854Z" fill="#C4A9B2"/>
<path d="M1152.4 299.146C1144.72 287.089 1154.79 279.94 1160.78 277.873C1166.3 275.588 1172.09 301.982 1169.36 304.173C1167.18 305.925 1175.23 317.27 1172.58 316.659C1169.05 315.845 1160.08 311.202 1152.4 299.146Z" fill="#CAADB1"/>
<path d="M1281.62 259.716C1280.25 252.485 1269.58 248.692 1264.42 247.7C1261.6 247.011 1266.55 269.319 1271.39 267.757C1275.27 266.507 1278.24 270.325 1279.24 272.39C1289.15 275.556 1283.32 268.755 1281.62 259.716Z" fill="#E03311"/>
<path d="M1288.01 315.603C1291.87 313.794 1295.26 316.059 1296.47 317.417C1303.18 317.192 1301.96 314.433 1300.52 313.083C1296.29 312.292 1289.78 309.945 1297.51 306.886C1307.18 303.063 1304.82 295.445 1303.47 296.89C1302.12 298.335 1300.54 292.791 1296.99 291.51C1293.45 290.23 1283.97 299.645 1282.65 301.789C1281.32 303.933 1283.19 317.864 1288.01 315.603Z" fill="#091120" stroke="#091120"/>
<path d="M1306.78 252.436C1301.92 257.638 1297.8 255.77 1296.35 254.187C1291.4 252.596 1297.96 260.43 1300.45 272.241C1302.45 281.689 1307.08 282.047 1309.15 281.044C1309.53 278.699 1312.15 274.786 1319.54 277.896C1328.76 281.784 1332.02 274.677 1329.92 274.748C1327.83 274.818 1319.09 264.617 1324.03 265.85C1327.98 266.836 1329.32 263.806 1329.5 262.167C1327.75 258.495 1323.56 251.872 1320.86 254.761C1318.15 257.651 1315.57 257.038 1314.61 256.371C1314.03 252.892 1311.65 247.235 1306.78 252.436Z" fill="#091120"/>
<path d="M1317.44 311.36C1315.18 310.876 1312.96 316.875 1312.13 319.935C1319.21 322.496 1362.45 318.242 1365.08 313.256C1367.71 308.269 1354.66 294.714 1354.73 296.811C1354.79 298.489 1350.98 296.238 1349.07 294.902C1342.44 291.86 1329.5 287.164 1330.81 292.718C1332.11 298.272 1318.41 303.239 1318.58 303.625C1319.79 306.383 1320.94 311.55 1317.44 311.36Z" fill="#D61516"/>
<path d="M1576.01 343.552C1549.31 319.261 1537.02 320.177 1537.43 319.661C1538.55 318.492 1561.45 322.834 1582.35 344.738C1597.72 360.844 1611.47 378.43 1609.74 379.831C1606.87 382.155 1597.9 363.462 1576.01 343.552Z" fill="#D9D6C7"/>
<path d="M1563.42 364.267C1543.07 342.781 1540.14 321.985 1539.62 322.386C1538.44 323.503 1538.25 344.686 1559.97 365.784C1575.93 381.296 1592.21 387.588 1593.62 385.869C1594.41 384.915 1567.27 368.335 1563.42 364.267Z" fill="#D9D6C7"/>
<path d="M1568.36 361.319C1548.02 339.833 1538.69 320.634 1538.17 321.035C1536.99 322.152 1543.2 341.738 1564.91 362.836C1580.88 378.348 1594.15 385.896 1595.57 384.176C1596.36 383.223 1572.21 365.387 1568.36 361.319Z" fill="#D9D6C7"/>
<path d="M1571.59 357.451C1551.25 335.965 1537.8 319.398 1537.43 319.661C1536.61 320.433 1547.51 336.851 1568.94 358.216C1584.69 373.924 1596.98 382.416 1597.9 381.166C1598.41 380.472 1575.44 361.519 1571.59 357.451Z" fill="#D9D6C7"/>
<path d="M1573.1 345.954C1553.06 324.181 1537.23 319.93 1537.43 319.661C1538.02 319.113 1558.65 326.891 1578.67 349.573C1593.39 366.25 1611.67 384.333 1605.95 382.913C1604.3 383.814 1593.14 367.727 1573.1 345.954Z" fill="#D9D6C7"/>
<path d="M1568.93 347.685C1547.74 324.664 1537.23 319.933 1537.43 319.661C1538.02 319.113 1553.55 327.618 1574.75 351.576C1590.33 369.191 1609.91 386.92 1604.01 385.292C1602.33 386.173 1590.11 370.706 1568.93 347.685Z" fill="#D9D6C7"/>
<path d="M1564.24 347.843C1543.05 324.822 1537.29 320.185 1537.48 319.914C1538.07 319.366 1548.87 327.776 1570.06 351.734C1585.64 369.35 1605.23 387.078 1599.32 385.45C1597.64 386.332 1585.42 370.865 1564.24 347.843Z" fill="#D9D6C7"/>
<circle cx="1278.59" cy="321.372" r="2.79723" transform="rotate(-1.92677 1278.59 321.372)" fill="#ECF6F8"/>
<circle cx="1306.31" cy="313.442" r="2.79723" transform="rotate(-1.92677 1306.31 313.442)" fill="#ECF6F8"/>
<circle cx="1335.09" cy="253.699" r="2.79723" transform="rotate(-1.92677 1335.09 253.699)" fill="#ECF6F8"/>
<circle cx="1290.03" cy="245.418" r="2.79723" transform="rotate(-1.92677 1290.03 245.418)" fill="#ECF6F8"/>
<circle cx="1378.91" cy="308.201" r="2.79723" transform="rotate(-1.92677 1378.91 308.201)" fill="#ECF6F8"/>
<circle cx="1385.03" cy="303.096" r="2.09792" transform="rotate(-1.92677 1385.03 303.096)" fill="#ECF6F8"/>
<path d="M1424.79 288.017C1425.44 290.794 1420.62 295.854 1418.13 298.037C1414.4 301.309 1424.08 296.017 1431.48 299.687C1438.88 303.357 1438.05 293.869 1438.84 289.643C1439.01 287.772 1440.86 283.278 1446.92 280.275C1452.98 277.273 1446.4 271.663 1442.35 269.234C1434.1 266.713 1416.75 261.139 1413.32 259.016C1409.03 256.361 1401.48 260.813 1405.7 261.371C1409.07 261.817 1413.34 266.479 1415.05 268.753C1408.32 269.913 1397.82 272.552 1409.62 273.834C1424.37 275.437 1423.97 284.546 1424.79 288.017Z" fill="#D61516"/>
<path d="M1376.35 294.448C1368.93 290.22 1337.16 287.37 1322.2 286.474C1334.73 263.662 1359.94 285.205 1365.53 285.017C1427.65 267.814 1467.61 289.745 1479.49 302.873C1461.33 283.193 1411.66 283.464 1410.43 288.404C1409.44 292.355 1406.91 294.819 1405.77 295.557C1399.05 296.95 1383.76 298.677 1376.35 294.448Z" fill="#A4A176"/>
<path d="M1336.7 279.89C1333.16 281.259 1330.76 282.826 1330.69 282.656C1330.52 282.226 1333.8 280.345 1337.14 278.715C1340.68 277.346 1341.33 276.216 1341.67 277.27C1341.99 278.262 1340.25 278.521 1336.7 279.89Z" fill="#D9D6C7"/>
<path d="M1344.89 283.778C1341.06 285.256 1338.58 287.226 1338.46 286.956C1338.2 286.278 1341.64 283.98 1345.18 282.072C1349.01 280.594 1349.56 278.992 1350.13 280.645C1350.66 282.199 1348.71 282.3 1344.89 283.778Z" fill="#D9D6C7"/>
<path d="M1340.06 281.893C1336.45 283.08 1334.04 284.726 1333.95 284.489C1333.76 283.895 1337.07 281.989 1340.45 280.422C1344.05 279.236 1344.67 277.861 1345.08 279.307C1345.46 280.668 1343.67 280.707 1340.06 281.893Z" fill="#D9D6C7"/>
<path d="M1350.99 285.528C1348.47 286.505 1346.91 288.023 1346.81 287.778C1346.57 287.163 1348.77 285.437 1351.06 284.06C1353.59 283.083 1353.84 281.727 1354.37 283.22C1354.87 284.624 1353.52 284.551 1350.99 285.528Z" fill="#D9D6C7"/>
<path d="M1390.64 291.558C1386.14 289.077 1382.3 288.186 1382.45 287.89C1382.85 287.168 1387.78 288.712 1392.43 290.623C1396.93 293.104 1398.83 292.479 1397.8 294.173C1396.83 295.766 1395.13 294.039 1390.64 291.558Z" fill="#D9D6C7"/>
<path d="M1398.47 289.784C1393.44 288.749 1389.57 288.807 1389.61 288.55C1389.74 287.917 1394.85 288.15 1399.83 288.718C1404.87 289.754 1406.44 288.903 1406.04 290.405C1405.67 291.818 1403.51 290.82 1398.47 289.784Z" fill="#D9D6C7"/>
<path d="M1398.31 286.919C1393.19 286.506 1389.34 287.037 1389.35 286.777C1389.41 286.133 1394.51 285.739 1399.53 285.695C1404.65 286.108 1406.1 285.072 1405.89 286.611C1405.7 288.058 1403.43 287.332 1398.31 286.919Z" fill="#D9D6C7"/>
<path d="M1399.72 283.524C1393.75 283.042 1389.26 283.796 1389.28 283.451C1389.35 282.597 1395.31 282.01 1401.16 281.886C1407.13 282.367 1408.84 280.974 1408.58 283.017C1408.33 284.939 1405.69 284.006 1399.72 283.524Z" fill="#D9D6C7"/>
<path d="M1505.35 316.947C1515.6 322.2 1523.09 317.516 1526.25 314.145C1527.57 312.001 1526.29 315.543 1516.92 307.461C1509.43 300.996 1508.2 304.49 1508.51 307.044C1510.27 310.717 1512.79 317.676 1508.82 316.13C1504.85 314.585 1504.85 316.031 1505.35 316.947Z" fill="#091120"/>
<path d="M980.796 590.672C950.762 585.246 959.68 557.035 960.433 551.139C961.186 545.244 976.741 545.092 995.474 548.477C1014.21 551.861 1029.02 557.501 1028.27 563.396C1027.86 576.17 998.581 593.886 980.796 590.672Z" fill="#BCBEA2"/>
<path d="M1001.1 556.137C989.683 553.522 983.387 553.519 983.46 552.949C983.704 551.548 993.161 552.532 1004.58 555.147C1016.01 557.761 1025.07 561.017 1024.82 562.417C1024.58 563.818 1012.53 558.752 1001.1 556.137Z" fill="#D9D6C7"/>
<path d="M987.155 574.38C977.957 566.702 970.068 562.467 970.391 562.008C971.243 560.911 981.359 567.104 990.898 573.811C1000.1 581.489 1004.07 581.583 1001.87 584.091C999.802 586.451 996.354 582.058 987.155 574.38Z" fill="#D9D6C7"/>
<path d="M985.121 577.41C977.882 571.368 971.673 568.034 971.927 567.673C972.598 566.81 980.559 571.684 988.067 576.962C995.306 583.005 998.434 583.079 996.703 585.053C995.074 586.91 992.361 583.453 985.121 577.41Z" fill="#D9D6C7"/>
<path d="M1007.41 570.105C999.667 566.137 993.564 564.081 993.669 563.802C993.972 563.133 1001.97 566.206 1009.72 569.602C1017.46 573.57 1020.07 573.436 1019.21 574.979C1018.41 576.43 1015.16 574.074 1007.41 570.105Z" fill="#D9D6C7"/>
<path d="M997.984 569.58C987.526 563.633 979.279 560.307 979.422 559.966C979.836 559.151 990.645 563.992 1001.1 569.211C1011.56 575.157 1015.09 575.292 1013.92 577.151C1012.83 578.899 1008.44 575.526 997.984 569.58Z" fill="#D9D6C7"/>
<path d="M993.182 571.16C979.877 564.345 977.564 563.304 977.641 562.695C978.193 561.859 986.518 564.703 996.444 570.989C1006.25 578.048 1009.86 578.441 1008.37 580.333C1006.97 582.112 1002.99 578.219 993.182 571.16Z" fill="#D9D6C7"/>
<path d="M980.029 578.982C972.789 572.939 970.322 570.5 970.576 570.139C971.247 569.275 975.466 573.255 982.974 578.534C990.214 584.576 993.341 584.65 991.61 586.624C989.982 588.481 987.268 585.024 980.029 578.982Z" fill="#D9D6C7"/>
<path d="M977.101 581.284C972.786 576.767 972.276 575.507 972.345 575.442C973.063 574.756 974.006 575.493 980.169 581.216C985.992 587.589 989.331 587.769 987.51 589.312C985.798 590.763 982.925 587.657 977.101 581.284Z" fill="#D9D6C7"/>
<path d="M970.274 579.842C967.264 576.041 967.053 574.968 967.128 574.911C967.915 574.308 968.623 574.924 973.067 579.727C977.074 585.094 980.063 585.188 978.106 586.546C976.266 587.824 974.281 585.209 970.274 579.842Z" fill="#D9D6C7"/>
<path d="M967.343 580.65C965.51 577.813 965.369 577.097 965.413 577.07C965.868 576.789 966.295 577.278 968.989 580.949C971.434 584.924 973.198 585.382 972.065 585.992C970.999 586.566 969.788 584.625 967.343 580.65Z" fill="#D9D6C7"/>
<path d="M1002.06 552.114C993.762 550.214 990.91 549.979 990.963 549.565C991.14 548.547 996.29 549.494 1004.59 551.394C1012.89 553.294 1019.47 555.659 1019.3 556.677C1019.12 557.695 1010.36 554.014 1002.06 552.114Z" fill="#D9D6C7"/>
<path d="M997.464 560.034C984.662 557.104 977.635 556.932 977.705 556.362C977.949 554.961 988.525 556.201 1001.33 559.131C1014.13 562.062 1024.31 565.573 1024.06 566.974C1023.82 568.375 1010.27 562.965 997.464 560.034Z" fill="#D9D6C7"/>
<path d="M1004.02 564.667C994.664 561.85 989.498 561.197 989.561 560.848C989.769 559.997 997.524 561.59 1006.88 564.407C1016.24 567.224 1023.66 570.197 1023.45 571.048C1023.24 571.899 1013.38 567.484 1004.02 564.667Z" fill="#D9D6C7"/>
<path d="M1027.78 734.442C1035.53 740.665 1043.04 748.377 1084.03 764.678C1093.18 780.192 1130.44 791.268 1160.84 792.895C1162.82 793.001 1170.68 791.135 1165.37 782.127C1159.46 772.117 1149.92 768.972 1137.08 762.385C1122.58 754.955 1103.3 759.377 1102.35 759.937C1100.21 760.492 1092.16 757.853 1086.13 751.967C1024.6 696.511 1010.62 630.534 983.454 584.491C948.846 522.593 917.926 477.414 901.146 487.316C884.367 497.218 890.602 572.484 927.067 624.514C951.823 663.21 973.045 690.496 1027.78 734.442Z" fill="#D5C6C2"/>
<path d="M1043.14 730.102C1054.15 723.604 1011.91 669.586 976.987 587.632C941.592 527.654 916.525 490.386 905.513 496.885C894.501 503.383 890.449 553.786 925.844 613.765C961.239 673.744 1032.13 736.6 1043.14 730.102Z" fill="#DBCDCA"/>
<path d="M902.066 619.024C925.919 604.948 907.652 583.422 904.792 578.576C901.933 573.73 888.468 578.467 873.59 587.246C858.713 596.026 848.057 605.523 850.917 610.369C856.064 621.25 887.941 627.36 902.066 619.024Z" fill="#BCBEA2"/>
<path d="M871.609 595.612C880.474 589.783 885.899 587.81 885.623 587.342C884.887 586.21 877.104 590.018 868.238 595.846C859.373 601.675 852.783 607.316 853.519 608.448C854.255 609.579 862.743 601.44 871.609 595.612Z" fill="#DDD6C6"/>
<path d="M890.475 606.971C895.524 597.474 900.736 591.355 900.286 591.06C899.139 590.381 892.743 598.885 887.035 607.652C881.985 617.148 878.595 618.473 881.432 619.946C884.1 621.333 885.425 616.468 890.475 606.971Z" fill="#DDD6C6"/>
<path d="M893.364 608.947C897.338 601.473 901.44 596.657 901.085 596.425C900.183 595.891 895.149 602.584 890.657 609.483C886.683 616.957 884.015 617.999 886.247 619.159C888.347 620.25 889.39 616.421 893.364 608.947Z" fill="#DDD6C6"/>
<path d="M871.41 609.626C876.598 603.781 881.087 600.099 880.892 599.892C880.38 599.41 874.637 604.562 869.235 609.912C864.048 615.757 861.751 616.456 863.067 617.519C864.304 618.518 866.222 615.47 871.41 609.626Z" fill="#DDD6C6"/>
<path d="M879.341 606.223C886.125 597.824 891.986 592.376 891.735 592.127C891.073 591.555 883.571 599.109 876.512 606.881C869.727 615.279 866.737 616.5 868.44 617.736C870.041 618.9 872.556 614.621 879.341 606.223Z" fill="#DDD6C6"/>
<path d="M884.072 606.082C892.985 596.044 894.589 594.423 894.293 593.922C893.504 593.374 887.395 598.431 881.197 606.955C875.387 616.11 872.431 617.576 874.422 618.741C876.294 619.838 878.262 615.237 884.072 606.082Z" fill="#DDD6C6"/>
<path d="M898.343 608.708C902.317 601.234 903.529 598.359 903.175 598.128C902.273 597.593 900.128 602.344 895.636 609.243C891.662 616.717 888.994 617.76 891.226 618.919C893.326 620.011 894.369 616.182 898.343 608.708Z" fill="#DDD6C6"/>
<path d="M901.73 609.776C903.756 604.532 903.723 603.287 903.639 603.252C902.763 602.885 902.226 603.815 899.06 610.677C896.43 617.993 893.62 619.193 895.768 619.953C897.788 620.668 899.1 617.092 901.73 609.776Z" fill="#DDD6C6"/>
<path d="M907.073 606.397C908.242 602.179 908.022 601.188 907.935 601.162C907.031 600.889 906.652 601.642 904.622 607.172C903.181 613.053 900.64 614.069 902.836 614.627C904.902 615.153 905.632 612.278 907.073 606.397Z" fill="#DDD6C6"/>
<path d="M909.903 606.176C910.419 603.156 910.272 602.495 910.225 602.486C909.727 602.386 909.543 602.941 908.597 606.948C907.98 611.139 906.631 612.086 907.837 612.257C908.971 612.418 909.286 610.367 909.903 606.176Z" fill="#DDD6C6"/>
<path d="M869.275 592.444C875.716 588.209 878.086 587.114 877.886 586.774C877.351 585.952 873.268 588.379 866.826 592.614C860.384 596.849 855.596 600.949 856.131 601.77C856.665 602.592 862.833 596.679 869.275 592.444Z" fill="#DDD6C6"/>
<path d="M876.209 597.832C886.145 591.3 892.137 588.953 891.863 588.483C891.128 587.352 882.477 591.73 872.541 598.262C862.605 604.795 855.147 611.007 855.883 612.138C856.619 613.269 866.273 604.364 876.209 597.832Z" fill="#DDD6C6"/>
<path d="M872.293 603.878C879.304 598.521 883.512 596.342 883.327 596.061C882.828 595.392 876.741 599.192 869.731 604.548C862.72 609.905 857.441 614.789 857.94 615.458C858.438 616.126 865.283 609.234 872.293 603.878Z" fill="#DDD6C6"/>
<path d="M1054.3 727.595C1054.3 727.596 1054.3 727.598 1054.31 727.599C1054.66 728.098 1059.41 735.503 1058.01 738.224C1056.46 741.252 1060.73 740.667 1065.77 738.366C1069.81 736.526 1059.82 730.425 1054.31 727.599C1054.28 727.566 1054.28 727.564 1054.3 727.595Z" fill="#091120"/>
<ellipse cx="6.7283" cy="1.69616" rx="6.7283" ry="1.69616" transform="matrix(0.548197 0.836349 0.833468 -0.552568 935.104 513.244)" fill="#3A3644"/>
<ellipse cx="5.73776" cy="1.75242" rx="5.73776" ry="1.75242" transform="matrix(0.139922 0.990162 0.994839 -0.10147 892.626 531.479)" fill="#3A3644"/>
<path d="M903.105 563.756C900.497 563.676 898.468 541.077 897.78 529.787C897.675 528.07 903.381 526.482 904.9 525.585C906.799 524.465 911.124 525.286 913.087 522.104C915.049 518.922 916.768 518.582 920.682 517.622C924.596 516.661 926.843 519.384 930.577 519.205C934.311 519.025 932.644 522.708 939.396 525.471C946.147 528.235 946.072 535.701 946.779 537.983C947.486 540.265 954.648 544.81 959.975 548.414C964.237 551.297 966.673 557.956 967.359 560.926L972.664 575.339C971.159 577.126 967.545 580.114 965.132 577.759C962.115 574.816 959.435 581.121 959.603 585.745C959.772 590.369 952.071 588.165 952.314 585.323C952.557 582.481 945.447 581.279 941.059 582.519C936.67 583.759 932.166 583.718 929.508 579.214C926.85 574.71 922.988 579.013 918.779 579.472C914.57 579.932 912.45 573.086 914.297 568.622C916.143 564.159 912.652 561.496 909.276 560.115C905.9 558.733 906.364 563.857 903.105 563.756Z" fill="#D61818"/>
<path d="M914.824 491.872C903.938 482.102 897.278 493.23 895.308 500.015C896.489 502.017 896.194 501.517 906.691 498.696C915.088 496.44 915.612 493.207 914.824 491.872Z" fill="#C4A9B2"/>
<path d="M905.909 503.881C894.483 503.606 894.213 513.707 895.507 518.791C896.446 523.635 916.553 516.493 916.795 513.651C916.99 511.377 928.105 512.207 926.522 510.61C924.412 508.481 917.336 504.155 905.909 503.881Z" fill="#CAADB1"/>
<path d="M937.208 611.298C931.798 613.411 924.532 607.533 921.575 604.33C919.862 602.642 936.882 596.646 937.999 600.71C938.894 603.961 942.753 604.427 944.571 604.254C951.08 609.86 943.97 608.657 937.208 611.298Z" fill="#E03311"/>
<path d="M977.176 592.065C977.691 595.54 980.703 596.956 982.144 597.23C984.98 602.035 982.608 602.355 981.068 601.914C978.663 599.285 974.205 595.708 975.614 602.433C977.375 610.841 971.267 612.421 971.626 610.86C971.985 609.298 967.596 610.539 965.17 608.597C962.744 606.655 964.781 596.006 965.614 594.165C966.448 592.324 976.533 587.721 977.176 592.065Z" fill="#091120" stroke="#091120"/>
<path d="M943.57 632.051C944.861 626.431 941.787 624.331 940.089 623.984C936.829 621.184 944.952 622.464 953.908 619.203C961.073 616.594 963.371 619.691 963.624 621.566C962.238 622.834 960.805 626.334 966.155 630.194C972.843 635.019 969.572 640.323 968.686 638.822C967.8 637.32 957.135 635.517 960.152 638.46C962.566 640.814 961.15 643.044 960.141 643.864C956.92 644.19 950.658 644.063 951.375 640.94C952.093 637.818 950.535 636.263 949.667 635.876C947.096 636.943 942.278 637.672 943.57 632.051Z" fill="#091120"/>
<path d="M987.452 614.52C986.127 613.142 989.122 609.035 990.786 607.154C995.638 611.038 1012.05 643.188 1009.91 647.151C1007.77 651.114 992.956 647.708 994.38 646.868C995.52 646.195 992.33 644.479 990.593 643.704C985.622 640.341 976.745 633.253 981.016 631.813C985.286 630.372 982.489 618.647 982.82 618.602C985.192 618.282 989.138 616.899 987.452 614.52Z" fill="#D61516"/>
<path d="M1123.88 782.319C1095.86 773.887 1091 764.875 1090.84 765.379C1090.57 766.667 1103.64 780.895 1127.49 786.263C1145.02 790.21 1162.82 792.401 1162.98 790.591C1163.25 787.586 1146.84 789.23 1123.88 782.319Z" fill="#D9D6C7"/>
<path d="M1132.03 764.686C1108.71 759.528 1093.59 766.295 1093.63 765.76C1093.84 764.458 1107.83 755.339 1131.51 761.622C1148.91 766.241 1160.34 774.993 1159.82 776.717C1159.54 777.674 1136.45 765.662 1132.03 764.686Z" fill="#D9D6C7"/>
<path d="M1132.28 769.407C1108.95 764.25 1092.05 765.854 1092.09 765.319C1092.3 764.017 1108.08 760.061 1131.75 766.343C1149.16 770.962 1160.08 777.078 1159.57 778.802C1159.28 779.758 1136.69 770.384 1132.28 769.407Z" fill="#D9D6C7"/>
<path d="M1131.14 773.317C1107.82 768.16 1090.83 765.753 1090.84 765.379C1090.99 764.479 1106.75 765.159 1130.47 771.13C1147.92 775.52 1159.02 780.535 1158.6 781.713C1158.37 782.366 1135.56 774.294 1131.14 773.317Z" fill="#D9D6C7"/>
<path d="M1124.18 779.255C1100.8 774.434 1090.93 765.128 1090.84 765.379C1090.74 766.029 1105.09 777.208 1129.06 781.631C1146.69 784.883 1166.83 790.035 1163.35 786.625C1163.21 785.082 1147.56 784.075 1124.18 779.255Z" fill="#D9D6C7"/>
<path d="M1123.47 775.591C1098.75 770.494 1090.94 765.129 1090.84 765.38C1090.74 766.03 1103.3 773.322 1128.65 778.028C1147.28 781.488 1167.77 787.704 1164.06 784.248C1163.9 782.701 1148.19 780.688 1123.47 775.591Z" fill="#D9D6C7"/>
<path d="M1121.49 772.233C1096.77 767.136 1091.13 765.06 1091.03 765.31C1090.93 765.96 1101.32 769.963 1126.67 774.669C1145.3 778.129 1165.79 784.346 1162.08 780.89C1161.92 779.343 1146.21 777.33 1121.49 772.233Z" fill="#D9D6C7"/>
<ellipse cx="2.32445" cy="2.20488" rx="2.32445" ry="2.20488" transform="matrix(0.50823 0.861222 0.861222 -0.50823 973.738 582.127)" fill="#ECF6F8"/>
<ellipse cx="2.32445" cy="2.20488" rx="2.32445" ry="2.20488" transform="matrix(0.50823 0.861222 0.861222 -0.50823 980.804 604.947)" fill="#ECF6F8"/>
<ellipse cx="2.32445" cy="2.20488" rx="2.32445" ry="2.20488" transform="matrix(0.50823 0.861222 0.861222 -0.50823 953.923 650.5)" fill="#ECF6F8"/>
<ellipse cx="2.32445" cy="2.20488" rx="2.32445" ry="2.20488" transform="matrix(0.50823 0.861222 0.861222 -0.50823 928.375 622.392)" fill="#ECF6F8"/>
<ellipse cx="2.32445" cy="2.20488" rx="2.32445" ry="2.20488" transform="matrix(0.50823 0.861222 0.861222 -0.50823 1009.62 658.116)" fill="#ECF6F8"/>
<ellipse cx="1.74334" cy="1.65366" rx="1.74334" ry="1.65366" transform="matrix(0.50823 0.861222 0.861222 -0.50823 1009.73 664.802)" fill="#ECF6F8"/>
<path d="M1019.71 699.764C1021.84 699.044 1023.06 693.513 1023.4 690.837C1023.91 686.827 1024.71 695.87 1030.44 699.506C1036.17 703.141 1029.49 706.584 1027.04 708.933C1025.87 709.847 1023.71 713.056 1024.41 718.58C1025.11 724.105 1018.46 721.869 1015.04 720.06C1009.7 715.341 998.276 705.529 995.339 704.023C991.668 702.141 991.268 694.955 993.515 697.677C995.312 699.855 1000.3 700.868 1002.58 701.102C1000.35 695.89 997.435 687.402 1003.54 695.137C1011.16 704.806 1017.04 700.664 1019.71 699.764Z" fill="#D61516"/>
<path d="M1002.43 663.037C996.316 659.625 980.289 638.539 973.039 628.423C963.459 646.897 988.988 655.448 991.35 659.452C1007.56 710.345 1039.91 729.085 1053.91 731.843C1032.76 727.456 1010.84 692.483 1013.57 689.521C1015.76 687.151 1016.27 684.33 1016.25 683.216C1014.19 677.911 1008.54 666.449 1002.43 663.037Z" fill="#A4A176"/>
<path d="M975.118 641.395C974.45 638.327 974.425 635.979 974.278 635.999C973.919 636.065 974.13 639.167 974.53 642.198C975.198 645.266 974.736 646.202 975.587 645.993C976.389 645.797 975.786 644.464 975.118 641.395Z" fill="#D9D6C7"/>
<path d="M981.341 645.488C980.621 642.175 980.825 639.598 980.596 639.633C980.029 639.737 980.033 643.127 980.341 646.421C981.062 649.734 980.244 650.803 981.594 650.499C982.863 650.213 982.062 648.801 981.341 645.488Z" fill="#D9D6C7"/>
<path d="M977.941 642.9C977.123 639.863 977.145 637.475 976.95 637.515C976.468 637.63 976.675 640.762 977.136 643.796C977.954 646.832 977.314 647.848 978.457 647.521C979.532 647.214 978.759 645.937 977.941 642.9Z" fill="#D9D6C7"/>
<path d="M985.222 649.032C984.745 646.843 985.062 645.106 984.854 645.139C984.34 645.234 984.169 647.506 984.276 649.701C984.752 651.89 983.963 652.643 985.19 652.38C986.344 652.133 985.698 651.221 985.222 649.032Z" fill="#D9D6C7"/>
<path d="M1006.86 674.292C1003.21 672.188 1000.92 669.876 1000.79 670.108C1000.49 670.694 1003.7 673.493 1007.04 675.946C1010.69 678.049 1011.12 679.655 1011.79 678.213C1012.42 676.856 1010.51 676.395 1006.86 674.292Z" fill="#D9D6C7"/>
<path d="M1009.17 680.547C1006.25 677.455 1004.56 674.709 1004.41 674.847C1004.05 675.207 1006.48 678.697 1009.07 681.954C1012 685.045 1012.13 686.511 1012.95 685.596C1013.73 684.735 1012.1 683.638 1009.17 680.547Z" fill="#D9D6C7"/>
<path d="M1007.19 681.644C1004.64 678.226 1003.29 675.305 1003.12 675.422C1002.71 675.732 1004.72 679.481 1006.92 683.02C1009.48 686.437 1009.44 687.901 1010.37 687.101C1011.24 686.348 1009.75 685.061 1007.19 681.644Z" fill="#D9D6C7"/>
<path d="M1005.57 684.076C1002.59 680.093 1001.1 676.623 1000.87 676.78C1000.34 677.191 1002.6 681.622 1005.12 685.782C1008.1 689.765 1007.93 691.56 1009.17 690.508C1010.34 689.518 1008.54 688.06 1005.57 684.076Z" fill="#D9D6C7"/>
<path d="M1074.77 744.02C1082.82 748.986 1083.04 756.232 1082.2 759.875C1081.37 761.716 1083.15 759.314 1073.62 756.17C1065.99 753.655 1067.76 751.305 1069.6 750.445C1072.82 750.118 1078.56 748.933 1075.77 746.803C1072.98 744.672 1073.94 744.06 1074.77 744.02Z" fill="#091120"/>
</g>
</g>
<defs>
<filter id="filter0_f_578_325" x="0" y="31.3926" width="1968" height="1072.61" filterUnits="userSpaceOnUse" color-interpolation-filters="sRGB">
<feFlood flood-opacity="0" result="BackgroundImageFix"/>
<feBlend mode="normal" in="SourceGraphic" in2="BackgroundImageFix" result="shape"/>
<feGaussianBlur stdDeviation="12" result="effect1_foregroundBlur_578_325"/>
</filter>
<radialGradient id="paint0_radial_578_325" cx="0" cy="0" r="1" gradientUnits="userSpaceOnUse" gradientTransform="translate(1705.34 831.532) rotate(90) scale(9.23711)">
<stop stop-color="#FE6A00"/>
<stop offset="1" stop-color="#F7DD26"/>
</radialGradient>
<radialGradient id="paint1_radial_578_325" cx="0" cy="0" r="1" gradientUnits="userSpaceOnUse" gradientTransform="translate(162.342 471.532) rotate(90) scale(9.23711)">
<stop stop-color="#FE6A00"/>
<stop offset="1" stop-color="#F7DD26"/>
</radialGradient>
<radialGradient id="paint2_radial_578_325" cx="0" cy="0" r="1" gradientUnits="userSpaceOnUse" gradientTransform="translate(213.718 305.849) rotate(90) scale(10.6098)">
<stop stop-color="#FE6A00"/>
<stop offset="1" stop-color="#F7DD26"/>
</radialGradient>
</defs>
</svg>
