<svg width="2212" height="1122" viewBox="0 0 2212 1122" fill="none" xmlns="http://www.w3.org/2000/svg">
<g filter="url(#filter0_f_595_16)">
<path d="M1870.59 905.041C1870.15 902.231 1872.02 899.746 1874.72 899.768C1903.66 900.004 1932.42 917.105 1947.66 946.288C1969.01 987.176 1955.72 1036.3 1917.98 1056C1880.24 1075.71 1832.34 1058.54 1810.99 1017.65C1795.75 988.467 1798.16 955.091 1814.5 931.208C1816.02 928.986 1819.13 928.873 1821.19 930.835L1873.98 981.176C1877.34 984.387 1882.44 981.726 1881.73 977.128L1870.59 905.041Z" fill="#6DA73B"/>
</g>
<g filter="url(#filter1_f_595_16)">
<path d="M255.781 447.245C258.021 445.494 261.102 445.912 262.398 448.272C276.324 473.643 275.445 507.094 257.418 534.642C232.162 573.24 182.807 585.632 147.181 562.32C111.556 539.008 103.151 488.82 128.407 450.222C146.434 422.674 176.735 408.476 205.559 411.079C208.24 411.321 209.857 413.978 209.149 416.731L190.994 487.379C189.836 491.885 194.647 495.033 198.312 492.168L255.781 447.245Z" fill="#6DA73B"/>
</g>
<g filter="url(#filter2_f_595_16)">
<path d="M2031.81 992.679C2031.6 990.844 2033.02 989.138 2034.93 989.054C2055.47 988.15 2075.26 998.365 2085.01 1017.04C2098.67 1043.2 2087.44 1076.05 2059.93 1090.41C2032.42 1104.78 1999.04 1095.22 1985.38 1069.06C1975.63 1050.39 1978.56 1028.31 1991.04 1011.97C1992.2 1010.45 1994.41 1010.26 1995.8 1011.48L2031.43 1042.72C2033.7 1044.71 2037.42 1042.77 2037.08 1039.77L2031.81 992.679Z" fill="#6DA73B"/>
</g>
<g filter="url(#filter3_f_595_16)">
<path d="M258.028 630.734C259.529 629.659 261.71 630.063 262.716 631.689C273.532 649.168 274.282 671.428 262.749 689.053C246.591 713.747 212.438 719.989 186.468 702.996C160.498 686.002 152.544 652.207 168.703 627.513C180.236 609.888 200.934 601.663 221.282 604.576C223.175 604.847 224.418 606.684 224.034 608.49L214.172 654.837C213.543 657.792 217.05 660.087 219.507 658.327L258.028 630.734Z" fill="#6DA73B"/>
</g>
<g filter="url(#filter4_f_595_16)">
<path d="M2170.93 819.211C2175.01 818.18 2178.79 820.47 2178.95 824.298C2180.71 865.456 2157.74 908.848 2116.1 934.803C2057.74 971.168 1984.81 959.529 1953.2 908.808C1921.59 858.086 1943.27 787.488 2001.63 751.123C2043.28 725.169 2092.35 723.667 2128.52 743.374C2131.89 745.207 2132.28 749.607 2129.55 752.819L2059.63 835.248C2055.18 840.505 2059.44 847.355 2066.13 845.668L2170.93 819.211Z" fill="#6DA73B"/>
</g>
<g filter="url(#filter5_f_595_16)">
<path d="M477.341 667.433C480.236 670.495 480.082 674.909 476.821 676.921C441.76 698.55 392.678 699.696 349.692 676.025C289.463 642.859 264.008 573.533 292.836 521.181C321.665 468.828 393.86 453.275 454.089 486.441C497.076 510.112 522.348 552.202 522.815 593.395C522.858 597.227 519.211 599.717 515.076 598.907L409 578.141C402.235 576.816 398.342 583.886 403.078 588.895L477.341 667.433Z" fill="#6DA73B"/>
</g>
<g filter="url(#filter6_f_595_16)">
<path d="M1721.94 911.858C1722.6 909.262 1725.15 907.784 1727.5 908.78C1752.79 919.486 1771.7 944.761 1774.3 975.612C1777.95 1018.84 1748.2 1056.64 1707.85 1060.04C1667.51 1063.45 1631.85 1031.17 1628.2 987.941C1625.59 957.091 1640 929.003 1663.13 914.212C1665.29 912.836 1668.05 913.865 1669.13 916.314L1696.86 979.149C1698.62 983.156 1704.07 982.696 1705.14 978.449L1721.94 911.858Z" fill="#537E25"/>
</g>
<g filter="url(#filter7_f_595_16)">
<path d="M177.248 320.855C179.833 320.159 182.371 321.667 182.65 324.205C185.653 351.497 172.831 380.343 147.18 397.68C111.239 421.97 63.7239 414.467 41.0516 380.921C18.3793 347.375 29.1354 300.489 65.0758 276.198C90.727 258.862 122.274 257.721 146.477 270.684C148.729 271.89 149.181 274.806 147.572 276.945L106.275 331.82C103.641 335.32 106.703 339.85 110.932 338.711L177.248 320.855Z" fill="#537E25"/>
</g>
<g filter="url(#filter8_f_595_16)">
<path d="M2092.12 566.181C2093.48 564.252 2096.33 563.815 2098.29 565.344C2119.32 581.785 2130.16 608.234 2123.91 634.308C2115.14 670.84 2076.13 692.799 2036.77 683.356C1997.4 673.912 1972.6 636.641 1981.36 600.109C1987.62 574.036 2009.28 555.386 2035.48 550.277C2037.92 549.802 2040.26 551.485 2040.6 553.819L2049.2 613.722C2049.74 617.543 2055.06 618.818 2057.28 615.662L2092.12 566.181Z" fill="#537E25"/>
</g>
<g filter="url(#filter9_f_595_16)">
<path d="M659.671 475.105C662.018 475.348 663.79 477.622 663.411 480.076C659.334 506.459 641.548 528.838 615.74 536.111C579.58 546.301 541.365 522.977 530.385 484.014C519.405 445.052 539.818 405.206 575.978 395.016C601.786 387.743 628.64 397.542 645.893 417.913C647.498 419.808 647.173 422.673 645.299 424.106L597.222 460.86C594.156 463.204 595.639 468.465 599.477 468.863L659.671 475.105Z" fill="#537E25"/>
</g>
<g filter="url(#filter10_f_595_16)">
<path d="M1873.36 819.684C1875.08 818.731 1877.26 819.398 1878.03 821.208C1886.3 840.667 1883.44 863.983 1868.69 881.081C1848.03 905.036 1811.87 907.711 1787.92 887.055C1763.97 866.399 1761.3 830.234 1781.96 806.278C1796.71 789.181 1819.35 782.924 1839.82 788.252C1841.72 788.748 1842.7 790.805 1842.01 792.647L1824.29 839.908C1823.16 842.922 1826.4 845.711 1829.21 844.151L1873.36 819.684Z" fill="#76B454"/>
</g>
<g filter="url(#filter11_f_595_16)">
<path d="M331.622 407.983C333.295 409.019 333.776 411.246 332.573 412.801C319.633 429.525 297.887 438.412 275.766 433.892C244.771 427.559 224.778 397.306 231.109 366.319C237.441 335.333 267.699 315.347 298.693 321.68C320.814 326.199 337.331 342.904 342.674 363.364C343.171 365.267 341.854 367.126 339.909 367.423L290.015 375.04C286.833 375.525 285.978 379.71 288.714 381.405L331.622 407.983Z" fill="#76B454"/>
</g>
<g filter="url(#filter12_f_595_16)">
<path d="M1911.06 762.12C1911.48 763.796 1910.52 765.368 1908.92 765.462C1891.79 766.465 1873.77 757.296 1863.04 740.31C1848.01 716.511 1853 686.378 1874.17 673.007C1895.35 659.636 1924.7 668.089 1939.73 691.889C1950.45 708.875 1950.98 729.087 1942.71 744.128C1941.94 745.528 1940.11 745.719 1938.78 744.618L1904.59 716.365C1902.41 714.564 1899.55 716.369 1900.24 719.112L1911.06 762.12Z" fill="#76B454"/>
</g>
<g filter="url(#filter13_f_595_16)">
<path d="M400.266 412.774C399.009 413.96 397.168 413.89 396.308 412.544C387.064 398.078 386.266 377.875 395.852 360.221C409.283 335.485 438.013 325.121 460.022 337.071C482.031 349.022 488.985 378.762 475.554 403.497C465.968 421.151 448.589 431.485 431.423 431.61C429.826 431.622 428.764 430.116 429.075 428.416L437.038 384.79C437.546 382.008 434.574 380.394 432.517 382.335L400.266 412.774Z" fill="#76B454"/>
</g>
<g filter="url(#filter14_f_595_16)">
<path d="M1721.2 660.902C1724.12 658.214 1729.33 658.527 1732.44 661.758C1765.87 696.491 1778.5 744.033 1760.63 784.756C1735.6 841.813 1660.17 863.876 1592.15 834.034C1524.14 804.192 1489.29 733.746 1514.33 676.689C1532.2 635.966 1575.73 613.069 1623.93 614.146C1628.41 614.246 1632.17 617.869 1632.17 621.84L1632.22 723.727C1632.22 730.225 1641.41 734.255 1646.19 729.857L1721.2 660.902Z" fill="#649238"/>
</g>
<g filter="url(#filter15_f_595_16)">
<path d="M395.888 197.663C399.661 198.902 401.932 203.602 400.631 207.893C386.642 254.023 351.322 288.263 307.06 292.556C245.043 298.57 188.956 243.517 181.786 169.59C174.616 95.6625 219.079 30.8569 281.096 24.8421C325.358 20.5494 366.599 47.3641 389.192 89.9459C391.294 93.9069 389.967 98.9557 386.503 100.897L297.613 150.692C291.944 153.867 292.912 163.85 299.086 165.878L395.888 197.663Z" fill="#649238"/>
</g>
<g filter="url(#filter16_f_595_16)">
<path d="M1844.13 503.742C1843.8 501.172 1845.77 498.718 1848.47 498.522C1877.53 496.41 1905.8 509.946 1920.04 535.768C1939.99 571.949 1924.86 618.549 1886.23 639.853C1847.6 661.157 1800.11 649.097 1780.16 612.917C1765.91 587.094 1769.55 555.964 1786.84 532.511C1788.45 530.33 1791.57 529.974 1793.57 531.627L1844.76 574.038C1848.02 576.743 1853.24 573.866 1852.69 569.662L1844.13 503.742Z" fill="#649238"/>
</g>
<g filter="url(#filter17_f_595_16)">
<path d="M593.066 228.201C595.145 226.656 598.248 227.175 599.739 229.438C615.773 253.768 617.764 285.046 602.184 310.084C580.354 345.164 532.295 354.709 494.841 331.402C457.388 308.095 444.722 260.763 466.552 225.683C482.133 200.645 511.073 188.616 539.984 192.253C542.673 192.591 544.509 195.146 544.041 197.694L532.025 263.073C531.259 267.243 536.316 270.39 539.719 267.861L593.066 228.201Z" fill="#649238"/>
</g>
<g filter="url(#filter18_f_595_16)">
<ellipse cx="322.495" cy="821.573" rx="18.216" ry="20.9678" fill="#E3F4F4"/>
<ellipse cx="358.075" cy="786.803" rx="11.9911" ry="13.8025" fill="#E3F4F4"/>
<ellipse cx="290.453" cy="818.028" rx="8.45275" ry="9.72966" fill="#E3F4F4"/>
<ellipse cx="326.098" cy="786.652" rx="10.2875" ry="11.8415" fill="#E3F4F4"/>
<ellipse cx="349.95" cy="837.186" rx="8.19065" ry="9.42797" fill="#E3F4F4"/>
<ellipse cx="298.25" cy="844.954" rx="6.68357" ry="7.69322" fill="#E3F4F4"/>
<ellipse cx="307.687" cy="794.873" rx="3.40731" ry="3.92204" fill="#E3F4F4"/>
<ellipse cx="311.093" cy="846.463" rx="3.40731" ry="3.92204" fill="#E3F4F4"/>
<ellipse cx="341.235" cy="800.605" rx="3.40731" ry="3.92204" fill="#E3F4F4"/>
<ellipse cx="294.187" cy="794.873" rx="2.62101" ry="3.01695" fill="#E3F4F4"/>
<ellipse cx="348.705" cy="821.573" rx="2.62101" ry="3.01695" fill="#E3F4F4"/>
<ellipse cx="315.81" cy="858.983" rx="2.62101" ry="3.01695" fill="#E3F4F4"/>
<ellipse cx="4.97932" cy="2.94353" rx="4.97932" ry="2.94353" transform="matrix(0.740698 0.671838 -0.564892 0.825165 328.18 803.17)" fill="#F8FCFC"/>
<ellipse cx="3.27775" cy="1.93765" rx="3.27775" ry="1.93765" transform="matrix(0.740698 0.671838 -0.564892 0.825165 361.816 774.688)" fill="#F8FCFC"/>
<ellipse cx="2.31055" cy="1.36588" rx="2.31055" ry="1.36588" transform="matrix(0.740698 0.671838 -0.564892 0.825165 293.09 809.488)" fill="#F8FCFC"/>
<ellipse cx="2.47861" cy="1.0897" rx="2.47861" ry="1.0897" transform="matrix(0.740698 0.671838 -0.564892 0.825165 330.406 776.922)" fill="#F8FCFC"/>
<ellipse cx="1.97341" cy="0.867598" rx="1.97341" ry="0.867598" transform="matrix(0.740698 0.671838 -0.564892 0.825165 353.381 829.439)" fill="#F8FCFC"/>
<ellipse cx="1.61031" cy="0.70796" rx="1.61031" ry="0.70796" transform="matrix(0.740698 0.671838 -0.564892 0.825165 301.049 838.633)" fill="#F8FCFC"/>
<ellipse cx="2.07841" cy="1.00104" rx="2.07841" ry="1.00104" transform="matrix(0.556974 0.83053 -0.747537 0.66422 335.562 812.091)" fill="#F8FCFC"/>
<ellipse cx="1.36816" cy="0.658956" rx="1.36816" ry="0.658956" transform="matrix(0.556974 0.83053 -0.747537 0.66422 366.678 780.561)" fill="#F8FCFC"/>
<ellipse cx="0.964441" cy="0.46451" rx="0.964441" ry="0.46451" transform="matrix(0.556974 0.83053 -0.747537 0.66422 296.516 813.628)" fill="#F8FCFC"/>
</g>
<g filter="url(#filter19_f_595_16)">
<ellipse cx="1662.46" cy="534.295" rx="18.2024" ry="16.9627" fill="#E3F4F4"/>
<ellipse cx="1698.02" cy="506.166" rx="11.9821" ry="11.1661" fill="#E3F4F4"/>
<ellipse cx="1630.45" cy="531.427" rx="8.44643" ry="7.87119" fill="#E3F4F4"/>
<ellipse cx="1666.06" cy="506.044" rx="10.2798" ry="9.57967" fill="#E3F4F4"/>
<ellipse cx="1689.9" cy="546.925" rx="8.18452" ry="7.62712" fill="#E3F4F4"/>
<ellipse cx="1638.24" cy="553.21" rx="6.67857" ry="6.22373" fill="#E3F4F4"/>
<ellipse cx="1647.67" cy="512.695" rx="3.40476" ry="3.17288" fill="#E3F4F4"/>
<ellipse cx="1651.07" cy="554.431" rx="3.40476" ry="3.17288" fill="#E3F4F4"/>
<ellipse cx="1681.19" cy="517.332" rx="3.40476" ry="3.17288" fill="#E3F4F4"/>
<ellipse cx="1634.18" cy="512.695" rx="2.61905" ry="2.44068" fill="#E3F4F4"/>
<ellipse cx="1688.65" cy="534.295" rx="2.61905" ry="2.44068" fill="#E3F4F4"/>
<ellipse cx="1655.79" cy="564.559" rx="2.61905" ry="2.44068" fill="#E3F4F4"/>
<ellipse cx="4.57235" cy="2.57327" rx="4.57235" ry="2.57327" transform="matrix(0.806022 0.591886 -0.645688 0.763601 1668.14 519.407)" fill="#F8FCFC"/>
<ellipse cx="3.00985" cy="1.69391" rx="3.00985" ry="1.69391" transform="matrix(0.806022 0.591886 -0.645688 0.763601 1701.76 496.365)" fill="#F8FCFC"/>
<ellipse cx="2.1217" cy="1.19407" rx="2.1217" ry="1.19407" transform="matrix(0.806022 0.591886 -0.645688 0.763601 1633.08 524.519)" fill="#F8FCFC"/>
<ellipse cx="2.27602" cy="0.952632" rx="2.27602" ry="0.952632" transform="matrix(0.806022 0.591886 -0.645688 0.763601 1670.37 498.173)" fill="#F8FCFC"/>
<ellipse cx="1.81212" cy="0.758465" rx="1.81212" ry="0.758465" transform="matrix(0.806022 0.591886 -0.645688 0.763601 1693.33 540.659)" fill="#F8FCFC"/>
<ellipse cx="1.47869" cy="0.618907" rx="1.47869" ry="0.618907" transform="matrix(0.806022 0.591886 -0.645688 0.763601 1641.04 548.096)" fill="#F8FCFC"/>
<ellipse cx="1.81333" cy="0.921126" rx="1.81333" ry="0.921126" transform="matrix(0.637915 0.770107 -0.81178 0.583963 1675.52 526.624)" fill="#F8FCFC"/>
<ellipse cx="1.19367" cy="0.606353" rx="1.19367" ry="0.606353" transform="matrix(0.637915 0.770107 -0.81178 0.583963 1706.61 501.117)" fill="#F8FCFC"/>
<ellipse cx="0.841439" cy="0.427429" rx="0.841439" ry="0.427429" transform="matrix(0.637915 0.770107 -0.81178 0.583963 1636.51 527.868)" fill="#F8FCFC"/>
</g>
<g filter="url(#filter20_f_595_16)">
<path d="M1901.18 800.125H1901.11C1897.5 800.125 1887.85 796.343 1887.54 784.448C1887.54 774.612 1889.02 765.22 1900.28 745.033C1900.65 744.369 1901.6 744.345 1901.99 744.999C1911.39 760.76 1915.33 775.851 1914.69 784.448C1913.9 794.913 1907.25 799.491 1901.18 800.125Z" fill="#F5F5F5"/>
<path d="M1901.12 800.363L1901.18 800.363C1904.79 800.363 1914.44 804.145 1914.75 816.04C1914.75 825.875 1913.27 835.268 1902.02 855.454C1901.65 856.119 1900.69 856.142 1900.31 855.489C1890.91 839.727 1886.96 824.637 1887.61 816.04C1888.39 805.575 1895.05 800.997 1901.12 800.363Z" fill="#F5F5F5"/>
<path d="M1900.91 800.159L1900.88 800.215C1899.08 803.338 1890.98 809.809 1880.52 804.129C1872 799.211 1864.61 793.233 1852.76 773.39C1852.37 772.737 1852.82 771.902 1853.58 771.892C1871.93 771.633 1886.97 775.764 1894.09 780.621C1902.76 786.533 1903.4 794.586 1900.91 800.159Z" fill="#F5F5F5"/>
<path d="M1901.09 800.328L1901.12 800.273C1902.93 797.149 1911.03 790.678 1921.49 796.358C1930 801.276 1937.4 807.255 1949.25 827.097C1949.64 827.75 1949.19 828.585 1948.43 828.596C1930.08 828.854 1915.04 824.723 1907.91 819.866C1899.24 813.954 1898.61 805.902 1901.09 800.328Z" fill="#F5F5F5"/>
<path d="M1900.89 800.279L1900.92 800.334C1902.72 803.458 1904.27 813.71 1894.13 819.925C1885.61 824.843 1876.73 828.257 1853.62 828.601C1852.86 828.613 1852.37 827.801 1852.74 827.137C1861.69 811.117 1872.79 800.157 1880.55 796.417C1890.01 791.865 1897.3 795.339 1900.89 800.279Z" fill="#F5F5F5"/>
<path d="M1901.12 800.209L1901.09 800.154C1899.28 797.03 1897.73 786.778 1907.88 780.563C1916.4 775.645 1925.27 772.231 1948.38 771.887C1949.14 771.876 1949.64 772.687 1949.27 773.351C1940.32 789.371 1929.22 800.331 1921.45 804.071C1912 808.624 1904.7 805.149 1901.12 800.209Z" fill="#F5F5F5"/>
</g>
<g filter="url(#filter21_f_595_16)">
<path d="M1901.18 800.229L1901.13 800.203C1898.53 798.699 1893.13 791.943 1897.87 783.224C1901.95 776.156 1906.9 770.016 1923.26 760.216C1923.91 759.825 1924.74 760.283 1924.75 761.043C1924.92 776.215 1921.49 788.639 1917.47 794.541C1912.54 801.771 1905.82 802.302 1901.18 800.229Z" fill="#FAFAFA"/>
<path d="M1901.04 800.378L1901.08 800.405C1903.69 801.908 1909.08 808.664 1904.35 817.383C1900.26 824.451 1895.31 830.591 1878.95 840.391C1878.3 840.782 1877.47 840.325 1877.46 839.564C1877.29 824.392 1880.72 811.968 1884.74 806.066C1889.67 798.836 1896.39 798.305 1901.04 800.378Z" fill="#FAFAFA"/>
<path d="M1900.97 800.146L1900.93 800.172C1898.32 801.676 1889.77 802.971 1884.59 794.51C1880.51 787.442 1877.67 780.079 1877.36 761.015C1877.35 760.255 1878.16 759.764 1878.82 760.137C1892.05 767.577 1901.09 776.756 1904.19 783.193C1907.99 791.077 1905.09 797.158 1900.97 800.146Z" fill="#FAFAFA"/>
<path d="M1901.03 800.342L1901.08 800.315C1903.68 798.811 1912.23 797.517 1917.41 805.977C1921.49 813.046 1924.33 820.408 1924.64 839.472C1924.65 840.233 1923.84 840.723 1923.18 840.35C1909.96 832.911 1900.91 823.731 1897.81 817.294C1894.02 809.41 1896.91 803.33 1901.03 800.342Z" fill="#FAFAFA"/>
<path d="M1900.9 800.22V800.273C1900.9 803.281 1897.75 811.331 1887.83 811.589C1879.67 811.589 1871.87 810.366 1855.21 801.103C1854.54 800.733 1854.52 799.785 1855.18 799.397C1868.23 791.665 1880.71 788.421 1887.83 788.955C1896.56 789.609 1900.37 795.159 1900.9 800.22Z" fill="#FAFAFA"/>
<path d="M1901.1 800.267L1901.1 800.214C1901.1 797.207 1904.25 789.156 1914.17 788.898C1922.33 788.898 1930.13 790.121 1946.8 799.385C1947.46 799.754 1947.48 800.702 1946.82 801.09C1933.77 808.823 1921.3 812.067 1914.17 811.532C1905.45 810.878 1901.63 805.329 1901.1 800.267Z" fill="#FAFAFA"/>
</g>
<g filter="url(#filter22_f_595_16)">
<path d="M1901.11 800.297L1901.1 800.265C1900.04 798.44 1899.13 792.449 1905.06 788.818C1909.95 785.995 1915.04 784.02 1928.03 783.761C1928.79 783.746 1929.28 784.557 1928.9 785.217C1923.73 794.244 1917.43 800.417 1912.99 802.554C1907.47 805.214 1903.21 803.184 1901.11 800.297Z" fill="white"/>
<path d="M1900.98 800.338L1901 800.371C1902.05 802.196 1902.96 808.186 1897.03 811.818C1892.14 814.641 1887.05 816.616 1874.07 816.875C1873.31 816.89 1872.81 816.079 1873.19 815.419C1878.36 806.392 1884.66 800.219 1889.1 798.082C1894.62 795.422 1898.88 797.452 1900.98 800.338Z" fill="white"/>
<path d="M1901.02 800.175L1900.98 800.175C1898.87 800.175 1893.23 797.966 1893.05 791.015C1893.05 785.369 1893.89 779.973 1900.15 768.601C1900.52 767.935 1901.47 767.915 1901.85 768.572C1907.09 777.561 1909.28 786.103 1908.91 791.015C1908.45 797.13 1904.57 799.805 1901.02 800.175Z" fill="white"/>
<path d="M1900.99 800.315L1901.02 800.315C1903.13 800.315 1908.77 802.524 1908.95 809.475C1908.95 815.121 1908.12 820.517 1901.85 831.889C1901.48 832.555 1900.54 832.575 1900.15 831.918C1894.92 822.929 1892.72 814.387 1893.09 809.475C1893.55 803.36 1897.44 800.685 1900.99 800.315Z" fill="white"/>
<path d="M1900.95 800.196L1900.93 800.228C1899.88 802.054 1895.14 805.834 1889.03 802.516C1884.14 799.693 1879.89 796.271 1873.17 785.158C1872.78 784.507 1873.24 783.676 1874 783.673C1884.4 783.634 1892.89 786.004 1896.96 788.78C1902.03 792.234 1902.4 796.939 1900.95 800.196Z" fill="white"/>
<path d="M1901.05 800.295L1901.07 800.262C1902.13 798.437 1906.86 794.656 1912.97 797.975C1917.86 800.798 1922.11 804.219 1928.83 815.333C1929.22 815.984 1928.77 816.815 1928.01 816.818C1917.6 816.856 1909.11 814.486 1905.04 811.711C1899.97 808.256 1899.6 803.551 1901.05 800.295Z" fill="white"/>
</g>
<g filter="url(#filter23_f_595_16)">
<path d="M1901.07 800.338V800.304C1901.07 798.351 1903.11 793.126 1909.55 792.959C1914.76 792.959 1919.74 793.727 1930.2 799.476C1930.87 799.843 1930.89 800.791 1930.23 801.172C1921.95 805.975 1914.08 807.99 1909.55 807.65C1903.89 807.225 1901.41 803.623 1901.07 800.338Z" fill="white"/>
<path d="M1900.94 800.308V800.342C1900.94 802.294 1898.89 807.52 1892.45 807.687C1887.24 807.687 1882.26 806.919 1871.8 801.17C1871.13 800.803 1871.11 799.855 1871.77 799.474C1880.06 794.671 1887.92 792.656 1892.45 792.996C1898.12 793.421 1900.59 797.023 1900.94 800.308Z" fill="white"/>
<path d="M1901.05 800.196L1901.02 800.179C1899.33 799.202 1895.83 794.817 1898.9 789.159C1901.51 784.645 1904.66 780.715 1914.87 774.533C1915.52 774.138 1916.35 774.595 1916.35 775.355C1916.37 784.933 1914.18 792.75 1911.62 796.504C1908.42 801.196 1904.06 801.541 1901.05 800.196Z" fill="white"/>
<path d="M1900.96 800.294L1900.99 800.311C1902.68 801.287 1906.18 805.672 1903.11 811.331C1900.5 815.844 1897.34 819.775 1887.14 825.957C1886.49 826.351 1885.65 825.895 1885.65 825.134C1885.64 815.557 1887.82 807.74 1890.38 803.986C1893.58 799.293 1897.94 798.948 1900.96 800.294Z" fill="white"/>
<path d="M1900.98 800.181L1900.95 800.198C1899.26 801.174 1893.71 802.014 1890.35 796.523C1887.74 792.009 1885.92 787.311 1885.67 775.379C1885.65 774.619 1886.46 774.127 1887.12 774.506C1895.42 779.281 1901.1 785.083 1903.07 789.177C1905.53 794.294 1903.65 798.241 1900.98 800.181Z" fill="white"/>
<path d="M1901.02 800.309L1901.05 800.292C1902.74 799.316 1908.29 798.475 1911.65 803.967C1914.26 808.48 1916.09 813.178 1916.34 825.11C1916.35 825.871 1915.54 826.363 1914.88 825.984C1906.58 821.209 1900.9 815.406 1898.93 811.312C1896.47 806.195 1898.35 802.249 1901.02 800.309Z" fill="white"/>
</g>
<g filter="url(#filter24_f_595_16)">
<circle cx="1900.34" cy="800.532" r="9.23711" fill="url(#paint0_radial_595_16)"/>
</g>
<g filter="url(#filter25_f_595_16)">
<path d="M358.176 440.125H358.112C354.505 440.125 344.85 436.343 344.541 424.448C344.541 414.612 346.022 405.22 357.279 385.033C357.65 384.369 358.6 384.345 358.99 384.999C368.388 400.76 372.331 415.851 371.686 424.448C370.901 434.913 364.246 439.491 358.176 440.125Z" fill="#F5F5F5"/>
<path d="M358.119 440.363L358.183 440.363C361.79 440.363 371.445 444.145 371.754 456.04C371.754 465.876 370.273 475.268 359.016 495.455C358.645 496.119 357.695 496.143 357.305 495.489C347.907 479.728 343.964 464.637 344.609 456.04C345.394 445.575 352.049 440.997 358.119 440.363Z" fill="#F5F5F5"/>
<path d="M357.915 440.16L357.883 440.215C356.079 443.339 347.977 449.809 337.521 444.129C329.003 439.212 321.609 433.233 309.756 413.391C309.366 412.737 309.821 411.903 310.581 411.892C328.93 411.633 343.971 415.765 351.093 420.621C359.764 426.534 360.401 434.586 357.915 440.16Z" fill="#F5F5F5"/>
<path d="M358.093 440.328L358.125 440.273C359.928 437.149 368.031 430.678 378.487 436.358C387.005 441.276 394.398 447.255 406.252 467.097C406.642 467.75 406.187 468.585 405.427 468.596C387.078 468.854 372.037 464.723 364.914 459.866C356.244 453.954 355.607 445.902 358.093 440.328Z" fill="#F5F5F5"/>
<path d="M357.885 440.279L357.917 440.334C359.721 443.458 361.273 453.71 351.126 459.925C342.609 464.843 333.734 468.257 310.623 468.601C309.863 468.613 309.367 467.801 309.738 467.137C318.689 451.117 329.787 440.157 337.554 436.417C347.009 431.865 354.302 435.339 357.885 440.279Z" fill="#F5F5F5"/>
<path d="M358.12 440.209L358.089 440.154C356.285 437.03 354.732 426.778 364.879 420.563C373.397 415.645 382.272 412.231 405.383 411.887C406.143 411.876 406.639 412.687 406.268 413.351C397.317 429.371 386.219 440.331 378.452 444.071C368.997 448.624 361.704 445.149 358.12 440.209Z" fill="#F5F5F5"/>
</g>
<g filter="url(#filter26_f_595_16)">
<path d="M358.176 440.23L358.13 440.203C355.525 438.699 350.13 431.943 354.866 423.225C358.947 416.157 363.904 410.017 380.258 400.216C380.911 399.825 381.741 400.283 381.75 401.044C381.919 416.216 378.492 428.639 374.467 434.542C369.538 441.771 362.823 442.303 358.176 440.23Z" fill="#FAFAFA"/>
<path d="M358.035 440.379L358.081 440.405C360.686 441.909 366.081 448.665 361.345 457.383C357.264 464.451 352.307 470.591 335.953 480.392C335.3 480.783 334.47 480.325 334.461 479.564C334.292 464.392 337.719 451.969 341.744 446.066C346.673 438.837 353.388 438.306 358.035 440.379Z" fill="#FAFAFA"/>
<path d="M357.973 440.146L357.927 440.173C355.322 441.676 346.774 442.971 341.591 434.51C337.51 427.442 334.672 420.079 334.362 401.016C334.349 400.255 335.161 399.765 335.824 400.138C349.048 407.577 358.093 416.757 361.193 423.193C364.989 431.077 362.092 437.158 357.973 440.146Z" fill="#FAFAFA"/>
<path d="M358.031 440.342L358.077 440.315C360.682 438.812 369.23 437.517 374.413 445.978C378.494 453.046 381.332 460.409 381.642 479.473C381.655 480.233 380.843 480.723 380.18 480.35C366.956 472.911 357.911 463.732 354.811 457.295C351.015 449.411 353.912 443.33 358.031 440.342Z" fill="#FAFAFA"/>
<path d="M357.902 440.22V440.273C357.902 443.281 354.749 451.332 344.831 451.589C336.669 451.589 328.874 450.367 312.209 441.103C311.544 440.733 311.525 439.786 312.18 439.398C325.234 431.665 337.707 428.421 344.831 428.956C353.557 429.61 357.374 435.159 357.902 440.22Z" fill="#FAFAFA"/>
<path d="M358.102 440.268L358.102 440.215C358.102 437.207 361.255 429.157 371.173 428.899C379.335 428.899 387.13 430.122 403.795 439.385C404.46 439.755 404.479 440.703 403.824 441.09C390.77 448.823 378.297 452.067 371.173 451.533C362.447 450.878 358.63 445.329 358.102 440.268Z" fill="#FAFAFA"/>
</g>
<g filter="url(#filter27_f_595_16)">
<path d="M358.112 440.298L358.093 440.266C357.04 438.44 356.132 432.45 362.061 428.818C366.951 425.995 372.042 424.021 385.024 423.761C385.784 423.746 386.276 424.557 385.898 425.218C380.731 434.245 374.43 440.417 369.992 442.554C364.467 445.214 360.206 443.184 358.112 440.298Z" fill="white"/>
<path d="M357.976 440.339L357.995 440.371C359.048 442.196 359.956 448.187 354.027 451.818C349.137 454.641 344.046 456.616 331.064 456.875C330.304 456.891 329.812 456.079 330.19 455.419C335.357 446.392 341.657 440.22 346.096 438.082C351.621 435.422 355.882 437.452 357.976 440.339Z" fill="white"/>
<path d="M358.018 440.176L357.981 440.176C355.873 440.176 350.231 437.966 350.051 431.016C350.051 425.37 350.886 419.974 357.152 408.601C357.52 407.935 358.468 407.915 358.851 408.572C364.085 417.561 366.28 426.103 365.912 431.016C365.453 437.131 361.564 439.806 358.018 440.176Z" fill="white"/>
<path d="M357.984 440.315L358.021 440.315C360.129 440.315 365.771 442.525 365.951 449.475C365.951 455.121 365.116 460.517 358.849 471.89C358.482 472.556 357.534 472.576 357.151 471.918C351.917 462.93 349.722 454.388 350.09 449.475C350.549 443.36 354.438 440.685 357.984 440.315Z" fill="white"/>
<path d="M357.949 440.196L357.93 440.229C356.876 442.054 352.142 445.835 346.033 442.516C341.143 439.693 336.887 436.272 330.172 425.158C329.778 424.507 330.235 423.676 330.996 423.673C341.397 423.635 349.893 426.005 353.963 428.78C359.029 432.235 359.401 436.94 357.949 440.196Z" fill="white"/>
<path d="M358.053 440.295L358.072 440.263C359.126 438.437 363.86 434.656 369.969 437.975C374.859 440.798 379.115 444.22 385.83 455.333C386.224 455.984 385.767 456.815 385.006 456.818C374.605 456.856 366.109 454.487 362.039 451.711C356.973 448.257 356.601 443.552 358.053 440.295Z" fill="white"/>
</g>
<g filter="url(#filter28_f_595_16)">
<path d="M358.068 440.338V440.304C358.068 438.352 360.114 433.126 366.552 432.959C371.763 432.959 376.745 433.727 387.203 439.476C387.87 439.843 387.891 440.791 387.232 441.172C378.946 445.975 371.083 447.99 366.552 447.65C360.888 447.225 358.411 443.623 358.068 440.338Z" fill="white"/>
<path d="M357.936 440.308V440.342C357.936 442.295 355.89 447.52 349.452 447.687C344.241 447.687 339.259 446.919 328.801 441.17C328.134 440.803 328.113 439.855 328.771 439.474C337.058 434.671 344.921 432.656 349.452 432.996C355.116 433.421 357.593 437.023 357.936 440.308Z" fill="white"/>
<path d="M358.048 440.196L358.019 440.179C356.328 439.202 352.826 434.817 355.9 429.159C358.506 424.645 361.662 420.715 371.87 414.533C372.521 414.138 373.352 414.595 373.353 415.355C373.37 424.933 371.182 432.75 368.623 436.504C365.423 441.196 361.065 441.541 358.048 440.196Z" fill="white"/>
<path d="M357.957 440.294L357.987 440.311C359.678 441.287 363.18 445.672 360.106 451.331C357.5 455.844 354.344 459.775 344.136 465.957C343.485 466.351 342.654 465.895 342.653 465.134C342.636 455.557 344.823 447.74 347.383 443.986C350.583 439.293 354.941 438.948 357.957 440.294Z" fill="white"/>
<path d="M357.983 440.181L357.953 440.198C356.262 441.174 350.714 442.014 347.35 436.523C344.744 432.01 342.919 427.311 342.669 415.379C342.653 414.619 343.463 414.127 344.123 414.506C352.425 419.281 358.102 425.084 360.073 429.177C362.537 434.295 360.656 438.241 357.983 440.181Z" fill="white"/>
<path d="M358.021 440.309L358.051 440.292C359.742 439.316 365.29 438.476 368.654 443.967C371.26 448.48 373.085 453.179 373.335 465.111C373.351 465.871 372.541 466.363 371.881 465.984C363.579 461.209 357.902 455.406 355.931 451.313C353.467 446.195 355.348 442.249 358.021 440.309Z" fill="white"/>
</g>
<g filter="url(#filter29_f_595_16)">
<circle cx="357.343" cy="440.532" r="9.23711" fill="url(#paint1_radial_595_16)"/>
</g>
<g filter="url(#filter30_f_595_16)">
<path d="M409.764 274.653L409.694 274.634C405.701 273.528 396.172 266.383 399.475 253.121C402.499 242.199 407.036 232.228 425.832 213.217C426.366 212.676 427.291 212.906 427.494 213.639C433.135 234.066 432.886 252.085 429.524 261.44C425.448 272.784 416.678 275.812 409.764 274.653Z" fill="#F5F5F5"/>
<path d="M409.629 274.9L409.699 274.919C413.692 276.025 423.221 283.17 419.917 296.432C416.893 307.354 412.357 317.325 393.561 336.336C393.026 336.877 392.101 336.647 391.899 335.914C386.257 315.487 386.507 297.468 389.869 288.113C393.945 276.769 402.715 273.741 409.629 274.9Z" fill="#F5F5F5"/>
<path d="M409.465 274.612L409.413 274.663C406.459 277.568 395.507 282.248 385.673 272.756C377.727 264.676 371.359 255.761 364.293 229.979C364.092 229.245 364.754 228.559 365.49 228.75C386.001 234.078 401.481 243.304 407.902 250.893C415.688 260.095 413.925 269.204 409.465 274.612Z" fill="#F5F5F5"/>
<path d="M409.611 274.853L409.663 274.802C412.617 271.896 423.57 267.217 433.403 276.709C441.35 284.789 447.717 293.703 454.783 319.486C454.984 320.22 454.323 320.906 453.586 320.714C433.075 315.386 417.595 306.161 411.174 298.572C403.388 289.37 405.151 280.261 409.611 274.853Z" fill="#F5F5F5"/>
<path d="M409.396 274.735L409.414 274.806C410.454 278.817 409.03 290.642 395.893 294.412C384.922 297.254 374.019 298.311 348.157 291.539C347.421 291.346 347.158 290.43 347.691 289.888C362.561 274.789 378.291 265.996 388.074 264.229C399.936 262.088 406.943 268.169 409.396 274.735Z" fill="#F5F5F5"/>
<path d="M409.678 274.73L409.66 274.659C408.621 270.648 410.044 258.824 423.181 255.054C434.152 252.212 445.056 251.155 470.917 257.927C471.653 258.119 471.917 259.035 471.383 259.577C456.513 274.677 440.784 283.47 431.001 285.236C419.139 287.378 412.131 281.297 409.678 274.73Z" fill="#F5F5F5"/>
</g>
<g filter="url(#filter31_f_595_16)">
<path d="M409.732 274.77L409.69 274.726C407.267 272.263 403.365 263.131 411.28 254.932C417.989 248.333 425.388 243.041 446.68 237.179C447.413 236.977 448.095 237.637 447.902 238.373C443.449 255.341 435.804 268.141 429.51 273.467C421.837 279.959 414.242 278.489 409.732 274.77Z" fill="#FAFAFA"/>
<path d="M409.531 274.891L409.574 274.935C411.996 277.398 415.898 286.53 407.984 294.729C401.275 301.328 393.876 306.62 372.584 312.482C371.851 312.684 371.169 312.024 371.362 311.288C375.815 294.32 383.459 281.52 389.754 276.194C397.427 269.702 405.022 271.172 409.531 274.891Z" fill="#FAFAFA"/>
<path d="M409.532 274.615L409.473 274.631C406.129 275.497 396.269 274.31 393.126 263.356C390.766 254.247 389.882 245.193 395.451 223.823C395.643 223.086 396.556 222.826 397.097 223.361C409.565 235.702 416.827 248.722 418.292 256.836C420.078 266.727 415.007 272.57 409.532 274.615Z" fill="#FAFAFA"/>
<path d="M409.536 274.85L409.595 274.835C412.94 273.968 422.799 275.155 425.943 286.109C428.303 295.219 429.186 304.273 423.618 325.643C423.426 326.379 422.513 326.639 421.972 326.104C409.504 313.763 402.241 300.743 400.776 292.629C398.99 282.738 404.061 276.896 409.536 274.85Z" fill="#FAFAFA"/>
<path d="M409.432 274.676L409.416 274.734C408.494 278.064 402.537 286.009 391.478 283.254C382.41 280.743 374.127 276.982 358.404 261.474C357.862 260.94 358.094 260.019 358.827 259.818C375.749 255.19 390.656 255.411 398.415 258.199C407.874 261.598 410.399 268.911 409.432 274.676Z" fill="#FAFAFA"/>
<path d="M409.638 274.789L409.654 274.731C410.576 271.401 416.534 263.456 427.592 266.211C436.661 268.721 444.944 272.483 460.666 287.991C461.208 288.525 460.977 289.446 460.243 289.647C443.322 294.274 428.415 294.054 420.655 291.265C411.197 287.867 408.672 280.554 409.638 274.789Z" fill="#FAFAFA"/>
</g>
<g filter="url(#filter32_f_595_16)">
<path d="M409.641 274.825L409.631 274.784C409.024 272.441 409.855 265.531 417.531 263.328C423.845 261.693 430.121 261.069 444.746 264.831C445.483 265.021 445.738 265.934 445.2 266.471C436.659 274.988 427.708 279.952 422.1 280.964C415.169 282.216 411.075 278.662 409.641 274.825Z" fill="white"/>
<path d="M409.478 274.829L409.488 274.87C410.096 277.214 409.264 284.123 401.588 286.326C395.274 287.961 388.999 288.585 374.373 284.823C373.636 284.633 373.381 283.72 373.92 283.183C382.46 274.666 391.411 269.703 397.019 268.69C403.95 267.439 408.044 270.992 409.478 274.829Z" fill="white"/>
<path d="M409.575 274.662L409.533 274.65C407.2 274.004 401.633 269.829 403.563 262.08C405.303 255.795 407.901 250.048 418.472 239.263C419.004 238.72 419.923 238.955 420.118 239.69C423.224 251.345 423.047 261.579 421.12 266.941C418.739 273.569 413.614 275.339 409.575 274.662Z" fill="white"/>
<path d="M409.496 274.806L409.537 274.817C411.87 275.463 417.438 279.638 415.507 287.387C413.767 293.672 411.169 299.419 400.599 310.204C400.066 310.748 399.148 310.512 398.952 309.777C395.846 298.122 396.023 287.889 397.95 282.526C400.332 275.898 405.456 274.129 409.496 274.806Z" fill="white"/>
<path d="M409.492 274.663L409.461 274.693C407.735 276.391 401.336 279.125 395.59 273.579C391.017 268.929 387.339 263.806 383.284 249.259C383.08 248.526 383.743 247.848 384.478 248.046C396.124 251.184 404.898 256.454 408.579 260.804C413.128 266.181 412.098 271.503 409.492 274.663Z" fill="white"/>
<path d="M409.577 274.804L409.607 274.774C411.333 273.077 417.733 270.342 423.478 275.889C428.052 280.538 431.73 285.661 435.784 300.209C435.988 300.942 435.325 301.619 434.591 301.421C422.945 298.283 414.17 293.013 410.49 288.663C405.941 283.286 406.971 277.964 409.577 274.804Z" fill="white"/>
</g>
<g filter="url(#filter33_f_595_16)">
<path d="M409.578 274.857L409.588 274.819C410.187 272.657 414.054 267.5 421.231 269.288C427.036 270.895 432.344 273.292 442.275 283.009C442.819 283.541 442.585 284.46 441.849 284.655C431.104 287.498 421.677 287.329 416.729 285.551C410.589 283.345 408.951 278.598 409.578 274.857Z" fill="white"/>
<path d="M409.442 274.783L409.431 274.821C408.833 276.982 404.966 282.139 397.788 280.351C391.984 278.744 386.676 276.348 376.744 266.63C376.2 266.098 376.435 265.179 377.17 264.985C387.916 262.141 397.342 262.311 402.291 264.089C408.43 266.295 410.069 271.041 409.442 274.783Z" fill="white"/>
<path d="M409.601 274.693L409.573 274.665C408 273.066 405.468 267.139 410.605 261.817C414.899 257.594 419.629 254.195 433.01 250.453C433.742 250.248 434.421 250.91 434.222 251.645C431.312 262.372 426.452 270.451 422.437 273.848C417.457 278.061 412.527 277.107 409.601 274.693Z" fill="white"/>
<path d="M409.47 274.774L409.497 274.802C411.07 276.401 413.602 282.328 408.465 287.65C404.171 291.873 399.442 295.272 386.061 299.014C385.328 299.219 384.649 298.557 384.848 297.822C387.759 287.095 392.619 279.016 396.633 275.62C401.613 271.406 406.543 272.36 409.47 274.774Z" fill="white"/>
<path d="M409.531 274.656L409.492 274.666C407.322 275.229 400.922 274.458 398.882 267.348C397.371 261.518 396.792 255.723 400.242 242.263C400.431 241.526 401.344 241.27 401.88 241.809C409.716 249.693 414.282 257.942 415.217 263.116C416.376 269.536 413.084 273.329 409.531 274.656Z" fill="white"/>
<path d="M409.534 274.811L409.572 274.801C411.743 274.238 418.142 275.009 420.183 282.119C421.693 287.949 422.272 293.744 418.822 307.204C418.633 307.941 417.72 308.197 417.184 307.658C409.349 299.774 404.782 291.525 403.848 286.35C402.689 279.931 405.98 276.138 409.534 274.811Z" fill="white"/>
</g>
<g filter="url(#filter34_f_595_16)">
<circle cx="408.718" cy="274.849" r="10.6098" transform="rotate(15.4759 408.718 274.849)" fill="url(#paint2_radial_595_16)"/>
</g>
<g filter="url(#filter35_f_595_16)">
<path d="M1483.94 289.428C1458.98 260.936 1436.15 289.653 1430.66 294.465C1425.17 299.276 1435.09 316.045 1450.66 333.816C1466.23 351.587 1481.55 363.63 1487.04 358.819C1499.73 349.699 1498.73 306.3 1483.94 289.428Z" fill="#BCBEA2"/>
<path d="M1462.08 334.646C1452.03 324.184 1447.94 317.441 1447.41 317.906C1446.15 319.119 1453.28 328.584 1463.33 339.046C1473.38 349.508 1482.55 357.006 1483.82 355.792C1485.08 354.579 1472.13 345.108 1462.08 334.646Z" fill="#D9D6C7"/>
<path d="M1471.54 307.309C1457.79 302.668 1448.39 297.093 1448.13 297.75C1447.57 299.409 1460.41 306.04 1473.39 311.705C1487.14 316.346 1489.81 320.54 1490.92 316.479C1491.98 312.66 1485.29 311.949 1471.54 307.309Z" fill="#D9D6C7"/>
<path d="M1473.3 303.071C1462.48 299.418 1455.07 295.031 1454.87 295.548C1454.43 296.854 1464.53 302.072 1474.75 306.531C1485.57 310.183 1487.67 313.484 1488.55 310.288C1489.38 307.282 1484.12 306.723 1473.3 303.071Z" fill="#D9D6C7"/>
<path d="M1480.33 331.915C1471.29 326.313 1465.25 321.171 1465.03 321.472C1464.55 322.252 1472.85 328.735 1481.31 334.726C1490.36 340.328 1491.91 343.211 1492.92 341.247C1493.87 339.4 1489.38 337.518 1480.33 331.915Z" fill="#D9D6C7"/>
<path d="M1473.69 322.171C1460.88 315.005 1452.17 308.428 1451.91 308.813C1451.36 309.81 1463.27 318.104 1475.34 325.765C1488.15 332.931 1490.57 336.619 1491.7 334.107C1492.76 331.744 1486.5 329.336 1473.69 322.171Z" fill="#D9D6C7"/>
<path d="M1472.18 315.953C1456.65 306.327 1454.09 304.555 1453.53 305.052C1453.04 306.211 1461.31 313.198 1474.12 319.564C1487.64 325.28 1490.37 328.871 1491.32 325.993C1492.22 323.286 1485.7 321.67 1472.18 315.953Z" fill="#D9D6C7"/>
<path d="M1471.59 296.547C1460.77 292.895 1456.7 291.908 1456.5 292.426C1456.06 293.731 1462.83 295.549 1473.04 300.007C1483.86 303.659 1485.96 306.96 1486.84 303.764C1487.67 300.759 1482.41 300.199 1471.59 296.547Z" fill="#D9D6C7"/>
<path d="M1472.03 291.847C1464.65 290.291 1463.04 290.6 1463.02 290.719C1462.79 291.954 1464.15 292.464 1473.95 295.18C1484.18 297.09 1486.53 300.545 1486.91 297.546C1487.28 294.726 1482.26 293.757 1472.03 291.847Z" fill="#D9D6C7"/>
<path d="M1466.14 285.512C1460.34 284.868 1459.11 285.371 1459.1 285.491C1459 286.743 1460.08 287.083 1467.83 288.582C1475.87 289.229 1477.91 292.368 1478.02 289.349C1478.12 286.509 1474.18 286.159 1466.14 285.512Z" fill="#D9D6C7"/>
<path d="M1465.06 281.823C1461 281.786 1460.18 282.121 1460.18 282.186C1460.19 282.865 1460.96 282.99 1466.43 283.383C1472.05 283.303 1473.65 284.881 1473.54 283.253C1473.43 281.721 1470.68 281.743 1465.06 281.823Z" fill="#D9D6C7"/>
<path d="M1458.62 338.404C1451.31 330.802 1449.23 327.906 1448.84 328.244C1447.93 329.125 1452.22 333.999 1459.53 341.601C1466.83 349.203 1473.5 354.651 1474.41 353.769C1475.33 352.888 1465.92 346.006 1458.62 338.404Z" fill="#D9D6C7"/>
<path d="M1463.67 328.098C1452.4 316.372 1447.68 308.96 1447.14 309.422C1445.88 310.635 1453.99 321.124 1465.26 332.85C1476.53 344.575 1486.68 353.097 1487.95 351.884C1489.21 350.671 1474.94 339.823 1463.67 328.098Z" fill="#D9D6C7"/>
<path d="M1472.62 331.977C1463.7 323.864 1459.69 318.773 1459.38 319.077C1458.65 319.878 1465.29 327.105 1474.21 335.218C1483.13 343.332 1490.95 349.26 1491.68 348.459C1492.41 347.658 1481.54 340.091 1472.62 331.977Z" fill="#D9D6C7"/>
<path d="M1660.19 242.113C1671.52 246.19 1684.21 249.002 1727.3 281.838C1748.96 281.109 1784.34 313.504 1805.69 344.973C1807.08 347.025 1810.28 356.713 1797.7 357.136C1783.72 357.606 1774.35 349.525 1759.35 340.234C1742.42 329.754 1734.41 306.088 1734.36 304.69C1733.54 302.016 1725.65 295.188 1715.77 292.721C1619.66 264.468 1543.7 294.312 1479.4 296.475C1394.2 301.44 1328.35 299 1327.51 274.296C1326.68 249.592 1407.05 205.148 1483.45 208.876C1538.73 209.115 1580.15 213.319 1660.19 242.113Z" fill="#D5C6C2"/>
<path d="M1665.74 261.518C1666.29 277.73 1584.13 269.162 1478.39 287.413C1394.63 290.23 1340.59 288.687 1340.05 272.475C1339.5 256.263 1387.99 217.685 1471.75 214.867C1555.52 212.049 1665.2 245.306 1665.74 261.518Z" fill="#DBCDCA"/>
<path d="M1461.68 185.818C1462.86 220.936 1429.2 215.986 1422.43 216.214C1415.66 216.441 1411.74 198.797 1411 176.894C1410.26 154.991 1412.99 137.123 1419.76 136.895C1434.13 135.019 1460.98 165.023 1461.68 185.818Z" fill="#BCBEA2"/>
<path d="M1418.2 169.089C1418.03 182.546 1419.55 189.699 1418.89 189.721C1417.27 189.701 1416.09 178.776 1416.25 165.319C1416.42 151.861 1417.87 140.969 1419.5 140.989C1421.12 141.009 1418.37 155.632 1418.2 169.089Z" fill="#DDD6C6"/>
<path d="M1441.95 181.586C1435.59 193.447 1432.76 203.187 1432.17 202.905C1430.74 202.138 1435.21 189.508 1440.41 177.438C1446.77 165.577 1445.91 161.046 1449.24 163.084C1452.38 165.001 1448.3 169.725 1441.95 181.586Z" fill="#DDD6C6"/>
<path d="M1445.82 183.34C1440.82 192.675 1438.59 200.34 1438.13 200.118C1437 199.514 1440.52 189.575 1444.61 180.076C1449.61 170.741 1448.94 167.174 1451.57 168.779C1454.03 170.287 1450.83 174.005 1445.82 183.34Z" fill="#DDD6C6"/>
<path d="M1432.28 159.357C1429.72 168.885 1428.89 176.196 1428.56 176.128C1427.74 175.907 1429.24 166.253 1431.17 156.832C1433.73 147.305 1432.95 144.369 1434.88 145.057C1436.7 145.703 1434.85 149.829 1432.28 159.357Z" fill="#DDD6C6"/>
<path d="M1433.97 170.165C1429.85 183.139 1428.12 193.119 1427.71 193.019C1426.7 192.698 1429.5 179.529 1432.81 166.687C1436.93 153.714 1436.23 149.681 1438.58 150.665C1440.8 151.59 1438.09 157.192 1433.97 170.165Z" fill="#DDD6C6"/>
<path d="M1436.89 175.33C1432.49 191.698 1431.88 194.517 1431.19 194.541C1430.12 194.067 1431.29 184.088 1435.92 171.657C1441.44 159.214 1441.01 155.05 1443.48 156.392C1445.8 157.654 1442.41 162.887 1436.89 175.33Z" fill="#DDD6C6"/>
<path d="M1448.81 188.837C1443.8 198.172 1441.67 201.423 1441.21 201.201C1440.08 200.597 1443.51 195.072 1447.59 185.573C1452.6 176.238 1451.93 172.671 1454.55 174.276C1457.02 175.784 1453.81 179.502 1448.81 188.837Z" fill="#DDD6C6"/>
<path d="M1452.08 191.74C1448.08 197.472 1446.79 198.283 1446.7 198.217C1445.76 197.527 1446.36 196.321 1451.26 188.268C1456.98 180.481 1456.38 176.655 1458.54 178.44C1460.57 180.118 1457.8 183.953 1452.08 191.74Z" fill="#DDD6C6"/>
<path d="M1452.12 199.759C1448.6 203.877 1447.45 204.314 1447.37 204.239C1446.51 203.456 1447.02 202.539 1451.32 196.608C1456.35 191.07 1455.73 187.657 1457.72 189.63C1459.59 191.486 1457.15 194.221 1452.12 199.759Z" fill="#DDD6C6"/>
<path d="M1453.73 202.942C1451 205.546 1450.23 205.838 1450.19 205.793C1449.77 205.328 1450.21 204.753 1453.66 201.018C1457.51 197.51 1457.6 195.422 1458.56 196.597C1459.45 197.703 1457.58 199.434 1453.73 202.942Z" fill="#DDD6C6"/>
<path d="M1413.47 168.741C1413.35 178.519 1413.78 181.802 1413.3 181.818C1412.12 181.803 1411.94 175.779 1412.06 166.001C1412.18 156.223 1413.24 148.308 1414.42 148.323C1415.6 148.337 1413.6 158.962 1413.47 168.741Z" fill="#DDD6C6"/>
<path d="M1423.43 172.51C1423.25 187.592 1424.75 195.607 1424.09 195.632C1422.47 195.612 1421.31 183.369 1421.49 168.287C1421.68 153.205 1423.14 140.995 1424.77 141.015C1426.39 141.035 1423.62 157.428 1423.43 172.51Z" fill="#DDD6C6"/>
<path d="M1427.03 164.208C1426.14 175.357 1426.65 181.346 1426.25 181.339C1425.25 181.259 1425.16 172.156 1426.05 161.006C1426.94 149.857 1428.47 140.883 1429.47 140.963C1430.47 141.043 1427.92 153.058 1427.03 164.208Z" fill="#DDD6C6"/>
<path d="M1670.43 275.175C1670.43 275.177 1670.44 275.179 1670.44 275.182C1671.17 275.221 1681.76 275.276 1683.61 271.933C1685.68 268.214 1687.85 273.189 1688.79 280.155C1689.53 285.724 1676.87 279.164 1670.44 275.182C1670.39 275.179 1670.38 275.176 1670.43 275.175Z" fill="#091120"/>
<ellipse cx="1383.87" cy="295.347" rx="8.09779" ry="2.15154" transform="rotate(0.916684 1383.87 295.347)" fill="#3A3644"/>
<ellipse cx="1374.01" cy="234.158" rx="6.96089" ry="2.20364" transform="rotate(-25.5192 1374.01 234.158)" fill="#3A3644"/>
<path d="M1406.3 224.471C1404.53 221.732 1380.3 234.909 1368.4 241.84C1366.6 242.894 1368.68 250.087 1368.76 252.323C1368.85 255.119 1372.49 259.195 1370.53 263.459C1368.58 267.723 1369.35 269.796 1370.91 274.641C1372.47 279.487 1376.69 280.045 1378.93 284.167C1381.16 288.29 1383.82 284.003 1390.99 289.359C1398.17 294.715 1405.7 289.564 1408.47 288.771C1411.24 287.978 1420.49 292.565 1427.6 295.824C1433.28 298.432 1441.61 296.519 1445.07 295.237L1463.12 291.131C1463.96 288.304 1464.65 282.403 1460.7 281.417C1455.76 280.183 1460.42 273.03 1465.21 270.069C1470.01 267.109 1462.79 260.355 1460.06 262.546C1457.34 264.737 1451.51 257.936 1449.93 252.391C1448.34 246.847 1445.38 242.049 1439.09 242.26C1432.8 242.472 1434.66 235.412 1432.4 230.591C1430.14 225.769 1421.82 228.148 1418.49 233.158C1415.16 238.167 1410.2 236.235 1406.61 233.557C1403.02 230.879 1408.52 227.895 1406.3 224.471Z" fill="#D61818"/>
<path d="M1341 285.855C1324.04 280.828 1331.01 266.134 1336.61 259.414C1339.41 259.32 1338.71 259.344 1342.65 272.506C1345.8 283.035 1342.86 285.793 1341 285.855Z" fill="#C4A9B2"/>
<path d="M1347.4 268.147C1339.72 256.091 1349.78 248.942 1355.78 246.874C1361.3 244.589 1367.09 270.983 1364.36 273.174C1362.18 274.927 1370.23 286.272 1367.58 285.661C1364.05 284.846 1355.08 280.204 1347.4 268.147Z" fill="#CAADB1"/>
<path d="M1476.62 228.717C1475.25 221.486 1464.58 217.693 1459.42 216.701C1456.6 216.013 1461.55 238.32 1466.39 236.758C1470.27 235.508 1473.24 239.326 1474.24 241.392C1484.15 244.557 1478.32 237.756 1476.62 228.717Z" fill="#E03311"/>
<path d="M1483.01 284.604C1486.87 282.795 1490.25 285.06 1491.47 286.419C1498.18 286.193 1496.96 283.435 1495.52 282.084C1491.29 281.293 1484.78 278.947 1492.51 275.888C1502.18 272.064 1499.82 264.447 1498.47 265.891C1497.12 267.336 1495.54 261.792 1491.99 260.512C1488.45 259.232 1478.97 268.647 1477.65 270.79C1476.32 272.934 1478.19 286.866 1483.01 284.604Z" fill="#091120" stroke="#091120"/>
<path d="M1501.78 221.437C1496.92 226.639 1492.8 224.772 1491.35 223.188C1486.4 221.597 1492.96 229.431 1495.45 241.242C1497.45 250.691 1502.08 251.048 1504.15 250.045C1504.53 247.7 1507.15 243.787 1514.54 246.897C1523.76 250.785 1527.02 243.678 1524.93 243.749C1522.83 243.819 1514.09 233.618 1519.03 234.851C1522.98 235.838 1524.32 232.807 1524.5 231.168C1522.75 227.496 1518.56 220.873 1515.86 223.763C1513.15 226.652 1510.57 226.04 1509.61 225.372C1509.03 221.893 1506.65 216.236 1501.78 221.437Z" fill="#091120"/>
<path d="M1512.44 280.361C1510.19 279.878 1507.96 285.876 1507.13 288.936C1514.21 291.497 1557.45 287.244 1560.08 282.257C1562.72 277.271 1549.66 263.716 1549.74 265.812C1549.79 267.49 1545.98 265.239 1544.07 263.904C1537.44 260.862 1524.5 256.166 1525.81 261.719C1527.11 267.273 1513.41 272.24 1513.58 272.626C1514.79 275.384 1515.95 280.552 1512.44 280.361Z" fill="#D61516"/>
<path d="M1771.01 312.554C1744.31 288.263 1732.02 289.179 1732.43 288.662C1733.55 287.493 1756.45 291.835 1777.35 313.74C1792.71 329.845 1806.47 347.432 1804.74 348.833C1801.86 351.156 1792.9 332.463 1771.01 312.554Z" fill="#D9D6C7"/>
<path d="M1758.42 333.269C1738.07 311.782 1735.14 290.986 1734.62 291.387C1733.44 292.504 1733.25 313.688 1754.97 334.785C1770.93 350.297 1787.21 356.59 1788.62 354.871C1789.41 353.917 1762.27 337.336 1758.42 333.269Z" fill="#D9D6C7"/>
<path d="M1763.36 330.321C1743.02 308.834 1733.69 289.635 1733.17 290.037C1731.99 291.153 1738.2 310.74 1759.91 331.837C1775.88 347.349 1789.16 354.897 1790.57 353.178C1791.36 352.224 1767.21 334.388 1763.36 330.321Z" fill="#D9D6C7"/>
<path d="M1766.59 326.452C1746.25 304.966 1732.8 288.4 1732.43 288.662C1731.61 289.435 1742.51 305.852 1763.94 327.217C1779.69 342.926 1791.98 351.418 1792.9 350.167C1793.41 349.473 1770.44 330.52 1766.59 326.452Z" fill="#D9D6C7"/>
<path d="M1768.1 314.956C1748.06 293.183 1732.23 288.932 1732.43 288.663C1733.02 288.115 1753.65 295.893 1773.68 318.575C1788.4 335.252 1806.67 353.335 1800.95 351.915C1799.3 352.816 1788.14 336.729 1768.1 314.956Z" fill="#D9D6C7"/>
<path d="M1763.93 316.687C1742.74 293.665 1732.23 288.934 1732.43 288.662C1733.02 288.115 1748.56 296.62 1769.75 320.578C1785.34 338.193 1804.92 355.921 1799.01 354.294C1797.34 355.175 1785.11 339.708 1763.93 316.687Z" fill="#D9D6C7"/>
<path d="M1759.24 316.844C1738.05 293.823 1732.29 289.187 1732.48 288.915C1733.07 288.367 1743.86 296.777 1765.06 320.735C1780.64 338.351 1800.22 356.079 1794.32 354.451C1792.64 355.333 1780.42 339.866 1759.24 316.844Z" fill="#D9D6C7"/>
<circle cx="1473.59" cy="290.373" r="2.79723" transform="rotate(-1.92677 1473.59 290.373)" fill="#ECF6F8"/>
<circle cx="1501.32" cy="282.443" r="2.79723" transform="rotate(-1.92677 1501.32 282.443)" fill="#ECF6F8"/>
<circle cx="1530.09" cy="222.7" r="2.79723" transform="rotate(-1.92677 1530.09 222.7)" fill="#ECF6F8"/>
<circle cx="1485.03" cy="214.42" r="2.79723" transform="rotate(-1.92677 1485.03 214.42)" fill="#ECF6F8"/>
<circle cx="1573.91" cy="277.202" r="2.79723" transform="rotate(-1.92677 1573.91 277.202)" fill="#ECF6F8"/>
<circle cx="1580.03" cy="272.098" r="2.09792" transform="rotate(-1.92677 1580.03 272.098)" fill="#ECF6F8"/>
<path d="M1619.79 257.019C1620.44 259.795 1615.62 264.855 1613.13 267.038C1609.4 270.31 1619.08 265.018 1626.48 268.688C1633.88 272.358 1633.05 262.87 1633.84 258.645C1634.01 256.773 1635.86 252.279 1641.92 249.277C1647.98 246.274 1641.4 240.665 1637.35 238.235C1629.1 235.714 1611.75 230.141 1608.32 228.017C1604.03 225.362 1596.48 229.814 1600.7 230.372C1604.08 230.819 1608.34 235.48 1610.05 237.755C1603.32 238.914 1592.82 241.553 1604.62 242.835C1619.37 244.438 1618.97 253.547 1619.79 257.019Z" fill="#D61516"/>
<path d="M1571.34 263.449C1563.93 259.221 1532.16 256.371 1517.2 255.475C1529.73 232.663 1554.94 254.207 1560.53 254.018C1622.65 236.815 1662.61 258.746 1674.48 271.875C1656.33 252.194 1606.66 252.466 1605.43 257.405C1604.44 261.357 1601.91 263.821 1600.77 264.559C1594.05 265.951 1578.76 267.678 1571.34 263.449Z" fill="#A4A176"/>
<path d="M1531.7 248.892C1528.16 250.26 1525.76 251.827 1525.69 251.657C1525.52 251.228 1528.8 249.346 1532.13 247.717C1535.68 246.348 1536.33 245.217 1536.67 246.271C1536.99 247.263 1535.25 247.523 1531.7 248.892Z" fill="#D9D6C7"/>
<path d="M1539.88 252.78C1536.06 254.257 1533.58 256.227 1533.46 255.958C1533.2 255.28 1536.64 252.982 1540.18 251.073C1544.01 249.596 1544.56 247.993 1545.13 249.646C1545.66 251.201 1543.71 251.302 1539.88 252.78Z" fill="#D9D6C7"/>
<path d="M1535.06 250.894C1531.45 252.08 1529.04 253.726 1528.95 253.49C1528.76 252.896 1532.07 250.989 1535.44 249.423C1539.05 248.237 1539.67 246.862 1540.08 248.308C1540.46 249.668 1538.67 249.708 1535.06 250.894Z" fill="#D9D6C7"/>
<path d="M1545.99 254.53C1543.46 255.506 1541.91 257.025 1541.81 256.78C1541.57 256.165 1543.76 254.439 1546.06 253.062C1548.59 252.085 1548.84 250.729 1549.37 252.222C1549.87 253.626 1548.52 253.553 1545.99 254.53Z" fill="#D9D6C7"/>
<path d="M1585.63 260.56C1581.14 258.079 1577.3 257.188 1577.45 256.892C1577.85 256.169 1582.78 257.713 1587.43 259.625C1591.92 262.106 1593.83 261.48 1592.8 263.174C1591.83 264.768 1590.13 263.04 1585.63 260.56Z" fill="#D9D6C7"/>
<path d="M1593.47 258.786C1588.44 257.75 1584.56 257.808 1584.61 257.551C1584.74 256.919 1589.85 257.151 1594.83 257.72C1599.87 258.755 1601.44 257.904 1601.04 259.406C1600.67 260.819 1598.5 259.821 1593.47 258.786Z" fill="#D9D6C7"/>
<path d="M1593.3 255.92C1588.18 255.507 1584.34 256.038 1584.35 255.778C1584.4 255.134 1589.51 254.741 1594.52 254.696C1599.64 255.109 1601.1 254.073 1600.89 255.612C1600.7 257.06 1598.42 256.334 1593.3 255.92Z" fill="#D9D6C7"/>
<path d="M1594.72 252.526C1588.75 252.044 1584.26 252.798 1584.28 252.453C1584.35 251.599 1590.31 251.011 1596.16 250.887C1602.13 251.369 1603.84 249.976 1603.58 252.019C1603.33 253.941 1600.69 253.008 1594.72 252.526Z" fill="#D9D6C7"/>
<path d="M1700.35 285.948C1710.6 291.201 1718.09 286.518 1721.25 283.146C1722.57 281.002 1721.29 284.544 1711.92 276.462C1704.43 269.997 1703.19 273.491 1703.51 276.046C1705.27 279.718 1707.79 286.677 1703.82 285.132C1699.85 283.586 1699.85 285.032 1700.35 285.948Z" fill="#091120"/>
</g>
<g filter="url(#filter36_f_595_16)">
<path d="M1175.8 559.672C1145.76 554.245 1154.68 526.034 1155.43 520.138C1156.19 514.243 1171.74 514.091 1190.47 517.476C1209.21 520.861 1224.02 526.5 1223.27 532.395C1222.85 545.169 1193.58 562.885 1175.8 559.672Z" fill="#BCBEA2"/>
<path d="M1196.1 525.136C1184.68 522.522 1178.39 522.518 1178.46 521.948C1178.7 520.547 1188.16 521.531 1199.58 524.146C1211.01 526.76 1220.07 530.016 1219.82 531.417C1219.58 532.818 1207.53 527.751 1196.1 525.136Z" fill="#D9D6C7"/>
<path d="M1182.16 543.38C1172.96 535.702 1165.07 531.466 1165.39 531.007C1166.24 529.91 1176.36 536.104 1185.9 542.81C1195.1 550.488 1199.07 550.582 1196.87 553.09C1194.8 555.45 1191.36 551.058 1182.16 543.38Z" fill="#D9D6C7"/>
<path d="M1180.12 546.41C1172.88 540.368 1166.67 537.034 1166.93 536.673C1167.6 535.81 1175.56 540.684 1183.07 545.962C1190.31 552.005 1193.43 552.079 1191.7 554.053C1190.07 555.91 1187.36 552.453 1180.12 546.41Z" fill="#D9D6C7"/>
<path d="M1202.41 539.105C1194.67 535.136 1188.56 533.08 1188.67 532.802C1188.97 532.132 1196.97 535.206 1204.72 538.601C1212.46 542.57 1215.07 542.435 1214.21 543.978C1213.41 545.429 1210.16 543.073 1202.41 539.105Z" fill="#D9D6C7"/>
<path d="M1192.98 538.58C1182.53 532.633 1174.28 529.307 1174.42 528.966C1174.84 528.151 1185.64 532.992 1196.1 538.211C1206.56 544.157 1210.09 544.292 1208.92 546.151C1207.83 547.899 1203.44 544.526 1192.98 538.58Z" fill="#D9D6C7"/>
<path d="M1188.18 540.159C1174.88 533.345 1172.56 532.304 1172.64 531.695C1173.19 530.859 1181.52 533.703 1191.44 539.989C1201.25 547.048 1204.86 547.441 1203.37 549.333C1201.97 551.112 1197.99 547.218 1188.18 540.159Z" fill="#D9D6C7"/>
<path d="M1175.03 547.981C1167.79 541.939 1165.32 539.5 1165.57 539.139C1166.25 538.275 1170.47 542.255 1177.97 547.533C1185.21 553.576 1188.34 553.65 1186.61 555.624C1184.98 557.481 1182.27 554.024 1175.03 547.981Z" fill="#D9D6C7"/>
<path d="M1172.1 550.284C1167.79 545.767 1167.28 544.507 1167.35 544.441C1168.06 543.755 1169.01 544.492 1175.17 550.215C1180.99 556.589 1184.33 556.769 1182.51 558.312C1180.8 559.763 1177.93 556.657 1172.1 550.284Z" fill="#D9D6C7"/>
<path d="M1165.27 548.842C1162.26 545.041 1162.05 543.968 1162.13 543.911C1162.91 543.308 1163.62 543.924 1168.07 548.727C1172.07 554.094 1175.06 554.188 1173.11 555.546C1171.27 556.824 1169.28 554.209 1165.27 548.842Z" fill="#D9D6C7"/>
<path d="M1162.34 549.65C1160.51 546.812 1160.37 546.096 1160.41 546.069C1160.87 545.788 1161.29 546.277 1163.99 549.948C1166.43 553.923 1168.2 554.381 1167.06 554.991C1166 555.565 1164.79 553.624 1162.34 549.65Z" fill="#D9D6C7"/>
<path d="M1197.06 521.113C1188.76 519.213 1185.91 518.978 1185.96 518.564C1186.14 517.546 1191.29 518.493 1199.59 520.393C1207.89 522.293 1214.47 524.658 1214.3 525.676C1214.12 526.694 1205.36 523.013 1197.06 521.113Z" fill="#D9D6C7"/>
<path d="M1192.46 529.034C1179.66 526.103 1172.63 525.932 1172.7 525.361C1172.95 523.961 1183.52 525.2 1196.33 528.131C1209.13 531.061 1219.31 534.573 1219.06 535.974C1218.82 537.375 1205.27 531.964 1192.46 529.034Z" fill="#D9D6C7"/>
<path d="M1199.02 533.667C1189.66 530.85 1184.5 530.197 1184.56 529.848C1184.77 528.997 1192.52 530.59 1201.88 533.407C1211.24 536.223 1218.66 539.197 1218.45 540.048C1218.24 540.899 1208.38 536.483 1199.02 533.667Z" fill="#D9D6C7"/>
<path d="M1222.78 703.442C1230.53 709.664 1238.04 717.376 1279.03 733.677C1288.18 749.192 1325.44 760.267 1355.84 761.894C1357.82 762 1365.68 760.135 1360.37 751.126C1354.46 741.117 1344.92 737.972 1332.08 731.385C1317.58 723.954 1298.3 728.376 1297.35 728.936C1295.21 729.491 1287.16 726.853 1281.13 720.967C1219.6 665.51 1205.62 599.533 1178.45 553.49C1143.85 491.593 1112.93 446.413 1096.15 456.315C1079.37 466.217 1085.6 541.484 1122.07 593.513C1146.82 632.21 1168.05 659.496 1222.78 703.442Z" fill="#D5C6C2"/>
<path d="M1238.14 699.101C1249.15 692.603 1206.91 638.586 1171.99 556.632C1136.59 496.653 1111.52 459.386 1100.51 465.884C1089.5 472.382 1085.45 522.785 1120.84 582.764C1156.24 642.743 1227.13 705.599 1238.14 699.101Z" fill="#DBCDCA"/>
<path d="M1097.07 588.024C1120.92 573.948 1102.65 552.422 1099.79 547.576C1096.93 542.73 1083.47 547.467 1068.59 556.246C1053.71 565.026 1043.06 574.523 1045.92 579.369C1051.06 590.25 1082.94 596.36 1097.07 588.024Z" fill="#BCBEA2"/>
<path d="M1066.61 564.611C1075.47 558.783 1080.9 556.81 1080.62 556.341C1079.89 555.21 1072.1 559.018 1063.24 564.846C1054.37 570.674 1047.78 576.316 1048.52 577.447C1049.26 578.578 1057.74 570.44 1066.61 564.611Z" fill="#DDD6C6"/>
<path d="M1085.47 575.971C1090.52 566.474 1095.74 560.355 1095.29 560.06C1094.14 559.381 1087.74 567.885 1082.03 576.652C1076.98 586.148 1073.59 587.473 1076.43 588.946C1079.1 590.333 1080.42 585.468 1085.47 575.971Z" fill="#DDD6C6"/>
<path d="M1088.36 577.947C1092.34 570.472 1096.44 565.656 1096.09 565.425C1095.18 564.89 1090.15 571.583 1085.66 578.482C1081.68 585.956 1079.01 586.998 1081.25 588.158C1083.35 589.25 1084.39 585.421 1088.36 577.947Z" fill="#DDD6C6"/>
<path d="M1066.41 578.625C1071.6 572.781 1076.09 569.099 1075.89 568.892C1075.38 568.409 1069.64 573.562 1064.24 578.912C1059.05 584.756 1056.75 585.456 1058.07 586.518C1059.3 587.518 1061.22 584.47 1066.41 578.625Z" fill="#DDD6C6"/>
<path d="M1074.34 575.223C1081.13 566.824 1086.99 561.376 1086.74 561.127C1086.07 560.555 1078.57 568.109 1071.51 575.881C1064.73 584.279 1061.74 585.5 1063.44 586.736C1065.04 587.9 1067.56 583.621 1074.34 575.223Z" fill="#DDD6C6"/>
<path d="M1079.07 575.081C1087.99 565.043 1089.59 563.422 1089.29 562.922C1088.51 562.374 1082.4 567.43 1076.2 575.955C1070.39 585.109 1067.43 586.576 1069.42 587.741C1071.3 588.837 1073.26 584.236 1079.07 575.081Z" fill="#DDD6C6"/>
<path d="M1093.34 577.707C1097.32 570.233 1098.53 567.359 1098.17 567.127C1097.27 566.593 1095.13 571.344 1090.64 578.243C1086.66 585.717 1083.99 586.759 1086.23 587.919C1088.33 589.01 1089.37 585.181 1093.34 577.707Z" fill="#DDD6C6"/>
<path d="M1096.73 578.776C1098.76 573.532 1098.72 572.286 1098.64 572.251C1097.76 571.885 1097.23 572.815 1094.06 579.677C1091.43 586.993 1088.62 588.193 1090.77 588.953C1092.79 589.668 1094.1 586.092 1096.73 578.776Z" fill="#DDD6C6"/>
<path d="M1102.07 575.397C1103.24 571.179 1103.02 570.188 1102.93 570.162C1102.03 569.889 1101.65 570.641 1099.62 576.172C1098.18 582.052 1095.64 583.068 1097.84 583.627C1099.9 584.153 1100.63 581.277 1102.07 575.397Z" fill="#DDD6C6"/>
<path d="M1104.9 575.176C1105.42 572.156 1105.27 571.495 1105.22 571.486C1104.73 571.386 1104.54 571.941 1103.6 575.948C1102.98 580.139 1101.63 581.086 1102.84 581.257C1103.97 581.418 1104.29 579.367 1104.9 575.176Z" fill="#DDD6C6"/>
<path d="M1064.27 561.443C1070.72 557.208 1073.09 556.113 1072.89 555.773C1072.35 554.951 1068.27 557.379 1061.83 561.614C1055.38 565.848 1050.6 569.948 1051.13 570.77C1051.66 571.592 1057.83 565.678 1064.27 561.443Z" fill="#DDD6C6"/>
<path d="M1071.21 566.831C1081.14 560.299 1087.14 557.953 1086.86 557.483C1086.13 556.352 1077.48 560.73 1067.54 567.262C1057.61 573.794 1050.15 580.006 1050.88 581.137C1051.62 582.269 1061.27 573.363 1071.21 566.831Z" fill="#DDD6C6"/>
<path d="M1067.29 572.878C1074.3 567.521 1078.51 565.342 1078.33 565.061C1077.83 564.392 1071.74 568.192 1064.73 573.548C1057.72 578.905 1052.44 583.789 1052.94 584.458C1053.44 585.126 1060.28 578.234 1067.29 572.878Z" fill="#DDD6C6"/>
<path d="M1249.3 696.594C1249.3 696.596 1249.3 696.597 1249.31 696.599C1249.66 697.098 1254.4 704.502 1253.01 707.224C1251.46 710.251 1255.73 709.666 1260.77 707.365C1264.81 705.525 1254.81 699.424 1249.31 696.599C1249.28 696.566 1249.28 696.563 1249.3 696.594Z" fill="#091120"/>
<ellipse cx="6.7283" cy="1.69616" rx="6.7283" ry="1.69616" transform="matrix(0.548197 0.836349 0.833468 -0.552568 1130.1 482.244)" fill="#3A3644"/>
<ellipse cx="5.73776" cy="1.75242" rx="5.73776" ry="1.75242" transform="matrix(0.139922 0.990162 0.994839 -0.10147 1087.62 500.479)" fill="#3A3644"/>
<path d="M1098.11 532.756C1095.5 532.676 1093.47 510.077 1092.78 498.787C1092.68 497.07 1098.38 495.482 1099.9 494.585C1101.8 493.465 1106.13 494.286 1108.09 491.104C1110.05 487.922 1111.77 487.582 1115.68 486.622C1119.6 485.661 1121.84 488.384 1125.58 488.205C1129.31 488.025 1127.65 491.708 1134.4 494.471C1141.15 497.235 1141.07 504.701 1141.78 506.983C1142.49 509.265 1149.65 513.81 1154.98 517.414C1159.24 520.297 1161.67 526.956 1162.36 529.926L1167.66 544.339C1166.16 546.126 1162.55 549.114 1160.13 546.759C1157.12 543.816 1154.44 550.121 1154.6 554.745C1154.77 559.369 1147.07 557.165 1147.31 554.323C1147.56 551.481 1140.45 550.279 1136.06 551.519C1131.67 552.759 1127.17 552.718 1124.51 548.214C1121.85 543.71 1117.99 548.013 1113.78 548.472C1109.57 548.932 1107.45 542.086 1109.3 537.622C1111.14 533.159 1107.65 530.496 1104.28 529.115C1100.9 527.733 1101.37 532.857 1098.11 532.756Z" fill="#D61818"/>
<path d="M1109.82 460.872C1098.94 451.102 1092.28 462.23 1090.31 469.015C1091.49 471.017 1091.19 470.516 1101.69 467.696C1110.09 465.44 1110.61 462.206 1109.82 460.872Z" fill="#C4A9B2"/>
<path d="M1100.91 472.88C1089.48 472.606 1089.21 482.706 1090.51 487.791C1091.45 492.635 1111.55 485.493 1111.8 482.65C1111.99 480.377 1123.1 481.207 1121.52 479.61C1119.41 477.481 1112.34 473.155 1100.91 472.88Z" fill="#CAADB1"/>
<path d="M1132.21 580.298C1126.8 582.411 1119.53 576.533 1116.57 573.329C1114.86 571.641 1131.88 565.646 1133 569.709C1133.89 572.96 1137.75 573.427 1139.57 573.253C1146.08 578.859 1138.97 577.657 1132.21 580.298Z" fill="#E03311"/>
<path d="M1172.18 561.064C1172.69 564.539 1175.7 565.956 1177.14 566.23C1179.98 571.034 1177.61 571.354 1176.07 570.913C1173.66 568.284 1169.21 564.707 1170.61 571.433C1172.38 579.84 1166.27 581.42 1166.63 579.859C1166.98 578.298 1162.6 579.538 1160.17 577.596C1157.74 575.654 1159.78 565.006 1160.61 563.164C1161.45 561.323 1171.53 556.721 1172.18 561.064Z" fill="#091120" stroke="#091120"/>
<path d="M1138.57 601.051C1139.86 595.43 1136.79 593.331 1135.09 592.983C1131.83 590.184 1139.95 591.463 1148.91 588.202C1156.07 585.593 1158.37 588.691 1158.62 590.566C1157.24 591.833 1155.81 595.333 1161.16 599.193C1167.84 604.018 1164.57 609.322 1163.69 607.821C1162.8 606.319 1152.14 604.516 1155.15 607.459C1157.57 609.813 1156.15 612.043 1155.14 612.863C1151.92 613.19 1145.66 613.062 1146.38 609.939C1147.09 606.817 1145.54 605.262 1144.67 604.875C1142.1 605.942 1137.28 606.671 1138.57 601.051Z" fill="#091120"/>
<path d="M1182.45 583.519C1181.13 582.142 1184.12 578.035 1185.79 576.154C1190.64 580.038 1207.05 612.187 1204.91 616.15C1202.77 620.113 1187.96 616.708 1189.38 615.867C1190.52 615.195 1187.33 613.478 1185.59 612.704C1180.62 609.34 1171.75 602.253 1176.02 600.812C1180.29 599.372 1177.49 587.646 1177.82 587.602C1180.19 587.282 1184.14 585.898 1182.45 583.519Z" fill="#D61516"/>
<path d="M1318.88 751.319C1290.86 742.887 1286 733.875 1285.84 734.379C1285.57 735.666 1298.64 749.895 1322.49 755.263C1340.02 759.21 1357.82 761.401 1357.98 759.59C1358.25 756.586 1341.84 758.23 1318.88 751.319Z" fill="#D9D6C7"/>
<path d="M1327.03 733.685C1303.71 728.528 1288.59 735.295 1288.63 734.759C1288.84 733.458 1302.83 724.339 1326.51 730.621C1343.91 735.24 1355.34 743.993 1354.82 745.717C1354.54 746.673 1331.45 734.662 1327.03 733.685Z" fill="#D9D6C7"/>
<path d="M1327.28 738.407C1303.95 733.25 1287.05 734.854 1287.09 734.319C1287.3 733.017 1303.07 729.061 1326.75 735.343C1344.16 739.962 1355.08 746.078 1354.57 747.802C1354.28 748.758 1331.69 739.384 1327.28 738.407Z" fill="#D9D6C7"/>
<path d="M1326.14 742.317C1302.82 737.159 1285.83 734.753 1285.84 734.379C1285.99 733.479 1301.74 734.158 1325.47 740.129C1342.92 744.519 1354.02 749.534 1353.6 750.712C1353.37 751.365 1330.56 743.293 1326.14 742.317Z" fill="#D9D6C7"/>
<path d="M1319.18 748.254C1295.8 743.433 1285.93 734.128 1285.84 734.379C1285.74 735.029 1300.09 746.207 1324.06 750.63C1341.69 753.882 1361.83 759.034 1358.35 755.624C1358.21 754.081 1342.56 753.075 1319.18 748.254Z" fill="#D9D6C7"/>
<path d="M1318.47 744.59C1293.75 739.493 1285.94 734.128 1285.84 734.379C1285.74 735.029 1298.3 742.321 1323.65 747.027C1342.28 750.487 1362.77 756.703 1359.06 753.247C1358.9 751.7 1343.19 749.687 1318.47 744.59Z" fill="#D9D6C7"/>
<path d="M1316.49 741.232C1291.77 736.135 1286.13 734.059 1286.03 734.31C1285.93 734.96 1296.32 738.963 1321.67 743.669C1340.3 747.129 1360.79 753.345 1357.08 749.889C1356.92 748.342 1341.21 746.329 1316.49 741.232Z" fill="#D9D6C7"/>
<ellipse cx="2.32445" cy="2.20488" rx="2.32445" ry="2.20488" transform="matrix(0.50823 0.861222 0.861222 -0.50823 1168.74 551.126)" fill="#ECF6F8"/>
<ellipse cx="2.32445" cy="2.20488" rx="2.32445" ry="2.20488" transform="matrix(0.50823 0.861222 0.861222 -0.50823 1175.8 573.947)" fill="#ECF6F8"/>
<ellipse cx="2.32445" cy="2.20488" rx="2.32445" ry="2.20488" transform="matrix(0.50823 0.861222 0.861222 -0.50823 1148.92 619.5)" fill="#ECF6F8"/>
<ellipse cx="2.32445" cy="2.20488" rx="2.32445" ry="2.20488" transform="matrix(0.50823 0.861222 0.861222 -0.50823 1123.38 591.392)" fill="#ECF6F8"/>
<ellipse cx="2.32445" cy="2.20488" rx="2.32445" ry="2.20488" transform="matrix(0.50823 0.861222 0.861222 -0.50823 1204.62 627.116)" fill="#ECF6F8"/>
<ellipse cx="1.74334" cy="1.65366" rx="1.74334" ry="1.65366" transform="matrix(0.50823 0.861222 0.861222 -0.50823 1204.73 633.801)" fill="#ECF6F8"/>
<path d="M1214.71 668.763C1216.84 668.043 1218.06 662.512 1218.4 659.837C1218.91 655.827 1219.71 664.869 1225.44 668.505C1231.17 672.141 1224.49 675.584 1222.04 677.932C1220.87 678.846 1218.71 682.055 1219.41 687.58C1220.11 693.105 1213.46 690.868 1210.04 689.059C1204.7 684.341 1193.28 674.528 1190.34 673.023C1186.67 671.14 1186.27 663.954 1188.51 666.677C1190.31 668.855 1195.3 669.868 1197.58 670.102C1195.35 664.89 1192.44 656.401 1198.54 664.137C1206.16 673.806 1212.04 669.664 1214.71 668.763Z" fill="#D61516"/>
<path d="M1197.43 632.036C1191.32 628.624 1175.29 607.539 1168.04 597.422C1158.46 615.896 1183.99 624.447 1186.35 628.451C1202.56 679.344 1234.91 698.084 1248.91 700.842C1227.76 696.455 1205.84 661.482 1208.57 658.52C1210.76 656.15 1211.27 653.33 1211.25 652.215C1209.19 646.911 1203.54 635.448 1197.43 632.036Z" fill="#A4A176"/>
<path d="M1170.12 610.395C1169.45 607.326 1169.42 604.979 1169.28 604.998C1168.92 605.064 1169.13 608.167 1169.53 611.197C1170.2 614.265 1169.74 615.201 1170.59 614.992C1171.39 614.796 1170.79 613.463 1170.12 610.395Z" fill="#D9D6C7"/>
<path d="M1176.34 614.487C1175.62 611.174 1175.82 608.597 1175.59 608.631C1175.03 608.735 1175.03 612.126 1175.34 615.42C1176.06 618.733 1175.24 619.802 1176.59 619.498C1177.86 619.211 1177.06 617.8 1176.34 614.487Z" fill="#D9D6C7"/>
<path d="M1172.94 611.899C1172.12 608.863 1172.15 606.475 1171.95 606.514C1171.47 606.629 1171.67 609.761 1172.14 612.795C1172.95 615.832 1172.31 616.847 1173.46 616.521C1174.53 616.214 1173.76 614.936 1172.94 611.899Z" fill="#D9D6C7"/>
<path d="M1180.22 618.031C1179.75 615.842 1180.06 614.105 1179.85 614.139C1179.34 614.233 1179.17 616.505 1179.28 618.7C1179.75 620.89 1178.96 621.642 1180.19 621.379C1181.34 621.132 1180.7 620.221 1180.22 618.031Z" fill="#D9D6C7"/>
<path d="M1201.86 643.291C1198.21 641.188 1195.92 638.876 1195.79 639.107C1195.48 639.693 1198.7 642.493 1202.04 644.945C1205.69 647.049 1206.12 648.655 1206.79 647.212C1207.42 645.855 1205.51 645.395 1201.86 643.291Z" fill="#D9D6C7"/>
<path d="M1204.17 649.545C1201.25 646.454 1199.56 643.708 1199.41 643.846C1199.04 644.206 1201.47 647.696 1204.07 650.953C1207 654.044 1207.13 655.51 1207.95 654.595C1208.73 653.734 1207.1 652.637 1204.17 649.545Z" fill="#D9D6C7"/>
<path d="M1202.19 650.643C1199.64 647.226 1198.28 644.304 1198.12 644.421C1197.71 644.731 1199.72 648.48 1201.92 652.019C1204.48 655.437 1204.44 656.9 1205.37 656.1C1206.24 655.348 1204.75 654.061 1202.19 650.643Z" fill="#D9D6C7"/>
<path d="M1200.57 653.076C1197.59 649.092 1196.1 645.623 1195.87 645.779C1195.34 646.19 1197.6 650.622 1200.12 654.781C1203.09 658.764 1202.93 660.559 1204.17 659.507C1205.34 658.517 1203.54 657.059 1200.57 653.076Z" fill="#D9D6C7"/>
<path d="M1269.77 713.02C1277.82 717.986 1278.04 725.231 1277.2 728.874C1276.37 730.716 1278.15 728.314 1268.62 725.17C1260.99 722.654 1262.76 720.305 1264.6 719.444C1267.82 719.118 1273.56 717.933 1270.77 715.802C1267.97 713.672 1268.94 713.06 1269.77 713.02Z" fill="#091120"/>
</g>
<defs>
<filter id="filter0_f_595_16" x="1776.8" y="875.768" width="205.049" height="212.405" filterUnits="userSpaceOnUse" color-interpolation-filters="sRGB">
<feFlood flood-opacity="0" result="BackgroundImageFix"/>
<feBlend mode="normal" in="SourceGraphic" in2="BackgroundImageFix" result="shape"/>
<feGaussianBlur stdDeviation="12" result="effect1_foregroundBlur_595_16"/>
</filter>
<filter id="filter1_f_595_16" x="89.834" y="386.775" width="206.156" height="211.314" filterUnits="userSpaceOnUse" color-interpolation-filters="sRGB">
<feFlood flood-opacity="0" result="BackgroundImageFix"/>
<feBlend mode="normal" in="SourceGraphic" in2="BackgroundImageFix" result="shape"/>
<feGaussianBlur stdDeviation="12" result="effect1_foregroundBlur_595_16"/>
</filter>
<filter id="filter2_f_595_16" x="1955.57" y="964.998" width="159.256" height="156.096" filterUnits="userSpaceOnUse" color-interpolation-filters="sRGB">
<feFlood flood-opacity="0" result="BackgroundImageFix"/>
<feBlend mode="normal" in="SourceGraphic" in2="BackgroundImageFix" result="shape"/>
<feGaussianBlur stdDeviation="12" result="effect1_foregroundBlur_595_16"/>
</filter>
<filter id="filter3_f_595_16" x="136.336" y="580" width="158.781" height="156.565" filterUnits="userSpaceOnUse" color-interpolation-filters="sRGB">
<feFlood flood-opacity="0" result="BackgroundImageFix"/>
<feBlend mode="normal" in="SourceGraphic" in2="BackgroundImageFix" result="shape"/>
<feGaussianBlur stdDeviation="12" result="effect1_foregroundBlur_595_16"/>
</filter>
<filter id="filter4_f_595_16" x="1914.68" y="705.949" width="288.371" height="274.027" filterUnits="userSpaceOnUse" color-interpolation-filters="sRGB">
<feFlood flood-opacity="0" result="BackgroundImageFix"/>
<feBlend mode="normal" in="SourceGraphic" in2="BackgroundImageFix" result="shape"/>
<feGaussianBlur stdDeviation="12" result="effect1_foregroundBlur_595_16"/>
</filter>
<filter id="filter5_f_595_16" x="256.959" y="445.005" width="289.855" height="272.455" filterUnits="userSpaceOnUse" color-interpolation-filters="sRGB">
<feFlood flood-opacity="0" result="BackgroundImageFix"/>
<feBlend mode="normal" in="SourceGraphic" in2="BackgroundImageFix" result="shape"/>
<feGaussianBlur stdDeviation="12" result="effect1_foregroundBlur_595_16"/>
</filter>
<filter id="filter6_f_595_16" x="1603.89" y="884.467" width="194.711" height="199.823" filterUnits="userSpaceOnUse" color-interpolation-filters="sRGB">
<feFlood flood-opacity="0" result="BackgroundImageFix"/>
<feBlend mode="normal" in="SourceGraphic" in2="BackgroundImageFix" result="shape"/>
<feGaussianBlur stdDeviation="12" result="effect1_foregroundBlur_595_16"/>
</filter>
<filter id="filter7_f_595_16" x="5.17578" y="237.941" width="201.904" height="197.995" filterUnits="userSpaceOnUse" color-interpolation-filters="sRGB">
<feFlood flood-opacity="0" result="BackgroundImageFix"/>
<feBlend mode="normal" in="SourceGraphic" in2="BackgroundImageFix" result="shape"/>
<feGaussianBlur stdDeviation="12" result="effect1_foregroundBlur_595_16"/>
</filter>
<filter id="filter8_f_595_16" x="1955.6" y="526.197" width="194.068" height="183.35" filterUnits="userSpaceOnUse" color-interpolation-filters="sRGB">
<feFlood flood-opacity="0" result="BackgroundImageFix"/>
<feBlend mode="normal" in="SourceGraphic" in2="BackgroundImageFix" result="shape"/>
<feGaussianBlur stdDeviation="12" result="effect1_foregroundBlur_595_16"/>
</filter>
<filter id="filter9_f_595_16" x="503.416" y="368.625" width="184.047" height="193.877" filterUnits="userSpaceOnUse" color-interpolation-filters="sRGB">
<feFlood flood-opacity="0" result="BackgroundImageFix"/>
<feBlend mode="normal" in="SourceGraphic" in2="BackgroundImageFix" result="shape"/>
<feGaussianBlur stdDeviation="12" result="effect1_foregroundBlur_595_16"/>
</filter>
<filter id="filter10_f_595_16" x="1744.06" y="762.405" width="162.545" height="162.549" filterUnits="userSpaceOnUse" color-interpolation-filters="sRGB">
<feFlood flood-opacity="0" result="BackgroundImageFix"/>
<feBlend mode="normal" in="SourceGraphic" in2="BackgroundImageFix" result="shape"/>
<feGaussianBlur stdDeviation="12" result="effect1_foregroundBlur_595_16"/>
</filter>
<filter id="filter11_f_595_16" x="205.939" y="296.509" width="160.84" height="162.555" filterUnits="userSpaceOnUse" color-interpolation-filters="sRGB">
<feFlood flood-opacity="0" result="BackgroundImageFix"/>
<feBlend mode="normal" in="SourceGraphic" in2="BackgroundImageFix" result="shape"/>
<feGaussianBlur stdDeviation="12" result="effect1_foregroundBlur_595_16"/>
</filter>
<filter id="filter12_f_595_16" x="1830.36" y="642.663" width="142.041" height="146.874" filterUnits="userSpaceOnUse" color-interpolation-filters="sRGB">
<feFlood flood-opacity="0" result="BackgroundImageFix"/>
<feBlend mode="normal" in="SourceGraphic" in2="BackgroundImageFix" result="shape"/>
<feGaussianBlur stdDeviation="12" result="effect1_foregroundBlur_595_16"/>
</filter>
<filter id="filter13_f_595_16" x="365.012" y="308.107" width="141.383" height="147.504" filterUnits="userSpaceOnUse" color-interpolation-filters="sRGB">
<feFlood flood-opacity="0" result="BackgroundImageFix"/>
<feBlend mode="normal" in="SourceGraphic" in2="BackgroundImageFix" result="shape"/>
<feGaussianBlur stdDeviation="12" result="effect1_foregroundBlur_595_16"/>
</filter>
<filter id="filter14_f_595_16" x="1482.21" y="590.11" width="310.531" height="281.225" filterUnits="userSpaceOnUse" color-interpolation-filters="sRGB">
<feFlood flood-opacity="0" result="BackgroundImageFix"/>
<feBlend mode="normal" in="SourceGraphic" in2="BackgroundImageFix" result="shape"/>
<feGaussianBlur stdDeviation="12" result="effect1_foregroundBlur_595_16"/>
</filter>
<filter id="filter15_f_595_16" x="157.027" y="0.392578" width="267.973" height="316.613" filterUnits="userSpaceOnUse" color-interpolation-filters="sRGB">
<feFlood flood-opacity="0" result="BackgroundImageFix"/>
<feBlend mode="normal" in="SourceGraphic" in2="BackgroundImageFix" result="shape"/>
<feGaussianBlur stdDeviation="12" result="effect1_foregroundBlur_595_16"/>
</filter>
<filter id="filter16_f_595_16" x="1747.36" y="474.307" width="205.479" height="200.071" filterUnits="userSpaceOnUse" color-interpolation-filters="sRGB">
<feFlood flood-opacity="0" result="BackgroundImageFix"/>
<feBlend mode="normal" in="SourceGraphic" in2="BackgroundImageFix" result="shape"/>
<feGaussianBlur stdDeviation="12" result="effect1_foregroundBlur_595_16"/>
</filter>
<filter id="filter17_f_595_16" x="431.861" y="167.615" width="205.014" height="200.536" filterUnits="userSpaceOnUse" color-interpolation-filters="sRGB">
<feFlood flood-opacity="0" result="BackgroundImageFix"/>
<feBlend mode="normal" in="SourceGraphic" in2="BackgroundImageFix" result="shape"/>
<feGaussianBlur stdDeviation="12" result="effect1_foregroundBlur_595_16"/>
</filter>
<filter id="filter18_f_595_16" x="258" y="749" width="136.066" height="137" filterUnits="userSpaceOnUse" color-interpolation-filters="sRGB">
<feFlood flood-opacity="0" result="BackgroundImageFix"/>
<feBlend mode="normal" in="SourceGraphic" in2="BackgroundImageFix" result="shape"/>
<feGaussianBlur stdDeviation="12" result="effect1_foregroundBlur_595_16"/>
</filter>
<filter id="filter19_f_595_16" x="1598" y="471" width="136" height="120" filterUnits="userSpaceOnUse" color-interpolation-filters="sRGB">
<feFlood flood-opacity="0" result="BackgroundImageFix"/>
<feBlend mode="normal" in="SourceGraphic" in2="BackgroundImageFix" result="shape"/>
<feGaussianBlur stdDeviation="12" result="effect1_foregroundBlur_595_16"/>
</filter>
<filter id="filter20_f_595_16" x="1828.61" y="720.521" width="144.783" height="159.445" filterUnits="userSpaceOnUse" color-interpolation-filters="sRGB">
<feFlood flood-opacity="0" result="BackgroundImageFix"/>
<feBlend mode="normal" in="SourceGraphic" in2="BackgroundImageFix" result="shape"/>
<feGaussianBlur stdDeviation="12" result="effect1_foregroundBlur_595_16"/>
</filter>
<filter id="filter21_f_595_16" x="1830.7" y="736.01" width="140.605" height="128.524" filterUnits="userSpaceOnUse" color-interpolation-filters="sRGB">
<feFlood flood-opacity="0" result="BackgroundImageFix"/>
<feBlend mode="normal" in="SourceGraphic" in2="BackgroundImageFix" result="shape"/>
<feGaussianBlur stdDeviation="12" result="effect1_foregroundBlur_595_16"/>
</filter>
<filter id="filter22_f_595_16" x="1849.03" y="744.09" width="104" height="112.31" filterUnits="userSpaceOnUse" color-interpolation-filters="sRGB">
<feFlood flood-opacity="0" result="BackgroundImageFix"/>
<feBlend mode="normal" in="SourceGraphic" in2="BackgroundImageFix" result="shape"/>
<feGaussianBlur stdDeviation="12" result="effect1_foregroundBlur_595_16"/>
</filter>
<filter id="filter23_f_595_16" x="1847.29" y="750.375" width="107.426" height="99.7395" filterUnits="userSpaceOnUse" color-interpolation-filters="sRGB">
<feFlood flood-opacity="0" result="BackgroundImageFix"/>
<feBlend mode="normal" in="SourceGraphic" in2="BackgroundImageFix" result="shape"/>
<feGaussianBlur stdDeviation="12" result="effect1_foregroundBlur_595_16"/>
</filter>
<filter id="filter24_f_595_16" x="1867.11" y="767.295" width="66.4746" height="66.4741" filterUnits="userSpaceOnUse" color-interpolation-filters="sRGB">
<feFlood flood-opacity="0" result="BackgroundImageFix"/>
<feBlend mode="normal" in="SourceGraphic" in2="BackgroundImageFix" result="shape"/>
<feGaussianBlur stdDeviation="12" result="effect1_foregroundBlur_595_16"/>
</filter>
<filter id="filter25_f_595_16" x="285.611" y="360.521" width="144.783" height="159.445" filterUnits="userSpaceOnUse" color-interpolation-filters="sRGB">
<feFlood flood-opacity="0" result="BackgroundImageFix"/>
<feBlend mode="normal" in="SourceGraphic" in2="BackgroundImageFix" result="shape"/>
<feGaussianBlur stdDeviation="12" result="effect1_foregroundBlur_595_16"/>
</filter>
<filter id="filter26_f_595_16" x="287.699" y="376.01" width="140.605" height="128.524" filterUnits="userSpaceOnUse" color-interpolation-filters="sRGB">
<feFlood flood-opacity="0" result="BackgroundImageFix"/>
<feBlend mode="normal" in="SourceGraphic" in2="BackgroundImageFix" result="shape"/>
<feGaussianBlur stdDeviation="12" result="effect1_foregroundBlur_595_16"/>
</filter>
<filter id="filter27_f_595_16" x="306.027" y="384.09" width="104" height="112.31" filterUnits="userSpaceOnUse" color-interpolation-filters="sRGB">
<feFlood flood-opacity="0" result="BackgroundImageFix"/>
<feBlend mode="normal" in="SourceGraphic" in2="BackgroundImageFix" result="shape"/>
<feGaussianBlur stdDeviation="12" result="effect1_foregroundBlur_595_16"/>
</filter>
<filter id="filter28_f_595_16" x="304.289" y="390.375" width="107.426" height="99.7395" filterUnits="userSpaceOnUse" color-interpolation-filters="sRGB">
<feFlood flood-opacity="0" result="BackgroundImageFix"/>
<feBlend mode="normal" in="SourceGraphic" in2="BackgroundImageFix" result="shape"/>
<feGaussianBlur stdDeviation="12" result="effect1_foregroundBlur_595_16"/>
</filter>
<filter id="filter29_f_595_16" x="324.105" y="407.295" width="66.4746" height="66.4741" filterUnits="userSpaceOnUse" color-interpolation-filters="sRGB">
<feFlood flood-opacity="0" result="BackgroundImageFix"/>
<feBlend mode="normal" in="SourceGraphic" in2="BackgroundImageFix" result="shape"/>
<feGaussianBlur stdDeviation="12" result="effect1_foregroundBlur_595_16"/>
</filter>
<filter id="filter30_f_595_16" x="323.41" y="188.919" width="172.254" height="171.714" filterUnits="userSpaceOnUse" color-interpolation-filters="sRGB">
<feFlood flood-opacity="0" result="BackgroundImageFix"/>
<feBlend mode="normal" in="SourceGraphic" in2="BackgroundImageFix" result="shape"/>
<feGaussianBlur stdDeviation="12" result="effect1_foregroundBlur_595_16"/>
</filter>
<filter id="filter31_f_595_16" x="334.107" y="199.078" width="150.855" height="151.31" filterUnits="userSpaceOnUse" color-interpolation-filters="sRGB">
<feFlood flood-opacity="0" result="BackgroundImageFix"/>
<feBlend mode="normal" in="SourceGraphic" in2="BackgroundImageFix" result="shape"/>
<feGaussianBlur stdDeviation="12" result="effect1_foregroundBlur_595_16"/>
</filter>
<filter id="filter32_f_595_16" x="349.633" y="214.966" width="119.854" height="119.536" filterUnits="userSpaceOnUse" color-interpolation-filters="sRGB">
<feFlood flood-opacity="0" result="BackgroundImageFix"/>
<feBlend mode="normal" in="SourceGraphic" in2="BackgroundImageFix" result="shape"/>
<feGaussianBlur stdDeviation="12" result="effect1_foregroundBlur_595_16"/>
</filter>
<filter id="filter33_f_595_16" x="352.445" y="217.521" width="114.129" height="114.424" filterUnits="userSpaceOnUse" color-interpolation-filters="sRGB">
<feFlood flood-opacity="0" result="BackgroundImageFix"/>
<feBlend mode="normal" in="SourceGraphic" in2="BackgroundImageFix" result="shape"/>
<feGaussianBlur stdDeviation="12" result="effect1_foregroundBlur_595_16"/>
</filter>
<filter id="filter34_f_595_16" x="374.105" y="240.236" width="69.2246" height="69.2251" filterUnits="userSpaceOnUse" color-interpolation-filters="sRGB">
<feFlood flood-opacity="0" result="BackgroundImageFix"/>
<feBlend mode="normal" in="SourceGraphic" in2="BackgroundImageFix" result="shape"/>
<feGaussianBlur stdDeviation="12" result="effect1_foregroundBlur_595_16"/>
</filter>
<filter id="filter35_f_595_16" x="1303.51" y="112.812" width="527.596" height="271.072" filterUnits="userSpaceOnUse" color-interpolation-filters="sRGB">
<feFlood flood-opacity="0" result="BackgroundImageFix"/>
<feBlend mode="normal" in="SourceGraphic" in2="BackgroundImageFix" result="shape"/>
<feGaussianBlur stdDeviation="12" result="effect1_foregroundBlur_595_16"/>
</filter>
<filter id="filter36_f_595_16" x="1021.45" y="430.951" width="364.732" height="354.948" filterUnits="userSpaceOnUse" color-interpolation-filters="sRGB">
<feFlood flood-opacity="0" result="BackgroundImageFix"/>
<feBlend mode="normal" in="SourceGraphic" in2="BackgroundImageFix" result="shape"/>
<feGaussianBlur stdDeviation="12" result="effect1_foregroundBlur_595_16"/>
</filter>
<radialGradient id="paint0_radial_595_16" cx="0" cy="0" r="1" gradientUnits="userSpaceOnUse" gradientTransform="translate(1900.34 800.532) rotate(90) scale(9.23711)">
<stop stop-color="#FE6A00"/>
<stop offset="1" stop-color="#F7DD26"/>
</radialGradient>
<radialGradient id="paint1_radial_595_16" cx="0" cy="0" r="1" gradientUnits="userSpaceOnUse" gradientTransform="translate(357.343 440.532) rotate(90) scale(9.23711)">
<stop stop-color="#FE6A00"/>
<stop offset="1" stop-color="#F7DD26"/>
</radialGradient>
<radialGradient id="paint2_radial_595_16" cx="0" cy="0" r="1" gradientUnits="userSpaceOnUse" gradientTransform="translate(408.718 274.849) rotate(90) scale(10.6098)">
<stop stop-color="#FE6A00"/>
<stop offset="1" stop-color="#F7DD26"/>
</radialGradient>
</defs>
</svg>
