<svg width="48" height="34" viewBox="0 0 48 34" fill="none" xmlns="http://www.w3.org/2000/svg">
<path d="M2.4 0C3.7275 0 4.8 1.08527 4.8 2.42857V21.8571H21.6V9.71429C21.6 8.37098 22.6725 7.28571 24 7.28571H40.8C44.775 7.28571 48 10.5491 48 14.5714V31.5714C48 32.9147 46.9275 34 45.6 34C44.2725 34 43.2 32.9147 43.2 31.5714V29.1429H26.4H24H4.8V31.5714C4.8 32.9147 3.7275 34 2.4 34C1.0725 34 0 32.9147 0 31.5714V2.42857C0 1.08527 1.0725 0 2.4 0ZM13.2 7.28571C14.7913 7.28571 16.3174 7.92538 17.4426 9.06399C18.5679 10.2026 19.2 11.7469 19.2 13.3571C19.2 14.9674 18.5679 16.5117 17.4426 17.6503C16.3174 18.7889 14.7913 19.4286 13.2 19.4286C11.6087 19.4286 10.0826 18.7889 8.95736 17.6503C7.83214 16.5117 7.2 14.9674 7.2 13.3571C7.2 11.7469 7.83214 10.2026 8.95736 9.06399C10.0826 7.92538 11.6087 7.28571 13.2 7.28571Z" fill="url(#paint0_linear_430_174)"/>
<defs>
<linearGradient id="paint0_linear_430_174" x1="24" y1="0" x2="24" y2="34" gradientUnits="userSpaceOnUse">
<stop stop-color="#CCF7FA"/>
<stop offset="1" stop-color="#95A5A6"/>
</linearGradient>
</defs>
</svg>
