<svg width="48" height="48" viewBox="0 0 48 48" fill="none" xmlns="http://www.w3.org/2000/svg">
<path d="M32.5033 0.562465C31.6502 1.59365 30.0003 3.96538 30.0003 6.74959C30.0003 10.4994 31.4346 11.9336 33.7502 14.2491C36.0658 16.5646 37.5001 17.9989 41.2501 17.9989C44.0344 17.9989 46.4063 16.349 47.4375 15.4959C47.8125 15.1866 48 14.7272 48 14.2491C48 13.771 47.8125 13.3117 47.4375 13.0117C46.3688 12.1586 43.8469 10.4994 40.5001 10.4994C37.5001 10.4994 36.7502 11.2493 36.7502 11.2493C36.7502 11.2493 37.5001 10.4994 37.5001 7.49954C37.5001 4.15287 35.8408 1.63115 34.9877 0.562465C34.6877 0.187488 34.2283 0 33.7502 0C33.2721 0 32.8127 0.187488 32.5033 0.562465ZM22.9316 12.7492C19.1816 12.7492 15.7036 14.446 13.3974 17.2677L19.0691 22.9392C19.6504 23.5204 19.6504 24.4766 19.0691 25.0578C18.4879 25.6391 17.5317 25.6391 16.9504 25.0578L11.7661 19.8738V19.8832L0.206908 44.8004C-0.186837 45.6534 -0.00871415 46.6659 0.656902 47.3408C1.32252 48.0158 2.335 48.1845 3.19749 47.7908L15.8254 41.9412L10.9411 37.0571C10.3599 36.4759 10.3599 35.5197 10.9411 34.9385C11.5224 34.3573 12.4786 34.3573 13.0599 34.9385L18.7223 40.5913L28.1159 36.2415C32.4658 34.226 35.2596 29.8669 35.2596 25.0672C35.2502 18.2614 29.7378 12.7492 22.9316 12.7492Z" fill="url(#paint0_linear_430_194)"/>
<defs>
<linearGradient id="paint0_linear_430_194" x1="24" y1="0" x2="24" y2="48" gradientUnits="userSpaceOnUse">
<stop stop-color="#CCFADF"/>
<stop offset="1" stop-color="#2ECC71"/>
</linearGradient>
</defs>
</svg>
