<svg xmlns="http://www.w3.org/2000/svg" width="56" height="64" viewBox="0 0 56 64" fill="none">
<path d="M19.9125 0.678124C20.8875 -0.234331 22.4 -0.221832 23.375 0.690623C26.825 3.92796 30.0625 7.41529 33.0875 11.1901C34.4625 9.39019 36.025 7.42779 37.7125 5.82787C38.7 4.90292 40.225 4.90292 41.2125 5.84037C45.5375 9.96517 49.2 15.4149 51.775 20.5896C54.3125 25.6894 56 30.9016 56 34.5765C56 50.5257 43.525 64 28 64C12.3 64 0 50.5132 0 34.564C0 29.7642 2.225 23.902 5.675 18.1023C9.1625 12.2151 14.0875 6.07786 19.9125 0.678124ZM28.2125 52.0006C31.375 52.0006 34.175 51.1256 36.8125 49.3757C42.075 45.7009 43.4875 38.3513 40.325 32.5766C39.7625 31.4516 38.325 31.3766 37.5125 32.3266L34.3625 35.9889C33.5375 36.9388 32.05 36.9138 31.275 35.9264C29.2125 33.3015 25.525 28.6142 23.425 25.9519C22.6375 24.9519 21.1375 24.9394 20.3375 25.9394C16.1125 31.2516 13.9875 34.6015 13.9875 38.3638C14 46.9258 20.325 52.0006 28.2125 52.0006Z" fill="url(#paint0_linear_540_1664)"/>
<defs>
<linearGradient id="paint0_linear_540_1664" x1="28" y1="0" x2="28" y2="64" gradientUnits="userSpaceOnUse">
<stop stop-color="#CDE4FA"/>
<stop offset="1" stop-color="#8EB7DE"/>
</linearGradient>
</defs>
</svg>