<svg width="34" height="40" viewBox="0 0 34 40" fill="none" xmlns="http://www.w3.org/2000/svg">
<path d="M19.7816 0C8.85084 0 0 8.95536 0 20C0 31.0446 8.85084 40 19.7816 40C25.1452 40 30.0043 37.8393 33.5712 34.3393C34.0138 33.9018 34.1288 33.2232 33.8456 32.6696C33.5624 32.1161 32.9517 31.8036 32.341 31.9107C31.4736 32.0625 30.5885 32.1429 29.6769 32.1429C21.1004 32.1429 14.1436 25.1071 14.1436 16.4286C14.1436 10.5536 17.3299 5.4375 22.0474 2.74107C22.5873 2.42857 22.8617 1.80357 22.729 1.19643C22.5962 0.589286 22.0828 0.133929 21.4633 0.0803573C20.9057 0.0357144 20.3481 0.00892844 19.7816 0.00892844V0Z" fill="url(#paint0_linear_553_8034)"/>
<defs>
<linearGradient id="paint0_linear_553_8034" x1="17" y1="0" x2="17" y2="40" gradientUnits="userSpaceOnUse">
<stop stop-color="#CDE8FA"/>
<stop offset="1" stop-color="#3498DB"/>
</linearGradient>
</defs>
</svg>
