<svg
  xmlns="http://www.w3.org/2000/svg"
  width="64"
  height="64"
  viewBox="0 0 64 64"
  fill="none"
>
  <path
    d="M56 32C56 28.8483 55.3792 25.7274 54.1731 22.8156C52.967 19.9038 51.1992 17.258 48.9706 15.0294C46.742 12.8008 44.0962 11.033 41.1844 9.82689C38.2726 8.62078 35.1517 8 32 8C28.8483 8 25.7274 8.62078 22.8156 9.82689C19.9038 11.033 17.258 12.8008 15.0294 15.0294C12.8008 17.258 11.033 19.9038 9.82689 22.8156C8.62078 25.7274 8 28.8483 8 32C8 35.1517 8.62078 38.2726 9.82689 41.1844C11.033 44.0962 12.8008 46.742 15.0294 48.9706C17.258 51.1992 19.9038 52.967 22.8156 54.1731C25.7274 55.3792 28.8483 56 32 56C35.1517 56 38.2726 55.3792 41.1844 54.1731C44.0962 52.967 46.742 51.1992 48.9706 48.9706C51.1992 46.742 52.967 44.0962 54.1731 41.1844C55.3792 38.2726 56 35.1517 56 32ZM0 32C0 23.5131 3.37142 15.3737 9.37258 9.37258C15.3737 3.37142 23.5131 0 32 0C40.4869 0 48.6263 3.37142 54.6274 9.37258C60.6286 15.3737 64 23.5131 64 32C64 40.4869 60.6286 48.6263 54.6274 54.6274C48.6263 60.6286 40.4869 64 32 64C23.5131 64 15.3737 60.6286 9.37258 54.6274C3.37142 48.6263 0 40.4869 0 32ZM32 42C34.6522 42 37.1957 40.9464 39.0711 39.0711C40.9464 37.1957 42 34.6522 42 32C42 29.3478 40.9464 26.8043 39.0711 24.9289C37.1957 23.0536 34.6522 22 32 22C29.3478 22 26.8043 23.0536 24.9289 24.9289C23.0536 26.8043 22 29.3478 22 32C22 34.6522 23.0536 37.1957 24.9289 39.0711C26.8043 40.9464 29.3478 42 32 42ZM32 14C36.7739 14 41.3523 15.8964 44.7279 19.2721C48.1036 22.6477 50 27.2261 50 32C50 36.7739 48.1036 41.3523 44.7279 44.7279C41.3523 48.1036 36.7739 50 32 50C27.2261 50 22.6477 48.1036 19.2721 44.7279C15.8964 41.3523 14 36.7739 14 32C14 27.2261 15.8964 22.6477 19.2721 19.2721C22.6477 15.8964 27.2261 14 32 14ZM28 32C28 30.9391 28.4214 29.9217 29.1716 29.1716C29.9217 28.4214 30.9391 28 32 28C33.0609 28 34.0783 28.4214 34.8284 29.1716C35.5786 29.9217 36 30.9391 36 32C36 33.0609 35.5786 34.0783 34.8284 34.8284C34.0783 35.5786 33.0609 36 32 36C30.9391 36 29.9217 35.5786 29.1716 34.8284C28.4214 34.0783 28 33.0609 28 32Z"
    fill="url(#paint0_linear_540_1671)"
  />
  <defs>
    <linearGradient
      id="paint0_linear_540_1671"
      x1="32"
      y1="0"
      x2="32"
      y2="64"
      gradientUnits="userSpaceOnUse"
    >
      <stop stop-color="#CDE4FA" />
      <stop offset="1" stop-color="#8EB7DE" />
    </linearGradient>
  </defs>
</svg>
