<svg width="24" height="21" viewBox="0 0 24 21" fill="none" xmlns="http://www.w3.org/2000/svg">
<path d="M18.2983 0.0508346C18.7649 -0.0804092 19.2649 0.0467332 19.6065 0.383045L21.5814 2.32709L20.4773 2.6511C18.0608 3.33193 16.3901 4.27524 15.0777 5.41542C13.7778 6.5433 12.8613 7.83933 11.9488 9.14356L11.853 9.27891C10.0657 11.8423 8.12415 14.6271 3.03291 17.133L1.57886 17.8508L0.391461 16.6778C0.0873195 16.3784 -0.050169 15.9559 0.0164921 15.5376C0.0831532 15.1193 0.353964 14.7624 0.737265 14.5738C5.67019 12.1499 7.5367 9.47578 9.30322 6.94523L9.39904 6.80579C10.3073 5.50155 11.2697 4.144 12.6363 2.9546C14.0278 1.7447 15.7943 0.75627 18.2983 0.0508346ZM2.57461 18.8269L3.63286 18.306C9.02824 15.6524 11.1281 12.642 12.9571 10.0213L13.0487 9.88591C13.9695 8.56937 14.8028 7.40458 15.961 6.39565C17.1067 5.39902 18.6024 4.54183 20.8481 3.91022L20.8564 3.90612L22.6521 3.37704L23.6104 4.32036C23.9437 4.64847 24.077 5.12833 23.9562 5.57948C23.8353 6.03063 23.4854 6.38334 23.0312 6.51049C20.8689 7.11749 19.4649 7.93366 18.4025 8.85647C17.3151 9.79978 16.5234 10.9031 15.5985 12.2237L15.5069 12.3549C13.657 15.0085 11.478 18.1297 5.9285 20.8612C5.41604 21.1155 4.79526 21.0129 4.39113 20.6151L2.57461 18.8269Z" fill="#FEF3E2"/>
</svg>
