<svg width="48" height="43" viewBox="0 0 48 43" fill="none" xmlns="http://www.w3.org/2000/svg">
<path d="M36.5966 0.10409C37.5299 -0.164647 38.5298 0.0956918 39.2131 0.784331L43.1627 4.765L40.9546 5.42844C36.1216 6.82252 32.7803 8.75407 30.1555 11.0887C27.5557 13.3982 25.7225 16.052 23.8977 18.7225L23.706 18.9997C20.1313 24.2484 16.2483 29.9507 6.06581 35.0819L3.15772 36.5516L0.782922 34.1497C0.174639 33.5367 -0.100338 32.6717 0.0329843 31.8151C0.166306 30.9585 0.707928 30.2278 1.47453 29.8415C11.3404 24.8783 15.0734 19.4028 18.6064 14.2212L18.7981 13.9357C20.6146 11.2651 22.5394 8.48533 25.2725 6.0499C28.0556 3.57248 31.5887 1.54855 36.5966 0.10409ZM5.14922 38.5503L7.26571 37.4837C18.0565 32.0502 22.2561 25.8861 25.9142 20.5197L26.0975 20.2426C27.939 17.5468 29.6055 15.1618 31.922 13.0959C34.2135 11.0551 37.2049 9.29994 41.6962 8.00664L41.7128 7.99824L45.3042 6.9149L47.2207 8.84645C47.8873 9.51829 48.154 10.5009 47.9123 11.4246C47.6707 12.3484 46.9707 13.0707 46.0625 13.331C41.7378 14.5739 38.9297 16.2451 36.8049 18.1347C34.6301 20.0662 33.0469 22.3253 31.1971 25.0295L31.0137 25.2982C27.314 30.7317 22.9561 37.1226 11.857 42.7157C10.8321 43.2364 9.59052 43.0265 8.78225 42.2118L5.14922 38.5503Z" fill="url(#paint0_linear_430_170)"/>
<defs>
<linearGradient id="paint0_linear_430_170" x1="24" y1="0" x2="24" y2="43" gradientUnits="userSpaceOnUse">
<stop stop-color="#FAE8CC"/>
<stop offset="1" stop-color="#F39C12"/>
</linearGradient>
</defs>
</svg>
