<svg width="18" height="24" viewBox="0 0 18 24" fill="none" xmlns="http://www.w3.org/2000/svg">
<path d="M1.49988 0C1.08266 0 0.684195 0.173437 0.402924 0.478125C0.121652 0.782812 -0.0283596 1.19062 0.00445541 1.60781L1.35456 20.5172C1.4952 22.4813 3.12657 24 5.09547 24H12.9055C14.8744 24 16.5057 22.4813 16.6464 20.5172L17.9965 1.60781C18.0246 1.19062 17.884 0.782812 17.598 0.478125C17.312 0.173437 16.9183 0 16.501 0H1.49988ZM3.42191 7.33594L3.11251 3H14.8931L14.579 7.33594L13.4446 7.90313C12.5351 8.35781 11.4663 8.35781 10.5568 7.90313C9.57707 7.41563 8.42386 7.41563 7.44409 7.90313C6.53465 8.35781 5.46581 8.35781 4.55637 7.90313L3.42191 7.33594Z" fill="#E5F2FA"/>
</svg>
