<svg width="24" height="17" viewBox="0 0 24 17" fill="none" xmlns="http://www.w3.org/2000/svg">
<path d="M1.2 0C1.86375 0 2.4 0.542634 2.4 1.21429V10.9286H10.8V4.85714C10.8 4.18549 11.3363 3.64286 12 3.64286H20.4C22.3875 3.64286 24 5.27455 24 7.28571V15.7857C24 16.4574 23.4638 17 22.8 17C22.1363 17 21.6 16.4574 21.6 15.7857V14.5714H13.2H12H2.4V15.7857C2.4 16.4574 1.86375 17 1.2 17C0.53625 17 0 16.4574 0 15.7857V1.21429C0 0.542634 0.53625 0 1.2 0ZM6.6 3.64286C7.39565 3.64286 8.15871 3.96269 8.72132 4.532C9.28393 5.1013 9.6 5.87345 9.6 6.67857C9.6 7.48369 9.28393 8.25584 8.72132 8.82515C8.15871 9.39445 7.39565 9.71429 6.6 9.71429C5.80435 9.71429 5.04129 9.39445 4.47868 8.82515C3.91607 8.25584 3.6 7.48369 3.6 6.67857C3.6 5.87345 3.91607 5.1013 4.47868 4.532C5.04129 3.96269 5.80435 3.64286 6.6 3.64286Z" fill="#EEF1F1"/>
</svg>
