<svg width="42" height="48" viewBox="0 0 42 48" fill="none" xmlns="http://www.w3.org/2000/svg">
<path d="M9 0C4.03125 0 0 4.03125 0 9V39C0 43.9688 4.03125 48 9 48H36H39C40.6594 48 42 46.6594 42 45C42 43.3406 40.6594 42 39 42V36C40.6594 36 42 34.6594 42 33V3C42 1.34062 40.6594 0 39 0H36H9ZM9 36H33V42H9C7.34062 42 6 40.6594 6 39C6 37.3406 7.34062 36 9 36ZM12 13.5C12 12.675 12.675 12 13.5 12H31.5C32.325 12 33 12.675 33 13.5C33 14.325 32.325 15 31.5 15H13.5C12.675 15 12 14.325 12 13.5ZM13.5 18H31.5C32.325 18 33 18.675 33 19.5C33 20.325 32.325 21 31.5 21H13.5C12.675 21 12 20.325 12 19.5C12 18.675 12.675 18 13.5 18Z" fill="url(#paint0_linear_430_182)"/>
<defs>
<linearGradient id="paint0_linear_430_182" x1="21" y1="0" x2="21" y2="48" gradientUnits="userSpaceOnUse">
<stop stop-color="#ECCCFA"/>
<stop offset="1" stop-color="#8E44AD"/>
</linearGradient>
</defs>
</svg>
