<svg width="24" height="24" viewBox="0 0 24 24" fill="none" xmlns="http://www.w3.org/2000/svg">
<path d="M17.3076 0.775927L14.6756 3.41196L20.5918 9.32648L23.2239 6.69518C24.2587 5.66061 24.2587 3.98829 23.2239 2.95372L21.0502 0.775927C20.0153 -0.258643 18.3425 -0.258643 17.3076 0.775927ZM13.5084 4.38039L13.0737 4.51266L6.26438 6.55346C5.32402 6.8369 4.57741 7.55496 4.26553 8.49032L0.0788266 20.9713C-0.100739 21.5051 0.0315726 22.1004 0.423781 22.5019L7.682 15.2505C7.54024 14.9528 7.45991 14.6222 7.45991 14.2726C7.45991 13.0207 8.47587 12.005 9.7281 12.005C10.9803 12.005 11.9963 13.0207 11.9963 14.2726C11.9963 15.5245 10.9803 16.5401 9.7281 16.5401C9.37842 16.5401 9.04764 16.4598 8.74994 16.3181L1.49172 23.5743C1.89811 23.9664 2.48878 24.1034 3.02275 23.9191L15.512 19.7336C16.4429 19.4218 17.1659 18.6754 17.4494 17.7353L19.4908 10.9279L19.6184 10.4933L13.5084 4.38039Z" fill="#EFF0F1"/>
</svg>
